<svg xmlns="http://www.w3.org/2000/svg" viewBox="0 0 608 500.99"><defs><style>.cls-1{fill:#1573ff;}.cls-2{fill:#c19b4b;}.cls-3{fill:#009245;}.cls-4{fill:#c1924b;}.cls-5{fill:#f7b01e;}.cls-6{font-size:72px;font-family:AmericanTypewriter, American Typewriter;}.cls-7{letter-spacing:-0.08em;}.cls-8{letter-spacing:-0.07em;}.cls-9{fill:none;}.cls-10{fill:#e6e6e6;}.cls-11{fill:#ff7bac;}.cls-12{fill:#f2f2f2;}.cls-13{fill:#fcee21;}</style></defs><title>ex-1</title><g id="water"><path class="cls-1" d="M299,585.11c3,120.4,125,265.5,292.88,265.67C803,851,893,678.71,907,583" transform="translate(-299 -349.79)"/></g><g id="palm_tree" data-name="palm tree"><path class="cls-2" d="M788.9,597.53,753.45,614c2.18-14.57-1.56-35.6-4.65-59.68-2.51-19.55-8.37-45.6-13.53-65.37-6.12-23.51-23.23-54.22-35-73.68,7.09.37,20.48-.89,27.56-.52,4.53,13.18,23.28,54.56,31.3,76.63,6,16.51,14.56,41.45,17,52.61C778.91,556.4,786.63,587.09,788.9,597.53Z" transform="translate(-299 -349.79)"/><path class="cls-3" d="M726.55,386.66c2.29,7.48-1.92,16.08-7.25,14.82l-27.1-6.4c-2.56-.63-20.31-2.36-32.1-5.22-18-4.38-35.68,12-39.33,12.37L581.32,419S612,364.3,654.93,358C689.87,352.8,716.68,354.39,726.55,386.66Z" transform="translate(-299 -349.79)"/><path class="cls-3" d="M727,392.59a7.52,7.52,0,0,1-4.2,12.7l-31,5.28c-2.93.48-22.61,5.61-36.1,7.86-20.64,3.43-35.72,20.88-39.59,22.43L577.46,466.3s19.81-48.19,64.79-67.79C678.87,382.55,708.33,374.1,727,392.59Z" transform="translate(-299 -349.79)"/><path class="cls-3" d="M714.62,379.69c-.87,5.73,3.35,11.47,7.26,9.89l19.9-8.06c1.88-.78,15.2-4.27,23.85-7.83,13.23-5.45,28.6,4.28,31.42,4.09l32,7.24s-29.81-36-63.26-35.22C738.58,350.42,718.34,354.93,714.62,379.69Z" transform="translate(-299 -349.79)"/><path class="cls-3" d="M723,387.64a6.55,6.55,0,0,0,3.51,11.05L752.82,403c2.49.39,19.19,4.66,30.64,6.48,17.53,2.78,30.25,17.89,33.53,19.2l32.72,21.84s-16.56-42-54.68-58.61C764,378.33,739,371.25,723,387.64Z" transform="translate(-299 -349.79)"/><path class="cls-3" d="M712.24,406.31c-3.79,4.39-3.3,11.49.85,12.25l21.13,3.82c2,.35,15.13,4.52,24.34,6.14,14.09,2.46,21.88,18.9,24.37,20.25L806.13,472s-6-46.34-34.64-63.58C748.14,394.39,728.62,387.38,712.24,406.31Z" transform="translate(-299 -349.79)"/><path class="cls-3" d="M746.71,411.64c3.7,4.46,3,11.56-1.12,12.22l-21.21,3.36c-2,.3-15.22,4.19-24.47,5.59-14.14,2.16-22.29,18.42-24.81,19.72l-23.71,22.72s7-46.2,36-62.81C711.08,398.93,730.75,392.35,746.71,411.64Z" transform="translate(-299 -349.79)"/><path class="cls-4" d="M841.13,663.8c-67.85,15-173-3.12-210.82-11.41-7.42-1.63,5.48-15.65,10.88-21,45.1-44.94,58.86-52.11,147-47.41,53.44,2.85,85.09,30.76,88.59,36.75S841.13,663.8,841.13,663.8Z" transform="translate(-299 -349.79)"/><circle class="cls-5" cx="129" cy="69.21" r="69"/></g><g id="Layer_6" data-name="Layer 6"><text class="cls-6" transform="translate(117.3 229.42)">H<tspan class="cls-7" x="56.38" y="0">A</tspan><tspan class="cls-8" x="104.47" y="0">W</tspan><tspan x="165.89" y="0">AII</tspan></text></g><g id="flower"><path class="cls-9" d="M373.09,669l.27-.14-.09-.11Z" transform="translate(-299 -349.79)"/><path class="cls-10" d="M371.17,697.22c-6.71,10.53-17.71,16.83-24.57,14.08a8.3,8.3,0,0,1-5-6.55c-1.66-4.26-.83-10.53,2.5-17-6.55,11-6.2,22,1,24.87,7.41,3,19.31-3.83,26.57-15.22a38,38,0,0,0,3.57-7l-.45-.55A34.48,34.48,0,0,1,371.17,697.22Z" transform="translate(-299 -349.79)"/><path class="cls-11" d="M341.64,704.75c-.9-4.72.66-11.16,4.72-17.51a39.56,39.56,0,0,1,2.41-3.38,37.46,37.46,0,0,1,5.94-7.16c-.75,0-1.51,0-2.26,0a41.27,41.27,0,0,0-6.5,7.84c-.67,1-1.27,2.11-1.81,3.16C340.81,694.22,340,700.49,341.64,704.75Z" transform="translate(-299 -349.79)"/><path class="cls-12" d="M349,706.89c-6.55-2.63-6.65-12.92-.24-23l0,0a39.56,39.56,0,0,0-2.41,3.38c-4.06,6.35-5.62,12.79-4.72,17.51a8.3,8.3,0,0,0,5,6.55c6.86,2.75,17.86-3.55,24.57-14.08a34.48,34.48,0,0,0,3.63-7.42l-.2-.25a35.34,35.34,0,0,1-2.16,3.9C366,703.51,355.52,709.52,349,706.89Z" transform="translate(-299 -349.79)"/><path class="cls-10" d="M355.15,676.68c6.29-.39,11.4-2.17,14.6-4.75a20.48,20.48,0,0,1-5.24,2.16,29.13,29.13,0,0,1-9.58,2.1c-11.82.72-23.67-4.16-26.48-10.9a7,7,0,0,1,1.09-7.41c1.78-3.62,6.64-6.46,13.35-7.51-12,1.12-19.3,7.47-16.37,14.52,2.82,6.78,14.1,11.81,25.93,11.86.75,0,1.51,0,2.26,0Z" transform="translate(-299 -349.79)"/><path class="cls-11" d="M329.54,657.88c2.61-3.3,8.1-5.67,15.22-6.11,1.33-.08,2.65-.09,4,0a37.67,37.67,0,0,1,9.95.75c-.14-.46-.27-.94-.39-1.42a40.92,40.92,0,0,0-12-1.06,33,33,0,0,0-3.41.37C336.18,651.42,331.32,654.26,329.54,657.88Z" transform="translate(-299 -349.79)"/><path class="cls-12" d="M358.38,675.06c-11.29.69-22.61-4-25.29-10.41s4.3-12.22,15.58-12.91h.06c-1.32-.05-2.64,0-4,0-7.12.44-12.61,2.81-15.22,6.11a7,7,0,0,0-1.09,7.41c2.81,6.74,14.66,11.62,26.48,10.9a29.13,29.13,0,0,0,9.58-2.1A31.09,31.09,0,0,1,358.38,675.06Z" transform="translate(-299 -349.79)"/><path class="cls-10" d="M364.61,663.8a25,25,0,0,1-2.95-5.49,35.77,35.77,0,0,1-3.52-10.16c-2.48-12.64.62-25.65,6.93-29.07a6.85,6.85,0,0,1,7.56.72c3.88,1.7,7.44,6.74,9.49,13.88-2.91-12.84-10.33-20.27-16.93-16.7-6.83,3.7-10.19,17.77-7.5,31.44q.27,1.37.6,2.64c.12.48.25,1,.39,1.42A28.35,28.35,0,0,0,364.61,663.8Z" transform="translate(-299 -349.79)"/><path class="cls-11" d="M372.63,619.8c3.68,2.6,6.87,8.35,8.37,16,.28,1.42.49,2.84.63,4.25a44.42,44.42,0,0,1,.76,6.41l1.06-.76.42-.29a47.62,47.62,0,0,0-.87-8.06c-.25-1.27-.54-2.48-.88-3.64C380.07,626.54,376.51,621.5,372.63,619.8Z" transform="translate(-299 -349.79)"/><path class="cls-12" d="M359.78,651.79c-2.37-12.07.59-24.5,6.62-27.77s12.84,3.87,15.22,15.94V640c-.14-1.41-.35-2.83-.63-4.25-1.5-7.62-4.69-13.37-8.37-16a6.85,6.85,0,0,0-7.56-.72c-6.31,3.42-9.41,16.43-6.93,29.07a35.77,35.77,0,0,0,3.52,10.16A37.7,37.7,0,0,1,359.78,651.79Z" transform="translate(-299 -349.79)"/><path class="cls-10" d="M382.39,646.43c-4.7,3.49-7.95,7.52-9.46,11.33A22.71,22.71,0,0,1,376.5,653a30.58,30.58,0,0,1,7.36-7c9.92-6.86,22.38-8.48,27.85-3.62a7.81,7.81,0,0,1,2.39,7.52c.08,4.33-2.85,9.54-8.19,14,9.91-7.35,13.36-17.12,7.65-22.2s-19-3.55-29.69,3.63l-.42.29Z" transform="translate(-299 -349.79)"/><path class="cls-11" d="M405.91,664c5.34-4.5,8.27-9.71,8.19-14-.78,4.46-4.47,9.56-10.45,13.7a37.9,37.9,0,0,1-3.42,2.11,36,36,0,0,1-9.65,4.73c.59.27,1.19.56,1.79.87a39.57,39.57,0,0,0,10.75-5.24C404.11,665.4,405,664.68,405.91,664Z" transform="translate(-299 -349.79)"/><path class="cls-11" d="M373.18,668.65l.09.11.09.11h0Z" transform="translate(-299 -349.79)"/><path class="cls-12" d="M411.71,642.39c-5.47-4.86-17.93-3.24-27.85,3.62a30.58,30.58,0,0,0-7.36,7,32.77,32.77,0,0,1,4.88-4.12c9.47-6.55,21.38-8.1,26.59-3.45s1.78,13.72-7.69,20.27l0,0a37.9,37.9,0,0,0,3.42-2.11c6-4.14,9.67-9.24,10.45-13.7A7.81,7.81,0,0,0,411.71,642.39Z" transform="translate(-299 -349.79)"/><path class="cls-13" d="M408,645.42c-5.21-4.65-17.12-3.1-26.59,3.45A32.77,32.77,0,0,0,376.5,653a22.71,22.71,0,0,0-3.57,4.77c1.51-3.81,4.76-7.84,9.46-11.33a44.42,44.42,0,0,0-.76-6.41V640c-2.38-12.07-9.19-19.2-15.22-15.94s-9,15.7-6.62,27.77a37.7,37.7,0,0,0,1.88,6.52,25,25,0,0,0,2.95,5.49,28.35,28.35,0,0,1-5.93-11.32,37.67,37.67,0,0,0-9.95-.75h-.06c-11.28.69-18.26,6.47-15.58,12.91s14,11.1,25.29,10.41a31.09,31.09,0,0,0,6.13-1,20.48,20.48,0,0,0,5.24-2.16c-3.2,2.58-8.31,4.36-14.6,4.75l-.44,0a37.46,37.46,0,0,0-5.94,7.16l0,0c-6.41,10.06-6.31,20.35.24,23s17-3.38,23.47-13.44a35.34,35.34,0,0,0,2.16-3.9c-3.91-5-6.05-10.32-5.38-14.57a8.61,8.61,0,0,1,.41-1.59c-.06.23-.11.47-.15.71-1.12,7.09,6.22,17.46,16.41,23.19l.05,0c10.21,5.72,19.4,4.61,20.52-2.48s-6.24-17.49-16.45-23.22a32.6,32.6,0,0,0-5.88-2.6,21,21,0,0,0-5.73-1c3.41-.37,7.64.44,12.18,2.48a36,36,0,0,0,9.65-4.73l0,0C409.75,659.14,413.19,650.06,408,645.42Zm-34.61,23.45-.27.14.18-.25-.09-.11.21.21Z" transform="translate(-299 -349.79)"/><path class="cls-10" d="M378.4,668a21,21,0,0,1,5.73,1,30.55,30.55,0,0,1,9.49,3.55c10.69,6,18.41,16.88,17.23,24.31a7,7,0,0,1-4.92,5.83c-3.5,2.14-9.27,1.89-15.69-1,11.09,5.77,20.85,4.33,22.08-3.44,1.27-8-7.07-19.8-18.63-26.28-.44-.25-.88-.49-1.32-.71-.6-.31-1.2-.6-1.79-.87C386,668.41,381.81,667.6,378.4,668Z" transform="translate(-299 -349.79)"/><path class="cls-11" d="M405.93,702.71c-4.05,1.4-10.11.39-16.56-3.23-1.2-.67-2.36-1.41-3.48-2.19-10.19-5.73-17.53-16.1-16.41-23.19,0-.24.09-.48.15-.71a8.61,8.61,0,0,0-.41,1.59c-.67,4.25,1.47,9.59,5.38,14.57l.2.25.45.55a43.06,43.06,0,0,0,11.82,9.81c1.07.6,2.13,1.13,3.17,1.59C396.66,704.6,402.43,704.85,405.93,702.71Z" transform="translate(-299 -349.79)"/><path class="cls-12" d="M390,671.62c10.21,5.73,17.58,16.12,16.45,23.22s-10.31,8.2-20.52,2.48l-.05,0c1.12.78,2.28,1.52,3.48,2.19,6.45,3.62,12.51,4.63,16.56,3.23a7,7,0,0,0,4.92-5.83c1.18-7.43-6.54-18.31-17.23-24.31a30.55,30.55,0,0,0-9.49-3.55A32.6,32.6,0,0,1,390,671.62Z" transform="translate(-299 -349.79)"/></g><g id="flowers"><path class="cls-9" d="M427.38,731.91l.35-.18-.12-.15Z" transform="translate(-299 -349.79)"/><path class="cls-10" d="M425.3,769.07c-8.68,14-23.06,22.42-32.12,18.9-3.6-1.4-5.81-4.47-6.64-8.54-2.24-5.58-1.25-13.84,3-22.41-8.44,14.6-7.81,29,1.66,32.72,9.8,3.81,25.35-5.34,34.74-20.44a51.2,51.2,0,0,0,4.59-9.33l-.61-.72A46.26,46.26,0,0,1,425.3,769.07Z" transform="translate(-299 -349.79)"/><path class="cls-11" d="M386.54,779.43c-1.26-6.19.7-14.69,5.94-23.12a53.25,53.25,0,0,1,3.12-4.48,49.21,49.21,0,0,1,7.71-9.51c-1,.06-2,.09-3,.1a53.87,53.87,0,0,0-8.43,10.41q-1.31,2.1-2.34,4.19C385.29,765.59,384.3,773.85,386.54,779.43Z" transform="translate(-299 -349.79)"/><path class="cls-12" d="M396.22,782.13c-8.65-3.36-9-16.9-.66-30.23l0-.07a53.25,53.25,0,0,0-3.12,4.48c-5.24,8.43-7.2,16.93-5.94,23.12.83,4.07,3,7.14,6.64,8.54,9.06,3.52,23.44-4.94,32.12-18.9a46.26,46.26,0,0,0,4.65-9.82l-.26-.33a45.85,45.85,0,0,1-2.79,5.16C418.61,777.42,404.88,785.5,396.22,782.13Z" transform="translate(-299 -349.79)"/><path class="cls-10" d="M403.89,742.28c8.27-.61,15-3,19.14-6.48a26.54,26.54,0,0,1-6.86,2.93,38.3,38.3,0,0,1-12.58,2.91c-15.54,1.13-31.21-5.1-35-13.93a9.28,9.28,0,0,1,1.32-9.77c2.29-4.79,8.64-8.61,17.45-10.1-15.8,1.67-25.28,10.14-21.32,19.37,3.82,8.87,18.74,15.33,34.31,15.21,1,0,2,0,3-.1Z" transform="translate(-299 -349.79)"/><path class="cls-11" d="M369.9,717.94c3.38-4.38,10.56-7.59,19.94-8.28a50.44,50.44,0,0,1,5.21-.1,49.51,49.51,0,0,1,13.11.83c-.19-.61-.36-1.24-.54-1.87a53.49,53.49,0,0,0-15.78-1.21c-1.56.11-3,.29-4.49.53C378.54,709.33,372.19,713.15,369.9,717.94Z" transform="translate(-299 -349.79)"/><path class="cls-12" d="M408.11,740.1c-14.84,1.09-29.81-4.87-33.43-13.31s5.46-16.15,20.3-17.23h.07a50.44,50.44,0,0,0-5.21.1c-9.38.69-16.56,3.9-19.94,8.28a9.28,9.28,0,0,0-1.32,9.77c3.8,8.83,19.47,15.06,35,13.93a38.3,38.3,0,0,0,12.58-2.91A40,40,0,0,1,408.11,740.1Z" transform="translate(-299 -349.79)"/><path class="cls-10" d="M416.14,725.19a32.81,32.81,0,0,1-4-7.18,46.65,46.65,0,0,1-4.79-13.32c-3.47-16.59.42-33.76,8.67-38.36,3.27-1.82,6.74-1.39,9.95.83,5.14,2.17,9.9,8.75,12.71,18.12-4-16.85-13.91-26.51-22.54-21.71-8.93,5-13.13,23.54-9.38,41.49.24,1.18.52,2.34.82,3.46.18.63.35,1.26.54,1.87C410.11,716.73,412.92,721.82,416.14,725.19Z" transform="translate(-299 -349.79)"/><path class="cls-11" d="M426,667.16c4.89,3.37,9.18,10.88,11.27,20.89.39,1.86.68,3.73.89,5.59a58.38,58.38,0,0,1,1.1,8.41c.45-.34.91-.68,1.39-1l.55-.39a62.7,62.7,0,0,0-1.28-10.6c-.34-1.66-.75-3.25-1.21-4.77C435.91,675.91,431.15,669.33,426,667.16Z" transform="translate(-299 -349.79)"/><path class="cls-12" d="M409.6,709.45c-3.31-15.84.4-32.25,8.29-36.64s17,4.9,20.26,20.75l0,.08c-.21-1.86-.5-3.73-.89-5.59-2.09-10-6.38-17.52-11.27-20.89-3.21-2.22-6.68-2.65-9.95-.83-8.25,4.6-12.14,21.77-8.67,38.36A46.65,46.65,0,0,0,412.18,718,48.71,48.71,0,0,1,409.6,709.45Z" transform="translate(-299 -349.79)"/><path class="cls-10" d="M439.27,702.05c-6.14,4.67-10.35,10-12.27,15.07a29.62,29.62,0,0,1,4.62-6.34,40.76,40.76,0,0,1,9.58-9.3c12.94-9.18,29.32-11.51,36.59-5.2a10.27,10.27,0,0,1,3.26,9.86c.18,5.7-3.6,12.61-10.56,18.61,12.93-9.82,17.33-22.73,9.73-29.33-7.75-6.74-25.11-4.38-39,5.23l-.55.39C440.18,701.37,439.72,701.71,439.27,702.05Z" transform="translate(-299 -349.79)"/><path class="cls-11" d="M470.49,724.75c7-6,10.74-12.91,10.56-18.61-1,5.89-5.73,12.66-13.53,18.2a51.56,51.56,0,0,1-4.47,2.83,47.79,47.79,0,0,1-12.63,6.37c.78.35,1.57.72,2.37,1.12a52,52,0,0,0,14.06-7.06C468.14,726.68,469.36,725.73,470.49,724.75Z" transform="translate(-299 -349.79)"/><path class="cls-11" d="M427.5,731.44a1.34,1.34,0,0,0,.11.14l.12.15,0,0Z" transform="translate(-299 -349.79)"/><path class="cls-12" d="M477.79,696.28c-7.27-6.31-23.65-4-36.59,5.2a40.76,40.76,0,0,0-9.58,9.3,42,42,0,0,1,6.36-5.49c12.36-8.77,28-11,34.94-5s2.55,18-9.81,26.79l-.06,0a51.56,51.56,0,0,0,4.47-2.83c7.8-5.54,12.57-12.31,13.53-18.2A10.27,10.27,0,0,0,477.79,696.28Z" transform="translate(-299 -349.79)"/><path class="cls-13" d="M472.92,700.33c-6.94-6-22.58-3.81-34.94,5a42,42,0,0,0-6.36,5.49,29.62,29.62,0,0,0-4.62,6.34c1.92-5,6.13-10.4,12.27-15.07a58.38,58.38,0,0,0-1.1-8.41l0-.08c-3.3-15.85-12.38-25.14-20.26-20.75s-11.6,20.8-8.29,36.64a48.71,48.71,0,0,0,2.58,8.56,32.81,32.81,0,0,0,4,7.18c-3.22-3.37-6-8.46-8-14.8a49.51,49.51,0,0,0-13.11-.83H395c-14.84,1.08-23.93,8.8-20.3,17.23s18.59,14.4,33.43,13.31a40,40,0,0,0,8.06-1.37A26.54,26.54,0,0,0,423,735.8c-4.17,3.45-10.87,5.87-19.14,6.48l-.58,0a49.21,49.21,0,0,0-7.71,9.51l0,.07c-8.29,13.33-8,26.87.66,30.23s22.39-4.71,30.68-18a45.85,45.85,0,0,0,2.79-5.16c-5.23-6.49-8.13-13.49-7.31-19.09a11,11,0,0,1,.51-2.09q-.11.45-.18.93c-1.36,9.34,8.46,22.88,22,30.26l.07,0c13.53,7.38,25.6,5.77,27-3.58s-8.49-22.93-22-30.3a42.55,42.55,0,0,0-7.76-3.33,27.59,27.59,0,0,0-7.56-1.3c4.48-.53,10.06.46,16.06,3.08a47.79,47.79,0,0,0,12.63-6.37l.06,0C475.47,718.35,479.86,706.36,472.92,700.33Zm-45.19,31.4-.35.18.23-.33a1.34,1.34,0,0,1-.11-.14l.27.27Z" transform="translate(-299 -349.79)"/><path class="cls-10" d="M434.36,730.46a27.59,27.59,0,0,1,7.56,1.3,39.77,39.77,0,0,1,12.53,4.53C468.62,744,478.94,758.21,477.5,768a9.28,9.28,0,0,1-6.38,7.74c-4.58,2.88-12.17,2.63-20.66-1,14.68,7.42,27.5,5.38,29-4.86,1.55-10.59-9.61-26-24.93-34.31-.58-.31-1.16-.62-1.74-.9-.8-.4-1.59-.77-2.37-1.12C444.42,730.92,438.84,729.93,434.36,730.46Z" transform="translate(-299 -349.79)"/><path class="cls-11" d="M471.12,775.75c-5.31,1.91-13.3.67-21.85-4a52.65,52.65,0,0,1-4.61-2.83c-13.49-7.38-23.31-20.92-22-30.26q.07-.48.18-.93a11,11,0,0,0-.51,2.09c-.82,5.6,2.08,12.6,7.31,19.09l.26.33.61.72a56.53,56.53,0,0,0,15.7,12.72q2.13,1.15,4.2,2C459,778.38,466.54,778.63,471.12,775.75Z" transform="translate(-299 -349.79)"/><path class="cls-12" d="M449.68,735.09c13.53,7.37,23.38,20.94,22,30.3s-13.44,11-27,3.58l-.07,0a52.65,52.65,0,0,0,4.61,2.83c8.55,4.66,16.54,5.9,21.85,4A9.28,9.28,0,0,0,477.5,768c1.44-9.8-8.88-24-23.05-31.72a39.77,39.77,0,0,0-12.53-4.53A42.55,42.55,0,0,1,449.68,735.09Z" transform="translate(-299 -349.79)"/><path class="cls-9" d="M486,791.89l.22-.12-.08-.09Z" transform="translate(-299 -349.79)"/><path class="cls-10" d="M484.74,814.92c-5.38,8.65-14.29,13.89-19.91,11.71a6.75,6.75,0,0,1-4.11-5.29c-1.39-3.46-.78-8.58,1.87-13.89-5.23,9-4.83,18,1,20.28,6.07,2.36,15.71-3.31,21.53-12.67a31.78,31.78,0,0,0,2.84-5.78l-.37-.45A28.16,28.16,0,0,1,484.74,814.92Z" transform="translate(-299 -349.79)"/><path class="cls-11" d="M460.72,821.34c-.78-3.84.44-9.11,3.68-14.33a32.64,32.64,0,0,1,1.93-2.78,30.47,30.47,0,0,1,4.79-5.89c-.62,0-1.23,0-1.85.06a33.53,33.53,0,0,0-5.22,6.45c-.54.87-1,1.74-1.46,2.6C459.94,812.76,459.33,817.88,460.72,821.34Z" transform="translate(-299 -349.79)"/><path class="cls-12" d="M466.72,823c-5.36-2.09-5.55-10.48-.41-18.74l0,0A32.64,32.64,0,0,0,464.4,807c-3.24,5.22-4.46,10.49-3.68,14.33a6.75,6.75,0,0,0,4.11,5.29c5.62,2.18,14.53-3.06,19.91-11.71a28.16,28.16,0,0,0,2.89-6.09l-.17-.21a30.48,30.48,0,0,1-1.72,3.21C480.6,820.09,472.09,825.1,466.72,823Z" transform="translate(-299 -349.79)"/><path class="cls-10" d="M471.47,798.31c5.13-.37,9.28-1.88,11.87-4a16.51,16.51,0,0,1-4.26,1.81,23.56,23.56,0,0,1-7.79,1.81c-9.63.7-19.35-3.17-21.7-8.64a5.74,5.74,0,0,1,.81-6c1.42-3,5.36-5.34,10.82-6.26-9.79,1-15.67,6.28-13.21,12,2.36,5.5,11.61,9.5,21.26,9.43.62,0,1.23,0,1.85-.06Z" transform="translate(-299 -349.79)"/><path class="cls-11" d="M450.4,783.23c2.1-2.72,6.55-4.71,12.36-5.13A31.85,31.85,0,0,1,466,778a30.81,30.81,0,0,1,8.12.51c-.12-.37-.23-.76-.33-1.15a33,33,0,0,0-9.79-.75c-1,.07-1.89.18-2.78.33C455.76,777.89,451.82,780.26,450.4,783.23Z" transform="translate(-299 -349.79)"/><path class="cls-12" d="M474.09,797c-9.2.67-18.48-3-20.72-8.25s3.38-10,12.58-10.68H466a31.85,31.85,0,0,0-3.24.07c-5.81.42-10.26,2.41-12.36,5.13a5.74,5.74,0,0,0-.81,6c2.35,5.47,12.07,9.34,21.7,8.64a23.56,23.56,0,0,0,7.79-1.81A24.59,24.59,0,0,1,474.09,797Z" transform="translate(-299 -349.79)"/><path class="cls-10" d="M479.06,787.72a20.69,20.69,0,0,1-2.45-4.45,29.06,29.06,0,0,1-3-8.25c-2.15-10.29.26-20.93,5.38-23.78a5.59,5.59,0,0,1,6.17.51c3.18,1.35,6.13,5.43,7.87,11.23-2.5-10.44-8.62-16.43-14-13.45-5.53,3.08-8.14,14.59-5.82,25.71.16.74.33,1.45.52,2.15.1.39.21.78.33,1.15A23.35,23.35,0,0,0,479.06,787.72Z" transform="translate(-299 -349.79)"/><path class="cls-11" d="M485.19,751.75c3,2.09,5.68,6.75,7,13,.24,1.15.42,2.31.55,3.46a36.42,36.42,0,0,1,.68,5.22l.86-.63.34-.24a38.23,38.23,0,0,0-.79-6.57c-.21-1-.46-2-.75-3C491.32,757.18,488.37,753.1,485.19,751.75Z" transform="translate(-299 -349.79)"/><path class="cls-12" d="M475,778c-2.05-9.82.25-20,5.14-22.71s10.51,3,12.56,12.85v0c-.13-1.15-.31-2.31-.55-3.46-1.3-6.2-4-10.86-7-13a5.59,5.59,0,0,0-6.17-.51c-5.12,2.85-7.53,13.49-5.38,23.78a29.06,29.06,0,0,0,3,8.25A31.17,31.17,0,0,1,475,778Z" transform="translate(-299 -349.79)"/><path class="cls-10" d="M493.4,773.38a22.44,22.44,0,0,0-7.6,9.34,18.26,18.26,0,0,1,2.86-3.93A25.2,25.2,0,0,1,494.6,773c8-5.69,18.17-7.13,22.68-3.22a6.38,6.38,0,0,1,2,6.11c.11,3.54-2.23,7.82-6.55,11.54,8-6.09,10.74-14.09,6-18.18s-15.56-2.71-24.18,3.24l-.34.24Z" transform="translate(-299 -349.79)"/><path class="cls-11" d="M512.75,787.45c4.32-3.72,6.66-8,6.55-11.54-.6,3.65-3.55,7.85-8.39,11.28a31.43,31.43,0,0,1-2.77,1.76,29.88,29.88,0,0,1-7.83,3.95q.74.32,1.47.69a32.3,32.3,0,0,0,8.72-4.38C511.3,788.64,512.05,788.05,512.75,787.45Z" transform="translate(-299 -349.79)"/><path class="cls-11" d="M486.1,791.59l.07.09.08.09h0Z" transform="translate(-299 -349.79)"/><path class="cls-12" d="M517.28,769.8c-4.51-3.91-14.66-2.47-22.68,3.22a25.2,25.2,0,0,0-5.94,5.77,26.86,26.86,0,0,1,3.94-3.41c7.66-5.43,17.36-6.81,21.66-3.07s1.58,11.17-6.08,16.61l0,0a31.43,31.43,0,0,0,2.77-1.76c4.84-3.43,7.79-7.63,8.39-11.28A6.38,6.38,0,0,0,517.28,769.8Z" transform="translate(-299 -349.79)"/><path class="cls-13" d="M514.26,772.31c-4.3-3.74-14-2.36-21.66,3.07a26.86,26.86,0,0,0-3.94,3.41,18.26,18.26,0,0,0-2.86,3.93,22.44,22.44,0,0,1,7.6-9.34,36.42,36.42,0,0,0-.68-5.22v0c-2-9.82-7.67-15.57-12.56-12.85S473,768.15,475,778a31.17,31.17,0,0,0,1.6,5.3,20.69,20.69,0,0,0,2.45,4.45,23.35,23.35,0,0,1-4.94-9.18A30.81,30.81,0,0,0,466,778H466c-9.2.67-14.83,5.46-12.58,10.68s11.52,8.92,20.72,8.25a24.59,24.59,0,0,0,5-.85,16.51,16.51,0,0,0,4.26-1.81c-2.59,2.13-6.74,3.64-11.87,4l-.35,0a30.47,30.47,0,0,0-4.79,5.89l0,0c-5.14,8.26-4.95,16.65.41,18.74s13.88-2.93,19-11.19a30.48,30.48,0,0,0,1.72-3.21c-3.24-4-5-8.35-4.53-11.83a7.16,7.16,0,0,1,.32-1.29c0,.18-.08.38-.11.58-.85,5.79,5.24,14.17,13.6,18.75l.05,0c8.38,4.57,15.86,3.57,16.71-2.23s-5.26-14.2-13.65-18.77a26,26,0,0,0-4.81-2.07,17,17,0,0,0-4.68-.8,19.86,19.86,0,0,1,9.95,1.91,29.88,29.88,0,0,0,7.83-3.95l0,0C515.84,783.48,518.56,776.05,514.26,772.31Zm-28,19.46-.22.12.14-.21-.07-.09.17.17Z" transform="translate(-299 -349.79)"/><path class="cls-10" d="M490.36,791a17,17,0,0,1,4.68.8,24.77,24.77,0,0,1,7.77,2.81c8.78,4.79,15.18,13.59,14.29,19.66a5.76,5.76,0,0,1-4,4.8c-2.84,1.78-7.54,1.63-12.8-.63,9.1,4.59,17,3.33,18-3,1-6.57-6-16.09-15.45-21.27-.36-.2-.72-.38-1.08-.56s-1-.48-1.47-.69A19.86,19.86,0,0,0,490.36,791Z" transform="translate(-299 -349.79)"/><path class="cls-11" d="M513.14,819.06c-3.29,1.18-8.24.41-13.54-2.47-1-.54-1.94-1.13-2.86-1.76-8.36-4.58-14.45-13-13.6-18.75,0-.2.07-.4.11-.58a7.16,7.16,0,0,0-.32,1.29c-.5,3.48,1.29,7.81,4.53,11.83l.17.21.37.45a35.14,35.14,0,0,0,9.73,7.88c.88.48,1.75.9,2.61,1.27C505.6,820.69,510.3,820.84,513.14,819.06Z" transform="translate(-299 -349.79)"/><path class="cls-12" d="M499.85,793.86c8.39,4.57,14.5,13,13.65,18.77s-8.33,6.8-16.71,2.23l-.05,0c.92.63,1.88,1.22,2.86,1.76,5.3,2.88,10.25,3.65,13.54,2.47a5.76,5.76,0,0,0,4-4.8c.89-6.07-5.51-14.87-14.29-19.66a24.77,24.77,0,0,0-7.77-2.81A26,26,0,0,1,499.85,793.86Z" transform="translate(-299 -349.79)"/><path class="cls-9" d="M727.81,778.59l-.12-.28-.12.08Z" transform="translate(-299 -349.79)"/><path class="cls-10" d="M755.81,782.54c10,7.46,15.5,18.89,12.26,25.53a8.28,8.28,0,0,1-6.89,4.47c-4.37,1.35-10.56.07-16.78-3.72,10.51,7.32,21.49,7.77,24.88.83,3.51-7.17-2.42-19.53-13.26-27.6a37.75,37.75,0,0,0-6.77-4.07l-.58.41A34.56,34.56,0,0,1,755.81,782.54Z" transform="translate(-299 -349.79)"/><path class="cls-11" d="M761.18,812.54c-4.77.56-11.08-1.47-17.13-6a39.32,39.32,0,0,1-3.19-2.65,37.48,37.48,0,0,1-6.71-6.45c0,.76-.06,1.51-.11,2.26a41.09,41.09,0,0,0,7.34,7c1,.75,2,1.43,3,2C750.62,812.61,756.81,813.89,761.18,812.54Z" transform="translate(-299 -349.79)"/><path class="cls-12" d="M763.84,805.39c-3.1,6.33-13.37,5.7-22.93-1.43l0,0a39.32,39.32,0,0,0,3.19,2.65c6.05,4.5,12.36,6.53,17.13,6a8.28,8.28,0,0,0,6.89-4.47c3.24-6.64-2.25-18.07-12.26-25.53a34.56,34.56,0,0,0-7.14-4.15l-.27.18a33.58,33.58,0,0,1,3.74,2.44C761.7,788.13,766.94,799.05,763.84,805.39Z" transform="translate(-299 -349.79)"/><path class="cls-10" d="M734.16,797c.07-6.3-1.34-11.52-3.68-14.9a20.85,20.85,0,0,1,1.78,5.38,29,29,0,0,1,1.39,9.71c-.13,11.84-5.86,23.31-12.78,25.62a7.05,7.05,0,0,1-7.31-1.62c-3.48-2-6-7.09-6.53-13.86.25,12.07,6.05,19.79,13.3,17.38,7-2.33,12.8-13.21,13.71-25,.05-.75.09-1.5.11-2.26C734.15,797.33,734.15,797.18,734.16,797Z" transform="translate(-299 -349.79)"/><path class="cls-11" d="M713.56,821.22c-3.1-2.84-5.08-8.49-5-15.63,0-1.33.11-2.65.26-4a37.8,37.8,0,0,1,1.46-9.88c-.47.11-1,.2-1.44.29a40.32,40.32,0,0,0-1.93,11.88c0,1.18,0,2.33.12,3.43C707.59,814.13,710.08,819.18,713.56,821.22Z" transform="translate(-299 -349.79)"/><path class="cls-12" d="M732.78,793.7c-.13,11.3-5.6,22.26-12.22,24.46s-11.87-5.16-11.75-16.47v-.05c-.15,1.3-.24,2.62-.26,4-.08,7.14,1.9,12.79,5,15.63a7.05,7.05,0,0,0,7.31,1.62c6.92-2.31,12.65-13.78,12.78-25.62a29,29,0,0,0-1.39-9.71A31.56,31.56,0,0,1,732.78,793.7Z" transform="translate(-299 -349.79)"/><path class="cls-10" d="M722,786.67a25.19,25.19,0,0,1-5.69,2.54A35.64,35.64,0,0,1,705.92,792c-12.78,1.56-25.54-2.48-28.49-9a6.86,6.86,0,0,1,1.26-7.49c2-3.74,7.26-6.93,14.53-8.46-13,2-21,8.84-17.87,15.68,3.19,7.08,17,11.45,30.81,9.76.91-.11,1.81-.25,2.68-.41.48-.09,1-.18,1.44-.29A28.49,28.49,0,0,0,722,786.67Z" transform="translate(-299 -349.79)"/><path class="cls-11" d="M678.69,775.48c2.87-3.48,8.83-6.25,16.54-7.19,1.43-.17,2.87-.28,4.29-.32a43.7,43.7,0,0,1,6.44-.29c-.23-.37-.46-.74-.68-1.12-.09-.14-.17-.29-.26-.44a47,47,0,0,0-8.1.29c-1.28.16-2.52.36-3.7.61C686,768.55,680.67,771.74,678.69,775.48Z" transform="translate(-299 -349.79)"/><path class="cls-12" d="M709.67,790.61c-12.21,1.5-24.4-2.36-27.22-8.61s4.8-12.53,17-14h.07c-1.42,0-2.86.15-4.29.32-7.71.94-13.67,3.71-16.54,7.19a6.86,6.86,0,0,0-1.26,7.49c3,6.54,15.71,10.58,28.49,9a35.64,35.64,0,0,0,10.39-2.78A37,37,0,0,1,709.67,790.61Z" transform="translate(-299 -349.79)"/><path class="cls-10" d="M706,767.68c3.14,4.94,6.92,8.47,10.62,10.25a23.08,23.08,0,0,1-4.5-3.9,31,31,0,0,1-6.43-7.85c-6.13-10.39-6.84-22.94-1.6-28a7.81,7.81,0,0,1,7.67-1.84c4.33.24,9.32,3.54,13.42,9.19-6.61-10.42-16.1-14.57-21.59-9.24S698.64,755,705,766.12c.09.15.17.3.26.44C705.5,766.94,705.73,767.31,706,767.68Z" transform="translate(-299 -349.79)"/><path class="cls-11" d="M725.14,745.49c-4.1-5.65-9.09-9-13.42-9.19,4.4,1.11,9.22,5.15,12.92,11.41.68,1.17,1.3,2.36,1.85,3.57a36,36,0,0,1,4,10c.31-.57.65-1.15,1-1.72a39.23,39.23,0,0,0-4.45-11.1Q726.15,746.87,725.14,745.49Z" transform="translate(-299 -349.79)"/><path class="cls-11" d="M727.46,778.47l.11-.08.12-.08v0Z" transform="translate(-299 -349.79)"/><path class="cls-12" d="M704.05,738.14c-5.24,5.1-4.53,17.65,1.6,28a31,31,0,0,0,6.43,7.85,32.49,32.49,0,0,1-3.76-5.17c-5.85-9.92-6.53-21.9-1.52-26.77s13.81-.78,19.66,9.14l0,0c-.55-1.21-1.17-2.4-1.85-3.57-3.7-6.26-8.52-10.3-12.92-11.41A7.81,7.81,0,0,0,704.05,738.14Z" transform="translate(-299 -349.79)"/><path class="cls-13" d="M706.8,742.09c-5,4.87-4.33,16.85,1.52,26.77a32.49,32.49,0,0,0,3.76,5.17,23.08,23.08,0,0,0,4.5,3.9c-3.7-1.78-7.48-5.31-10.62-10.25a43.7,43.7,0,0,0-6.44.29h-.07c-12.2,1.49-19.82,7.77-17,14s15,10.11,27.22,8.61a37,37,0,0,0,6.64-1.4,25.19,25.19,0,0,0,5.69-2.54,28.49,28.49,0,0,1-11.72,5.09,37.8,37.8,0,0,0-1.46,9.88v.05c-.12,11.31,5.14,18.68,11.75,16.47S732.65,805,732.78,793.7a31.56,31.56,0,0,0-.52-6.19,20.85,20.85,0,0,0-1.78-5.38c2.34,3.38,3.75,8.6,3.68,14.9,0,.15,0,.3,0,.44a37.48,37.48,0,0,0,6.71,6.45l0,0c9.56,7.13,19.83,7.76,22.93,1.43s-2.14-17.26-11.7-24.38a33.58,33.58,0,0,0-3.74-2.44c-5.25,3.54-10.73,5.28-14.92,4.31a9.1,9.1,0,0,1-1.55-.52c.23.07.46.14.7.19,7,1.63,17.86-4.94,24.31-14.68l0,0c6.45-9.77,6-19-1-20.65s-17.89,5-24.34,14.74a31.64,31.64,0,0,0-3,5.66,21.14,21.14,0,0,0-1.47,5.64c-.11-3.43,1-7.59,3.36-12a36,36,0,0,0-4-10l0,0C720.61,741.31,711.81,737.22,706.8,742.09Zm20.89,36.22.12.28-.24-.2-.11.08.22-.19Z" transform="translate(-299 -349.79)"/><path class="cls-10" d="M727.15,773.21a21.14,21.14,0,0,1,1.47-5.64,30.33,30.33,0,0,1,4.23-9.2c6.75-10.23,18.17-17.14,25.49-15.43a7.06,7.06,0,0,1,5.46,5.33c1.88,3.65,1.21,9.38-2.1,15.58,6.56-10.65,5.83-20.48-1.82-22.27-7.93-1.85-20.27,5.62-27.57,16.68-.28.42-.55.85-.8,1.27-.35.57-.69,1.15-1,1.72C728.15,765.62,727,769.78,727.15,773.21Z" transform="translate(-299 -349.79)"/><path class="cls-11" d="M763.8,748.27c1.1,4.15-.35,10.12-4.42,16.29-.76,1.15-1.58,2.25-2.44,3.31-6.45,9.74-17.33,16.31-24.31,14.68-.24,0-.47-.12-.7-.19a9.1,9.1,0,0,0,1.55.52c4.19,1,9.67-.77,14.92-4.31l.27-.18.58-.41a43.14,43.14,0,0,0,10.64-11.08c.67-1,1.28-2,1.81-3C765,757.65,765.68,751.92,763.8,748.27Z" transform="translate(-299 -349.79)"/><path class="cls-12" d="M731.64,761.91c6.45-9.78,17.35-16.37,24.34-14.74s7.44,10.88,1,20.65l0,0c.86-1.06,1.68-2.16,2.44-3.31,4.07-6.17,5.52-12.14,4.42-16.29a7.06,7.06,0,0,0-5.46-5.33c-7.32-1.71-18.74,5.2-25.49,15.43a30.33,30.33,0,0,0-4.23,9.2A31.64,31.64,0,0,1,731.64,761.91Z" transform="translate(-299 -349.79)"/><path class="cls-9" d="M794.47,729l-.15-.37-.16.11Z" transform="translate(-299 -349.79)"/><path class="cls-10" d="M831.38,733.76c13.3,9.67,20.7,24.62,16.53,33.4-1.65,3.49-4.88,5.47-9,6-5.73,1.84-13.89.25-22.13-4.64,14,9.48,28.4,9.89,32.75.71,4.51-9.5-3.49-25.67-17.87-36.12a50.81,50.81,0,0,0-9-5.25l-.76.54A46.17,46.17,0,0,1,831.38,733.76Z" transform="translate(-299 -349.79)"/><path class="cls-11" d="M838.91,773.16c-6.26.81-14.6-1.76-22.62-7.59a53.56,53.56,0,0,1-4.25-3.44,49.73,49.73,0,0,1-8.93-8.38c0,1-.05,2-.11,3a53.21,53.21,0,0,0,9.77,9.16q2,1.46,4,2.64C825,773.41,833.18,775,838.91,773.16Z" transform="translate(-299 -349.79)"/><path class="cls-12" d="M842.31,763.7c-4,8.39-17.5,7.71-30.2-1.52l-.07,0a53.56,53.56,0,0,0,4.25,3.44c8,5.83,16.36,8.4,22.62,7.59,4.12-.53,7.35-2.51,9-6,4.17-8.78-3.23-23.73-16.53-33.4a46.17,46.17,0,0,0-9.45-5.36l-.35.25a45.37,45.37,0,0,1,4.95,3.15C839.23,741,846.29,755.31,842.31,763.7Z" transform="translate(-299 -349.79)"/><path class="cls-10" d="M803.11,753.17c0-8.29-1.93-15.14-5.07-19.56a27.08,27.08,0,0,1,2.43,7.06,38.5,38.5,0,0,1,2,12.76c0,15.57-7.35,30.75-16.44,33.9a9.25,9.25,0,0,1-9.64-2c-4.61-2.64-8-9.25-8.81-18.15.52,15.89,8.28,26,17.77,22.67,9.13-3.17,16.65-17.58,17.66-33.12.06-1,.1-2,.11-3Z" transform="translate(-299 -349.79)"/><path class="cls-11" d="M776.38,785.32c-4.12-3.7-6.81-11.1-6.81-20.5a50,50,0,0,1,.27-5.2,49.36,49.36,0,0,1,1.77-13c-.62.14-1.25.28-1.89.4a53.69,53.69,0,0,0-2.36,15.66c0,1.56.08,3.07.21,4.51C768.42,776.07,771.77,782.68,776.38,785.32Z" transform="translate(-299 -349.79)"/><path class="cls-12" d="M801.25,748.8c0,14.88-7,29.38-15.7,32.39s-15.71-6.62-15.71-21.5v-.07a50,50,0,0,0-.27,5.2c0,9.4,2.69,16.8,6.81,20.5a9.25,9.25,0,0,0,9.64,2c9.09-3.15,16.44-18.33,16.44-33.9a38.5,38.5,0,0,0-2-12.76A41.09,41.09,0,0,1,801.25,748.8Z" transform="translate(-299 -349.79)"/><path class="cls-10" d="M787,739.72a33,33,0,0,1-7.45,3.43A46.64,46.64,0,0,1,765.88,747c-16.8,2.26-33.64-2.86-37.63-11.43-1.58-3.39-.9-6.82,1.54-9.86,2.54-5,9.45-9.24,19-11.37-17.09,2.81-27.44,12-23.28,20.92,4.31,9.26,22.53,14.8,40.7,12.36,1.2-.16,2.38-.36,3.52-.58.64-.12,1.27-.26,1.89-.4C778.08,745.12,783.36,742.68,787,739.72Z" transform="translate(-299 -349.79)"/><path class="cls-11" d="M729.79,725.67c3.72-4.63,11.52-8.36,21.66-9.72q2.82-.39,5.63-.49a58,58,0,0,1,8.48-.49c-.31-.47-.62-1-.92-1.45l-.34-.58a62.08,62.08,0,0,0-10.67.5c-1.68.23-3.3.52-4.85.86C739.24,716.43,732.33,720.71,729.79,725.67Z" transform="translate(-299 -349.79)"/><path class="cls-12" d="M770.79,745.1c-16,2.15-32.14-2.74-35.94-10.92S741,717.62,757,715.47h.08q-2.8.1-5.63.49c-10.14,1.36-17.94,5.09-21.66,9.72-2.44,3-3.12,6.47-1.54,9.86,4,8.57,20.83,13.69,37.63,11.43a46.64,46.64,0,0,0,13.63-3.81A49.76,49.76,0,0,1,770.79,745.1Z" transform="translate(-299 -349.79)"/><path class="cls-10" d="M765.56,715c4.2,6.46,9.24,11,14.13,13.33a29.44,29.44,0,0,1-6-5.07A40.48,40.48,0,0,1,765.12,713c-8.22-13.57-9.35-30.07-2.53-36.86a10.27,10.27,0,0,1,10.07-2.54c5.7.24,12.31,4.5,17.79,11.88-8.86-13.61-21.41-18.93-28.55-11.83s-6.18,24.72,2.4,39.29l.34.58C764.94,714,765.25,714.5,765.56,715Z" transform="translate(-299 -349.79)"/><path class="cls-11" d="M790.45,685.48c-5.48-7.38-12.09-11.64-17.79-11.88,5.8,1.38,12.21,6.62,17.17,14.81a51.07,51.07,0,0,1,2.49,4.66,47.73,47.73,0,0,1,5.45,13.07c.4-.76.83-1.52,1.28-2.29a51.66,51.66,0,0,0-6-14.54C792.21,688,791.34,686.68,790.45,685.48Z" transform="translate(-299 -349.79)"/><path class="cls-11" d="M794,728.84l.15-.1.16-.11,0,0A3.47,3.47,0,0,1,794,728.84Z" transform="translate(-299 -349.79)"/><path class="cls-12" d="M762.59,676.14c-6.82,6.79-5.69,23.29,2.53,36.86a40.48,40.48,0,0,0,8.59,10.23,41.6,41.6,0,0,1-5-6.74c-7.86-13-8.94-28.72-2.42-35.21s18.16-1.23,26,11.73l0,.06a51.07,51.07,0,0,0-2.49-4.66c-5-8.19-11.37-13.43-17.17-14.81A10.27,10.27,0,0,0,762.59,676.14Z" transform="translate(-299 -349.79)"/><path class="cls-13" d="M766.27,681.28c-6.52,6.49-5.44,22.25,2.42,35.21a41.6,41.6,0,0,0,5,6.74,29.44,29.44,0,0,0,6,5.07c-4.89-2.28-9.93-6.87-14.13-13.33a58,58,0,0,0-8.48.49H757c-16,2.15-26,10.53-22.15,18.71s19.9,13.07,35.94,10.92a49.76,49.76,0,0,0,8.72-2,33,33,0,0,0,7.45-3.43c-3.6,3-8.88,5.4-15.35,6.88a49.36,49.36,0,0,0-1.77,13v.07c0,14.88,7,24.5,15.71,21.5s15.71-17.51,15.7-32.39a41.09,41.09,0,0,0-.78-8.13,27.08,27.08,0,0,0-2.43-7.06c3.14,4.42,5.07,11.27,5.07,19.56v.58a49.73,49.73,0,0,0,8.93,8.38l.07,0c12.7,9.23,26.22,9.91,30.2,1.52s-3.08-22.67-15.78-31.9a45.37,45.37,0,0,0-4.95-3.15c-6.86,4.74-14,7.12-19.57,5.9a10.47,10.47,0,0,1-2-.66c.3.09.6.18.92.25,9.22,2,23.43-6.78,31.77-19.7l0-.07c8.34-13,7.61-25.11-1.62-27.15S807.59,694,799.26,707a42,42,0,0,0-3.88,7.5,27.58,27.58,0,0,0-1.85,7.45c-.21-4.51,1.19-10,4.24-15.79a47.73,47.73,0,0,0-5.45-13.07l0-.06C784.43,680.05,772.79,674.8,766.27,681.28Zm28.05,47.35.15.37-.31-.26-.15.1a3.47,3.47,0,0,0,.29-.25Z" transform="translate(-299 -349.79)"/><path class="cls-10" d="M793.53,721.93a27.58,27.58,0,0,1,1.85-7.45,39.82,39.82,0,0,1,5.42-12.17c8.73-13.57,23.64-22.83,33.31-20.7a9.31,9.31,0,0,1,7.26,6.94c2.53,4.77,1.74,12.32-2.51,20.52,8.45-14.11,7.35-27-2.75-29.27-10.46-2.31-26.59,7.7-36,22.38-.36.56-.7,1.11-1,1.67-.45.77-.88,1.53-1.28,2.29C794.72,711.93,793.32,717.42,793.53,721.93Z" transform="translate(-299 -349.79)"/><path class="cls-11" d="M841.37,688.55c1.51,5.43-.3,13.31-5.57,21.49a53.17,53.17,0,0,1-3.15,4.4c-8.34,12.92-22.55,21.73-31.77,19.7-.32-.07-.62-.16-.92-.25a10.47,10.47,0,0,0,2,.66c5.53,1.22,12.71-1.16,19.57-5.9l.35-.25.76-.54a56.5,56.5,0,0,0,13.82-14.75q1.31-2,2.35-4C843.11,700.87,843.9,693.32,841.37,688.55Z" transform="translate(-299 -349.79)"/><path class="cls-12" d="M799.26,707c8.33-13,22.58-21.81,31.81-19.76s10,14.19,1.62,27.15l0,.07a53.17,53.17,0,0,0,3.15-4.4c5.27-8.18,7.08-16.06,5.57-21.49a9.31,9.31,0,0,0-7.26-6.94c-9.67-2.13-24.58,7.13-33.31,20.7a39.82,39.82,0,0,0-5.42,12.17A42,42,0,0,1,799.26,707Z" transform="translate(-299 -349.79)"/><path class="cls-9" d="M858.54,674.84c0-.08-.07-.15-.1-.23l-.1.07Z" transform="translate(-299 -349.79)"/><path class="cls-10" d="M881.42,677.79c8.24,6,12.82,15.26,10.24,20.71a6.77,6.77,0,0,1-5.58,3.71c-3.55,1.14-8.61.16-13.71-2.87,8.64,5.87,17.59,6.13,20.29.44,2.8-5.89-2.16-15.91-11.07-22.39a31.34,31.34,0,0,0-5.57-3.26c-.15.12-.31.23-.47.34A28.47,28.47,0,0,1,881.42,677.79Z" transform="translate(-299 -349.79)"/><path class="cls-11" d="M886.08,702.21c-3.88.5-9.05-1.09-14-4.7-.93-.68-1.8-1.39-2.63-2.13a31,31,0,0,1-5.54-5.2c0,.62,0,1.23-.07,1.84a33.28,33.28,0,0,0,6.06,5.68c.83.6,1.66,1.15,2.49,1.64C877.47,702.37,882.53,703.35,886.08,702.21Z" transform="translate(-299 -349.79)"/><path class="cls-12" d="M888.19,696.35c-2.47,5.2-10.85,4.78-18.72-.94l0,0c.83.74,1.7,1.45,2.63,2.13,5,3.61,10.14,5.2,14,4.7a6.77,6.77,0,0,0,5.58-3.71c2.58-5.45-2-14.72-10.24-20.71a28.47,28.47,0,0,0-5.87-3.32l-.21.15a27.63,27.63,0,0,1,3.07,2C886.28,682.3,890.66,691.15,888.19,696.35Z" transform="translate(-299 -349.79)"/><path class="cls-10" d="M863.89,689.82c0-5.14-1.2-9.38-3.14-12.12a16.61,16.61,0,0,1,1.5,4.37,23.66,23.66,0,0,1,1.24,7.91c0,9.66-4.56,19.06-10.19,21a5.74,5.74,0,0,1-6-1.24c-2.86-1.64-4.93-5.73-5.45-11.25.31,9.85,5.12,16.09,11,14,5.66-2,10.32-10.89,10.94-20.53,0-.61.06-1.22.07-1.84Z" transform="translate(-299 -349.79)"/><path class="cls-11" d="M847.32,709.75c-2.55-2.29-4.22-6.88-4.22-12.7a31.32,31.32,0,0,1,.17-3.23,30.59,30.59,0,0,1,1.1-8.07l-1.18.25a33.62,33.62,0,0,0-1.46,9.7c0,1,0,1.9.14,2.8C842.39,704,844.46,708.11,847.32,709.75Z" transform="translate(-299 -349.79)"/><path class="cls-12" d="M862.74,687.11c0,9.23-4.35,18.21-9.73,20.08s-9.74-4.11-9.74-13.33v0a31.32,31.32,0,0,0-.17,3.23c0,5.82,1.67,10.41,4.22,12.7a5.74,5.74,0,0,0,6,1.24c5.63-2,10.19-11.35,10.19-21a23.66,23.66,0,0,0-1.24-7.91A24.69,24.69,0,0,1,862.74,687.11Z" transform="translate(-299 -349.79)"/><path class="cls-10" d="M853.88,681.49a20.41,20.41,0,0,1-4.62,2.12,28.94,28.94,0,0,1-8.44,2.37c-10.41,1.39-20.86-1.78-23.33-7.09a5.56,5.56,0,0,1,1-6.11c1.57-3.08,5.86-5.73,11.77-7-10.6,1.74-17,7.42-14.43,13,2.67,5.74,14,9.17,25.22,7.66.75-.1,1.48-.22,2.18-.36l1.18-.25A23.34,23.34,0,0,0,853.88,681.49Z" transform="translate(-299 -349.79)"/><path class="cls-11" d="M818.45,672.78c2.3-2.87,7.14-5.19,13.42-6a34.48,34.48,0,0,1,3.49-.3,36,36,0,0,1,5.25-.3c-.19-.3-.38-.6-.56-.91l-.22-.35a37.74,37.74,0,0,0-6.6.31c-1.05.14-2.05.32-3,.53C824.31,667.05,820,669.7,818.45,672.78Z" transform="translate(-299 -349.79)"/><path class="cls-12" d="M843.86,684.82c-10,1.33-19.92-1.7-22.28-6.77s3.79-10.26,13.73-11.59h.05a34.48,34.48,0,0,0-3.49.3c-6.28.84-11.12,3.16-13.42,6a5.56,5.56,0,0,0-1,6.11c2.47,5.31,12.92,8.48,23.33,7.09a28.94,28.94,0,0,0,8.44-2.37A30.44,30.44,0,0,1,843.86,684.82Z" transform="translate(-299 -349.79)"/><path class="cls-10" d="M840.61,666.15a22.5,22.5,0,0,0,8.77,8.26,18.5,18.5,0,0,1-3.71-3.14,25.53,25.53,0,0,1-5.33-6.34c-5.09-8.42-5.79-18.65-1.56-22.85A6.35,6.35,0,0,1,845,640.5c3.53.15,7.63,2.79,11,7.37-5.5-8.44-13.28-11.74-17.7-7.34s-3.83,15.33,1.48,24.36l.22.35C840.23,665.55,840.42,665.85,840.61,666.15Z" transform="translate(-299 -349.79)"/><path class="cls-11" d="M856.05,647.87c-3.4-4.58-7.5-7.22-11-7.37,3.59.86,7.56,4.11,10.64,9.18a32.28,32.28,0,0,1,1.55,2.89,29.66,29.66,0,0,1,3.37,8.1c.25-.47.51-.94.8-1.42a32.1,32.1,0,0,0-3.74-9Q856.88,649,856.05,647.87Z" transform="translate(-299 -349.79)"/><path class="cls-11" d="M858.25,674.74l.09-.06.1-.07v0Z" transform="translate(-299 -349.79)"/><path class="cls-12" d="M838.78,642.08c-4.23,4.2-3.53,14.43,1.56,22.85a25.53,25.53,0,0,0,5.33,6.34,26.75,26.75,0,0,1-3.12-4.18c-4.86-8-5.53-17.81-1.49-21.83s11.25-.76,16.12,7.27l0,0a32.28,32.28,0,0,0-1.55-2.89c-3.08-5.07-7-8.32-10.64-9.18A6.35,6.35,0,0,0,838.78,642.08Z" transform="translate(-299 -349.79)"/><path class="cls-13" d="M841.06,645.26c-4,4-3.37,13.8,1.49,21.83a26.75,26.75,0,0,0,3.12,4.18,18.5,18.5,0,0,0,3.71,3.14,22.5,22.5,0,0,1-8.77-8.26,36,36,0,0,0-5.25.3h-.05c-9.94,1.33-16.09,6.52-13.73,11.59s12.33,8.1,22.28,6.77a30.44,30.44,0,0,0,5.4-1.21,20.41,20.41,0,0,0,4.62-2.12,23.34,23.34,0,0,1-9.51,4.26,30.59,30.59,0,0,0-1.1,8.07v0c0,9.22,4.36,15.19,9.74,13.33s9.73-10.85,9.73-20.08a24.69,24.69,0,0,0-.49-5,16.61,16.61,0,0,0-1.5-4.37c1.94,2.74,3.14,7,3.14,12.12v.36a31,31,0,0,0,5.54,5.2l0,0c7.87,5.72,16.25,6.14,18.72.94s-1.91-14.05-9.78-19.77a27.63,27.63,0,0,0-3.07-2c-4.25,2.94-8.71,4.42-12.13,3.66a6.75,6.75,0,0,1-1.27-.41,4.74,4.74,0,0,0,.57.15c5.71,1.27,14.52-4.2,19.69-12.21l0,0c5.16-8,4.71-15.56-1-16.83s-14.55,4.22-19.72,12.25a26.12,26.12,0,0,0-2.4,4.65,17,17,0,0,0-1.15,4.62,19.88,19.88,0,0,1,2.63-9.79,29.66,29.66,0,0,0-3.37-8.1l0,0C852.31,644.5,845.1,641.24,841.06,645.26Zm17.38,29.35c0,.08.07.15.1.23l-.2-.16-.09.06.18-.15Z" transform="translate(-299 -349.79)"/><path class="cls-10" d="M858,670.46a17,17,0,0,1,1.15-4.62,24.56,24.56,0,0,1,3.36-7.54c5.41-8.41,14.65-14.15,20.64-12.83a5.74,5.74,0,0,1,4.5,4.3c1.57,3,1.08,7.63-1.55,12.72,5.24-8.74,4.55-16.76-1.71-18.15-6.48-1.43-16.47,4.78-22.32,13.87-.23.35-.44.7-.64,1s-.55,1-.8,1.42A19.88,19.88,0,0,0,858,670.46Z" transform="translate(-299 -349.79)"/><path class="cls-11" d="M887.6,649.77c.94,3.36-.18,8.25-3.45,13.32a31.2,31.2,0,0,1-1.95,2.72c-5.17,8-14,13.48-19.69,12.21a4.74,4.74,0,0,1-.57-.15,6.75,6.75,0,0,0,1.27.41c3.42.76,7.88-.72,12.13-3.66l.21-.15c.16-.11.32-.22.47-.34a34.77,34.77,0,0,0,8.57-9.14c.54-.84,1-1.67,1.46-2.5C888.68,657.4,889.17,652.72,887.6,649.77Z" transform="translate(-299 -349.79)"/><path class="cls-12" d="M861.5,661.19c5.17-8,14-13.51,19.72-12.25s6.17,8.8,1,16.83l0,0a31.2,31.2,0,0,0,1.95-2.72c3.27-5.07,4.39-10,3.45-13.32a5.74,5.74,0,0,0-4.5-4.3c-6-1.32-15.23,4.42-20.64,12.83a24.56,24.56,0,0,0-3.36,7.54A26.12,26.12,0,0,1,861.5,661.19Z" transform="translate(-299 -349.79)"/></g></svg>