<svg id="Layer_3" data-name="Layer 3" xmlns="http://www.w3.org/2000/svg" viewBox="0 0 216 777.01"><defs><style>.cls-1,.cls-2{fill:#fff;}.cls-2{stroke:#000;stroke-miterlimit:10;}</style></defs><title>ex-2</title><rect class="cls-1" x="30.5" y="232.5" width="156" height="16"/><path d="M518,547v15H363V547H518m1-1H362v17H519V546Z" transform="translate(-332 -314)"/><polygon class="cls-1" points="30.27 231.5 19.92 215.5 196.13 215.5 186.71 231.5 30.27 231.5"/><path d="M527.25,530l-8.82,15H362.54l-9.7-15H527.25m1.75-1H351l11,17H519l10-17Z" transform="translate(-332 -314)"/><polygon class="cls-1" points="11.99 175.82 71.11 149.5 142.78 149.5 203.59 175.82 11.99 175.82"/><path d="M474.68,464l58.49,25.32H346.34L403.21,464h71.47m.2-1H403l-61.36,27.32H538L474.88,463Z" transform="translate(-332 -314)"/><polygon class="cls-1" points="71.29 148.5 62.87 134.17 150.18 134.17 142.7 148.5 71.29 148.5"/><path d="M481.35,448.67l-7,13.33H403.57l-7.82-13.33h85.6m1.65-1H394L403,463h72l8-15.33Z" transform="translate(-332 -314)"/><polygon class="cls-1" points="67.21 133.5 73.21 127.5 140.81 127.5 147.67 133.5 67.21 133.5"/><path d="M472.62,442l5.72,5H400.41l5-5h67.21m.38-1H405l-7,7h83l-8-7Z" transform="translate(-332 -314)"/><rect class="cls-1" x="0.5" y="201.5" width="215" height="13"/><path d="M547,516v12H333V516H547m1-1H332v14H548V515Z" transform="translate(-332 -314)"/><rect class="cls-1" x="96.5" y="113.24" width="20" height="15.26"/><path d="M448,427.74V442H429V427.74h19m1-1H428V443h21V426.74Z" transform="translate(-332 -314)"/><polygon class="cls-1" points="97.54 117.72 106.97 6.24 115.46 117.72 97.54 117.72"/><path d="M439,326.48l8,104.74H430.09L439,326.48M439,314,429,432.22h19L439,314Z" transform="translate(-332 -314)"/><polyline class="cls-2" points="100 129.52 106.84 13.3 113 129.52"/><polygon class="cls-1" points="101.53 91.12 102.47 77.34 110.53 77.34 111.47 91.12 101.53 91.12"/><path d="M442.07,391.84l.86,12.78h-8.86l.86-12.78h7.14m.93-1h-9l-1,14.78h11l-1-14.78Z" transform="translate(-332 -314)"/><polygon class="cls-1" points="13.32 200.5 0.78 173.5 215.29 173.5 205.65 200.5 13.32 200.5"/><path d="M546.58,488l-9.28,26H345.64l-12.07-26h213m1.42-1H332l13,28H538l10-28Z" transform="translate(-332 -314)"/><polygon class="cls-1" points="30.02 200.5 19.73 174.5 195.75 174.5 187.84 200.5 30.02 200.5"/><path d="M527.08,489l-7.61,25H362.36l-9.89-25H527.08m1.35-1H351l10.68,27H520.21l8.22-27Z" transform="translate(-332 -314)"/><polyline class="cls-2" points="85.41 776.09 69 776 52.56 776 52.5 776.5"/><polygon class="cls-2" points="104.5 240 104.14 240 104.32 240 104.5 240"/><polyline class="cls-2" points="71.17 240 79.68 240 79.65 239.76 53.5 239.5"/><polygon class="cls-2" points="79.62 239.5 79.65 239.76 104.14 240 79.62 239.5"/><polygon class="cls-2" points="115.14 240.22 104.32 240 79.68 240 79.69 240.04 115.14 240.22"/><polyline class="cls-2" points="162.5 776.5 162.46 776 92.41 776 85.41 776.09"/><path class="cls-2" d="M459.64,746.12,492.5,553.5l-40.07.5v.3l2.27,0,18.69.16L455.16,724.07l-3.3,24.43.18,45.35L468.19,1090l25.31.5L459.23,763A104.19,104.19,0,0,1,459.64,746.12Z" transform="translate(-332 -314)"/><path class="cls-2" d="M405.68,554l-16.18-.5,26.25,199.08a57.26,57.26,0,0,1,.16,9.89l-31.41,328,20.58-.5L424,787.55l2-53.82Z" transform="translate(-332 -314)"/><path class="cls-2" d="M451.86,746.5l3.3-22.43,9-169.57-9.5-.16-4.27,0V1089h-1.35v.41H425.35L424,1062.55V804.07L414.52,1090H428l27.2-.59L452,793.85l-.18-31.35C451.68,756.88,451.52,752.06,451.86,746.5Z" transform="translate(-332 -314)"/><polygon class="cls-2" points="93.72 240.5 83.77 240 94.01 412.06 96.01 322.39 93.72 240.5"/><line class="cls-2" x1="94.01" y1="412.06" x2="94.01" y2="419.73"/><path class="cls-2" d="M424.3,762.5l-.29,300,2,26.45h23.07l-2.75-340.5,2.66-194-8-.28,11.41.1v0l-17.93.2H424l4,81.89S424.3,760.5,424.3,762.5Z" transform="translate(-332 -314)"/><rect class="cls-1" x="38.5" y="232.5" width="139" height="16"/><path d="M509,547v15H371V547H509m1-1H370v17H510V546Z" transform="translate(-332 -314)"/><rect class="cls-1" x="48.5" y="232.5" width="119" height="16"/><path d="M499,547v15H381V547H499m1-1H380v17H500V546Z" transform="translate(-332 -314)"/><rect class="cls-1" x="57.5" y="232.5" width="99" height="16"/><path d="M488,547v15H390V547h98m1-1H389v17H489V546Z" transform="translate(-332 -314)"/><rect class="cls-1" x="66.5" y="232.5" width="80" height="16"/><path d="M478,547v15H399V547h79m1-1H398v17h81V546Z" transform="translate(-332 -314)"/><rect class="cls-1" x="77.5" y="232.5" width="59" height="16"/><path d="M468,547v15H410V547h58m1-1H409v17h60V546Z" transform="translate(-332 -314)"/><rect class="cls-1" x="88.5" y="232.5" width="38" height="16"/><path d="M458,547v15H421V547h37m1-1H420v17h39V546Z" transform="translate(-332 -314)"/><rect class="cls-1" x="97.5" y="232.5" width="19" height="16"/><path d="M448,547v15H430V547h18m1-1H429v17h20V546Z" transform="translate(-332 -314)"/><rect class="cls-1" x="107.5" y="232.5" width="9" height="16"/><path d="M448,547v15h-8V547h8m1-1H439v17h10V546Z" transform="translate(-332 -314)"/></svg>