<svg xmlns="http://www.w3.org/2000/svg" viewBox="0 0 572 505.26"><defs><style>.cls-1{fill:#4d4d4d;}.cls-2{fill:#333;}.cls-3{fill:#999;}.cls-4{font-size:89.24px;fill:#fff;font-family:Didot-Bold, Didot;font-weight:700;}</style></defs><title>ex-3</title><g id="Layer_4" data-name="Layer 4"><path class="cls-1" d="M890,653.88c-43.92,93.11-133.59,196.74-292.06,195-165.09-1.77-260.36-131.38-278.08-193.76Z" transform="translate(-318 -343.8)"/><path class="cls-2" d="M875,672c-39,94-141,174-276.2,177C433.74,852.63,340,720,318,658Z" transform="translate(-318 -343.8)"/></g><g id="Layer_3" data-name="Layer 3"><path class="cls-3" d="M540.59,348.85C622.29,347.22,646.05,654.8,647.25,663c25.09-.13,56.34.59,56.34.59-10.56-48.92-65.11-321.71-163-319.76C431.91,346,388.78,657.28,388.78,657.28c11,0,29.81.63,50.09.53C442.09,620.55,454.51,350.57,540.59,348.85Z" transform="translate(-318 -343.8)"/><text class="cls-4" transform="translate(101.24 424.49) rotate(-0.5) scale(0.95 1)">S</text><text class="cls-4" transform="matrix(0.66, -0.01, 0.01, 0.7, 156.12, 424.01)">T</text><text class="cls-4" transform="translate(197.92 423.65) rotate(-0.5) scale(0.95 1)">. L</text><text class="cls-4" transform="matrix(0.66, -0.01, 0.01, 0.7, 306.16, 422.7)">OUIS</text></g></svg>