<svg xmlns="http://www.w3.org/2000/svg" viewBox="0 0 811.91 131.53"><title>Hollywood</title><g id="Layer_3" data-name="Layer 3"><polygon points="74.81 18.74 74.81 61.16 51.02 61.16 51.02 18.74 24.46 18.74 24.46 122.2 51.02 122.2 51.02 84.15 74.81 84.15 74.81 122.2 101.37 122.2 101.37 18.74 74.81 18.74"/><path d="M270.43,772V665.72H191.09V772h19.56v0l15.06,0h44.72ZM211.31,667.28l18.7,0v16.43H211.33ZM268.93,770.5H251L251,751h18Zm0-20.13H251l0-18h18Zm-76.34-18h18l0,18h-18Zm57.62,38.12-18.7,0V751h18.68Zm-18.7-38.12h18.66l0,18H231.51Zm-1.5,18H211.39l0-18H230Zm-37.42-18.79V715.8h18v15.78Zm18.77-15.78H230v15.78H211.37Zm0-.68,0-15H230v15Zm20.15-15h18.63l0,15H231.51Zm18.65,15.65v15.78H231.51V715.8Zm.76,0h18v15.78h-18Zm-39.51,54.7,0-19.46H230V770.5h-18.6Zm-.77,0h-18V751h18Zm-18-55.38v-15h18l0,15Zm0-31.13h18v15.85h-18Zm18.74,0H230v15.85H211.34Zm38.78-16.77,0,16.46H231.51V667.25Zm0,16.77v15.85H231.51V684Zm.76,0h18v15.85h-18Zm18,16.16v15h-18l0-15Zm-76.34-32.93h18l0,16.46h-18Zm76.34,0v16.46h-18V667.22Z" transform="translate(-191.09 -643.4)"/></g><g id="Layer_4" data-name="Layer 4"><path d="M356.79,653H328.9L303,669v71.18l25.76,15.89h27.5l25.32-15.62V669.19ZM356,727.46l-9.22,6H336.74l-8.65-6V685.68l8.65-6.66h10.08l9.22,6.66Z" transform="translate(-191.09 -643.4)"/><path d="M364.44,761V654.76H285.1V761h19.55v0l15.07,0h44.72ZM305.32,656.32l18.7,0v16.43H305.34Zm57.62,103.22H345l0-19.46h18Zm0-20.14H345l0-18h18Zm-76.34-18h18l0,18h-18Zm57.62,38.12-18.7,0V740.08H344.2Zm-18.7-38.12h18.66l0,18H325.52Zm-1.5,18H305.4l0-18H324ZM286.6,720.62V704.83h18v15.79Zm18.77-15.79H324v15.79H305.38Zm0-.68,0-15H324v15Zm20.15-15h18.63l0,15H325.52Zm18.65,15.64v15.79H325.52V704.83Zm.76,0h18v15.79h-18Zm-39.52,54.71V740.08H324v19.45H305.41Zm-.76,0h-18V740.08h18Zm-18-55.39v-15h18v15Zm0-31.12h18v15.85h-18Zm18.74,0H324v15.85H305.35Zm38.78-16.78,0,16.47H325.52V656.28Zm0,16.78v15.85H325.52V673Zm.76,0h18v15.85h-18Zm18,16.16v15h-18l0-15ZM286.6,656.25h18l0,16.47h-18Zm76.34,0v16.47h-18l0-16.47Z" transform="translate(-191.09 -643.4)"/></g><g id="Layer_5" data-name="Layer 5"><polygon points="226.16 79.37 226.16 0 199.61 0 199.61 79.37 199.61 103.06 226.16 103.06 270.03 103.06 270.03 79.08 226.16 79.37"/><polygon points="257.78 92.41 257.78 111.87 241.36 111.87 241.34 92.41 240.65 92.41 240.66 111.83 223.56 111.86 223.56 92.41 222.2 92.41 222.2 111.86 218.58 111.87 205.18 111.87 205.17 92.41 204.47 92.41 204.49 111.87 187.98 111.87 187.98 92.41 186.61 92.41 186.61 113.37 204.49 113.37 204.49 113.39 218.26 113.37 222.2 113.37 223.56 113.37 259.15 113.37 259.15 92.41 257.78 92.41"/><polygon points="202.42 15.29 221.88 15.29 221.88 31.71 202.42 31.73 202.42 32.42 221.84 32.41 221.87 49.5 202.42 49.5 202.42 50.87 221.87 50.87 221.88 54.49 221.88 67.89 202.42 67.9 202.42 68.6 221.88 68.58 221.88 85.09 202.42 85.09 202.42 86.46 223.38 86.46 223.38 68.58 223.4 68.58 223.38 54.81 223.38 50.87 223.38 49.5 223.38 13.92 202.42 13.92 202.42 15.29"/></g><g id="Layer_6" data-name="Layer 6"><polygon points="303.23 79.33 303.23 0.26 276.58 0.26 276.58 79.33 276.58 102.93 303.23 102.93 347.01 103.79 347.01 79.08 303.23 79.33"/><polygon points="340.41 92.41 340.41 111.87 323.99 111.87 323.97 92.41 323.27 92.41 323.29 111.83 306.19 111.86 306.19 92.41 304.82 92.41 304.82 111.86 301.21 111.87 287.81 111.87 287.8 92.41 287.1 92.41 287.12 111.87 270.61 111.87 270.61 92.41 269.24 92.41 269.24 113.37 287.12 113.37 287.12 113.39 300.89 113.37 304.82 113.37 306.19 113.37 341.78 113.37 341.78 92.41 340.41 92.41"/><polygon points="285.05 15.29 304.51 15.29 304.51 31.71 285.05 31.73 285.05 32.42 304.47 32.41 304.5 49.5 285.05 49.5 285.05 50.87 304.5 50.87 304.51 54.49 304.51 67.89 285.05 67.9 285.05 68.6 304.51 68.58 304.51 85.09 285.05 85.09 285.05 86.46 306 86.46 306 68.58 306.03 68.58 306 54.81 306 50.87 306 49.5 306 13.92 285.05 13.92 285.05 15.29"/></g><g id="Layer_7" data-name="Layer 7"><polygon points="385.62 4.47 373.33 41.72 361.04 4.47 330.55 4.47 359.22 72.4 359.22 107.6 387.9 107.6 387.9 72.4 416.57 4.47 385.62 4.47"/><path d="M602.76,756.76V650.48H523.42V756.76H543v0l15.06,0h44.72ZM543.65,652l18.69,0v16.43H543.66Zm57.61,103.23h-18l0-19.46h18Zm0-20.14h-18l0-18h18Zm-76.34-18h18l0,18h-18Zm57.62,38.12-18.7,0V735.81h18.68Zm-18.7-38.12H582.5l0,18H563.84Zm-1.5,18H543.72l0-18h18.64Zm-37.42-18.78V700.56h18v15.79Zm18.77-15.79h18.65v15.79H543.7Zm0-.68,0-15h18.67v15Zm20.15-15h18.64v15H563.84Zm18.65,15.65v15.79H563.84V700.56Zm.76,0h18v15.79h-18Zm-39.51,54.71,0-19.46h18.62v19.45h-18.6Zm-.76,0H524.92V735.81h18Zm-18.06-55.39v-15h18l0,15Zm0-31.12h18V684.6h-18Zm18.74,0h18.68V684.6H543.67ZM582.45,652v16.46H563.84V652Zm0,16.78,0,15.84H563.84V668.76Zm.76,0h18V684.6h-18Zm18,16.15v15h-18v-15ZM524.92,652h18l0,16.46h-18Zm76.34,0v16.46h-18V652Z" transform="translate(-191.09 -643.4)"/></g><g id="Layer_8" data-name="Layer 8"><polygon points="493.89 17.42 486.2 48.75 478.5 17.42 465.63 17.42 456.82 48.75 448.8 17.42 424.35 17.42 444.32 120.92 464.38 120.92 471.26 90.78 478.8 120.92 498.37 120.92 518.83 17.42 493.89 17.42"/><path d="M707,769V662.7H627.65V769H647.2v0l15.07,0H707ZM647.87,664.26l18.7,0v16.44H647.89Zm57.62,103.23h-18V748h18Zm0-20.14h-18l0-18h18Zm-76.34-18h18v18h-18Zm57.61,38.12-18.69,0V748h18.68Zm-18.69-38.12h18.66l0,18H668.07Zm-1.5,18H648l0-18h18.64Zm-37.42-18.78V712.78h18l0,15.79Zm18.76-15.79h18.66v15.79H647.93Zm0-.68v-15h18.67v15Zm20.16-15H686.7v15H668.07Zm18.65,15.65v15.79H668.07V712.78Zm.76,0h18v15.79h-18ZM648,767.49V748h18.62v19.45H648Zm-.76,0H629.15V748h18ZM629.15,712.1v-15h18v15Zm0-31.12h18v15.84h-18Zm18.74,0h18.68v15.84H647.9Zm38.78-16.78,0,16.47H668.07V664.23Zm0,16.78v15.84H668.07V681Zm.76,0h18v15.84h-18Zm18,16.15v15h-18l0-15ZM629.15,664.2h18l0,16.47h-18Zm76.34,0v16.47h-18l0-16.47Z" transform="translate(-191.09 -643.4)"/></g><g id="Layer_9" data-name="Layer 9"><path d="M770.85,665.58h-27l-25.15,15.91v70.77l25,15.79h26.68l24.55-15.52V681.7Zm-.72,74-8.94,6h-9.78l-8.38-6V698.09l8.38-6.62h9.78l8.94,6.62Z" transform="translate(-191.09 -643.4)"/><path d="M808.32,774.91V668.63H729V774.91h19.55v0l15.07,0h44.71ZM749.21,670.19l18.7,0v16.43H749.22Zm57.62,103.22h-18V754h18Zm0-20.14h-18l0-18h18Zm-76.34-18h18v18h-18Zm57.61,38.12-18.7,0V754h18.69Zm-18.7-38.12h18.67v18H769.4Zm-1.49,18H749.28v-18h18.64Zm-37.42-18.78V718.7h18l0,15.79Zm18.76-15.79h18.66v15.79H749.27Zm0-.68v-15h18.67v15Zm20.15-15H788v15H769.4Zm18.65,15.64,0,15.79H769.4V718.7Zm.76,0h18v15.79h-18ZM749.3,773.41l0-19.46h18.63V773.4H749.3Zm-.76,0h-18V754h18Zm-18-55.39v-15h18v15Zm0-31.12h18l0,15.84h-18Zm18.74,0h18.68v15.84H749.24ZM788,670.12l0,16.47H769.4V670.15Zm0,16.78v15.84H769.4V686.9Zm.76,0h18v15.84h-18Zm18,16.16v15h-18v-15Zm-76.34-32.94h18v16.47h-18Zm76.34,0v16.47h-18l0-16.47Z" transform="translate(-191.09 -643.4)"/></g><g id="Layer_10" data-name="Layer 10"><path d="M868.5,666.36h-27l-25.14,15.79v70.23l25,15.67H868l24.55-15.4v-70.3Zm-.72,73.49-8.94,6h-9.78l-8.38-6V698.62l8.38-6.57h9.78l8.94,6.57Z" transform="translate(-191.09 -643.4)"/><path d="M911,774.91V668.63H831.66V774.91h19.55v0l15.07,0H911ZM851.88,670.19l18.7,0v16.43H851.9ZM909.5,773.41h-18V754h18Zm0-20.14h-18l0-18h18Zm-76.34-18h18v18h-18Zm57.61,38.12-18.69,0V754h18.68Zm-18.69-38.12h18.66l0,18H872.08Zm-1.5,18H852v-18h18.64Zm-37.42-18.78V718.7h18l0,15.79Zm18.76-15.79h18.66v15.79H851.94Zm0-.68v-15h18.67v15Zm20.16-15h18.63v15H872.08Zm18.64,15.64,0,15.79H872.08V718.7Zm.77,0h18v15.79h-18ZM852,773.41,852,754h18.63V773.4H852Zm-.76,0H833.16V754h18ZM833.16,718v-15h18v15Zm0-31.12h18l0,15.84h-18Zm18.74,0h18.68v15.84H851.91Zm38.78-16.78,0,16.47H872.08V670.15Zm0,16.78v15.84H872.08V686.9Zm.76,0h18v15.84h-18Zm18,16.16v15h-18v-15Zm-76.34-32.94h18v16.47h-18Zm76.34,0v16.47h-18l0-16.47Z" transform="translate(-191.09 -643.4)"/></g><g id="Layer_11" data-name="Layer 11"><path d="M954.18,664.2H908.07V766.67H953.7l21.72-15.53V680.31Zm-.64,74-7.91,6-16.06.15V690.29l16.06-.21,7.91,6.62Z" transform="translate(-191.09 -643.4)"/><path d="M1003,771.29V669.17H926.78V771.29h18.78v0l14.48,0h43ZM946.2,670.67l18,0v15.79H946.22Zm55.36,99.18H984.3v-18.7h17.27Zm0-19.35H984.28V733.19h17.29Zm-73.35-17.31h17.32V750.5H928.21Zm55.36,36.62-18,0V751.15h17.94Zm-18-36.62h17.93V750.5H965.61Zm-1.44,17.31h-17.9V733.19h17.91Zm-36-18V717.29h17.3l0,15.16Zm18-15.16h17.92v15.16H946.26Zm0-.66V702.25h17.94v14.38Zm19.37-14.38h17.9v14.38H965.61Zm17.91,15,0,15.16H965.61V717.29Zm.74,0h17.3v15.16H984.27Zm-38,52.56v-18.7h17.89v18.69H946.29Zm-.73,0H928.21v-18.7h17.33Zm-17.35-53.22V702.25H945.5v14.38Zm0-29.9h17.28V702H928.21Zm18,0h17.95V702H946.23Zm37.26-16.12,0,15.82H965.61V670.64Zm0,16.12V702h-17.9V686.73Zm.73,0h17.33V702H984.24Zm17.33,15.52v14.38H984.25V702.25Zm-73.35-31.64h17.26l0,15.82H928.21Zm73.35,0v15.82H984.23l0-15.82Z" transform="translate(-191.09 -643.4)"/></g></svg>