<svg xmlns="http://www.w3.org/2000/svg" viewBox="0 0 560.43 569.17"><defs><style>.cls-1,.cls-11,.cls-17,.cls-20{fill:#0071bc;}.cls-2{fill:#ff0;}.cls-3{fill:#fff035;}.cls-4{fill:#fff;}.cls-5{fill:#ffaa1e;}.cls-10,.cls-19,.cls-6{fill:#ed1c24;}.cls-7{fill:#f7ac09;}.cls-8{fill:#e6e6e6;}.cls-9{fill:#f2f2f2;}.cls-10{font-size:36px;}.cls-10,.cls-17{font-family:MyriadPro-Regular, Myriad Pro;}.cls-11{font-size:48px;font-family:DancingScript-Bold, Dancing Script;letter-spacing:-0.05em;}.cls-11,.cls-19,.cls-20{font-weight:700;}.cls-12{letter-spacing:-0.05em;}.cls-13{letter-spacing:-0.05em;}.cls-14{letter-spacing:-0.05em;}.cls-15{letter-spacing:-0.05em;}.cls-16{letter-spacing:-0.05em;}.cls-17{font-size:24px;letter-spacing:0.07em;}.cls-18{letter-spacing:0.1em;}.cls-19{font-size:63px;letter-spacing:0.01em;}.cls-19,.cls-20{font-family:Helvetica-Bold, Helvetica;}.cls-20{font-size:38px;letter-spacing:0.01em;}.cls-21{letter-spacing:-0.07em;}.cls-22{letter-spacing:-0.03em;}</style></defs><title>LasVegas</title><g id="Layer_11" data-name="Layer 11"><polygon class="cls-1" points="237.22 85.17 210.34 85.17 164.93 85.17 137.13 85.17 131.57 85.17 131.72 534.17 149.09 542.17 153.44 108.17 224.01 108.17 224.01 565.17 243.56 569.17 243.71 85.17 237.22 85.17"/></g><g id="yellow_sign" data-name="yellow sign"><path class="cls-2" d="M865.22,595.66,599.68,446.46,333.74,596.62c-19.31,14.45-19.26,43.85.11,58.22L600.36,804l265-150.21C884.56,639.34,884.51,610,865.22,595.66ZM838.86,651,600.27,786.2l-240-134.31a32.82,32.82,0,0,1-.1-52.42L599.66,464.26l239.1,134.35A32.83,32.83,0,0,1,838.86,651Z" transform="translate(-319.29 -282.83)"/><path class="cls-2" d="M838.76,598.61,599.66,464.26,360.21,599.47a32.82,32.82,0,0,0,.1,52.42l240,134.31L838.86,651A32.83,32.83,0,0,0,838.76,598.61Z" transform="translate(-319.29 -282.83)"/><path class="cls-3" d="M858,597.67,600,454.3,341.11,597.62a34.6,34.6,0,0,0,0,55.76L600,796.7,858,653.33A34.59,34.59,0,0,0,858,597.67Zm-25.74,52.89L600,779.65l-233.11-129a31.15,31.15,0,0,1,0-50.2L600,471.35,832.21,600.44A31.14,31.14,0,0,1,832.21,650.56Z" transform="translate(-319.29 -282.83)"/><path class="cls-4" d="M832.21,600.44,600,471.35l-233.11,129a31.15,31.15,0,0,0,0,50.2L600,779.65,832.21,650.56A31.14,31.14,0,0,0,832.21,600.44Z" transform="translate(-319.29 -282.83)"/></g><g id="large_red_star" data-name="large red star"><polygon class="cls-5" points="221.79 113.06 196.59 141.78 198.41 141.92 226.78 108.15 195.07 131.85 195.16 133.56 221.79 113.06"/><polygon class="cls-5" points="154.35 117.2 178.33 134.55 178.56 132.39 150.49 113.42 170.92 141.85 172.9 141.74 154.35 117.2"/><polygon class="cls-5" points="199.16 151.73 196.65 151.87 220.79 183.85 194.45 162.78 194.28 164.62 226.2 189.15 199.16 151.73"/><polygon class="cls-5" points="147.04 185.09 175.47 151.56 173.73 151.42 142.89 189.18 178.16 161.39 178.03 159.66 147.04 185.09"/><polygon class="cls-6" points="178.03 159.66 177.45 151.71 175.47 151.56 147.04 185.09 178.03 159.66"/><polygon class="cls-6" points="172.9 141.74 177.57 141.49 178.33 134.55 154.35 117.2 172.9 141.74"/><polygon class="cls-6" points="194.45 162.78 220.79 183.85 196.65 151.87 195.5 151.93 194.45 162.78"/><polygon class="cls-6" points="195.16 133.56 195.63 141.7 196.59 141.78 221.79 113.06 195.16 133.56"/><path class="cls-7" d="M514.8,434.75l1.14-.06,2.51-.13,74.63-4-75.38-5.83-1.82-.14-1-.07-.47-8.14-.09-1.71L508.69,315,497.85,415.22l-.23,2.16-.75,6.93-4.68.26-2,.11-70.12,3.83L493,434.25l1.74.13,2,.16.58,7.94.13,1.74L504.51,541l9.06-93.54.17-1.84Zm-10.15,94-6.39-95.18-67.64-4.89,67.74-3.29,10.2-99.07,4.84,99.25,66.14,4.88-66.24,3.3Z" transform="translate(-319.29 -282.83)"/><polygon class="cls-6" points="194.01 150.89 260.25 147.58 194.11 142.71 189.27 43.45 179.07 142.53 111.33 145.81 178.97 150.71 185.36 245.89 194.01 150.89"/></g><g id="welcome_circles" data-name="welcome circles"><path class="cls-8" d="M435.06,500.81a28.1,28.1,0,1,0,28.09,28.09A28.1,28.1,0,0,0,435.06,500.81Zm0,53.31a25.22,25.22,0,1,1,25.21-25.22A25.22,25.22,0,0,1,435.06,554.12Z" transform="translate(-319.29 -282.83)"/><circle class="cls-9" cx="435.06" cy="528.9" r="25.22" transform="translate(-565.86 179.72) rotate(-45)"/><path class="cls-8" d="M489.7,497a28.1,28.1,0,1,0,28.1,28.1A28.1,28.1,0,0,0,489.7,497Zm0,53.31a25.22,25.22,0,1,1,25.22-25.21A25.21,25.21,0,0,1,489.7,550.26Z" transform="translate(-319.29 -282.83)"/><circle class="cls-9" cx="170.41" cy="242.22" r="25.22"/><path class="cls-8" d="M545.35,497a28.1,28.1,0,1,0,28.1,28.1A28.1,28.1,0,0,0,545.35,497Zm0,53.31a25.22,25.22,0,1,1,25.22-25.21A25.21,25.21,0,0,1,545.35,550.31Z" transform="translate(-319.29 -282.83)"/><circle class="cls-9" cx="545.35" cy="525.1" r="25.22" transform="translate(-530.86 256.59) rotate(-45)"/><path class="cls-8" d="M602,497a28.1,28.1,0,1,0,28.1,28.1A28.1,28.1,0,0,0,602,497Zm0,53.31a25.22,25.22,0,1,1,25.22-25.21A25.22,25.22,0,0,1,602,550.31Z" transform="translate(-319.29 -282.83)"/><circle class="cls-9" cx="282.71" cy="242.27" r="25.22"/><path class="cls-8" d="M656.65,497a28.1,28.1,0,1,0,28.1,28.1A28.1,28.1,0,0,0,656.65,497Zm0,53.31a25.22,25.22,0,1,1,25.21-25.21A25.22,25.22,0,0,1,656.65,550.31Z" transform="translate(-319.29 -282.83)"/><circle class="cls-9" cx="656.65" cy="525.1" r="25.22" transform="translate(-422.37 -117.91) rotate(-13.28)"/><path class="cls-8" d="M712.3,499.9A28.1,28.1,0,1,0,740.39,528,28.1,28.1,0,0,0,712.3,499.9Zm0,53.32A25.22,25.22,0,1,1,737.51,528,25.22,25.22,0,0,1,712.3,553.22Z" transform="translate(-319.29 -282.83)"/><circle class="cls-9" cx="393.01" cy="245.17" r="25.22"/><path class="cls-8" d="M767.94,500.81A28.1,28.1,0,1,0,796,528.9,28.09,28.09,0,0,0,767.94,500.81Zm0,53.31a25.22,25.22,0,1,1,25.22-25.22A25.22,25.22,0,0,1,767.94,554.12Z" transform="translate(-319.29 -282.83)"/><circle class="cls-9" cx="767.94" cy="528.9" r="25.22" transform="translate(-420.26 -92.24) rotate(-13.28)"/></g><g id="Welcome"><text class="cls-10" transform="translate(100.06 260.62)">W</text><text class="cls-10" transform="translate(160.44 256.39)">E</text><text class="cls-10" transform="translate(217 256.62)">L</text><text class="cls-10" transform="translate(270.21 257.03)">C</text><text class="cls-10" transform="translate(325.19 257.43)">O</text><text class="cls-10" transform="translate(378.42 258.25)">M</text><text class="cls-10" transform="translate(439.25 257.99)">E</text></g><g id="fab"><text class="cls-11" transform="translate(182.18 319.08) rotate(3) scale(1.68 1)">F<tspan class="cls-12" x="22.84" y="-1.85">a</tspan><tspan class="cls-12" x="41.94" y="-3.46">b</tspan><tspan class="cls-12" x="59.37" y="-5.06">u</tspan><tspan class="cls-13" x="78.34" y="-6.32">l</tspan><tspan class="cls-14" x="87.91" y="-7.43">o</tspan><tspan class="cls-15" x="103.56" y="-8.96">u</tspan><tspan class="cls-16" x="122.52" y="-10.44">s</tspan><tspan class="cls-13" x="137.18" y="-11.54"> </tspan></text></g><g id="to"><text class="cls-17" transform="translate(135.06 315.93)">T<tspan class="cls-18" x="13.68" y="0">O</tspan></text></g><g id="las_vegas" data-name="las vegas"><text class="cls-19" transform="translate(87.58 389.53)"><tspan xml:space="preserve">LAS  VEGAS</tspan></text></g><g id="nevada"><text class="cls-20" transform="translate(196.71 438.95)">NE<tspan class="cls-21" x="53.24" y="0">V</tspan><tspan x="76.02" y="0">AD</tspan><tspan class="cls-22" x="131.36" y="0">A</tspan></text></g><g id="stars"><polygon class="cls-5" points="421.42 66.73 428.07 58.54 427.28 57.49 426.78 57.45 427.61 58.6 420.53 67.65 429.13 60.58 429.09 60.16 421.42 66.73"/><polygon class="cls-5" points="431.76 57.92 432.07 57.55 431.6 57.58 431.31 57.93 431.29 58.11 437.48 66.26 431.04 61.14 431 61.57 438.67 67.42 431.76 57.92"/><polygon class="cls-5" points="437.51 50.55 432.7 56.27 433.08 56.29 438.59 49.45 431.27 55.16 431.29 55.55 437.51 50.55"/><polygon class="cls-5" points="422.84 51.65 428.89 56 428.94 55.49 421.99 50.82 426 56.37 426.41 56.35 422.84 51.65"/><polygon class="cls-6" points="426.41 56.35 428.88 56.18 428.89 56 422.84 51.65 426.41 56.35"/><polygon class="cls-6" points="421.42 66.73 429.09 60.16 428.88 57.6 427.28 57.49 428.07 58.54 421.42 66.73"/><polygon class="cls-6" points="431.31 57.93 431.6 57.58 431.33 57.6 431.31 57.93"/><polygon class="cls-6" points="431.29 55.55 431.33 56.18 432.7 56.27 437.51 50.55 431.29 55.55"/><polygon class="cls-6" points="437.48 66.26 431.29 58.11 431.04 61.14 437.48 66.26"/><path class="cls-7" d="M750.58,340.94l0-.18,0-.34.26,0,.47,0,9.92-.66-8.91-.59-.37,0-1.37-.09,0-.62,0-.39-1-14.16-1.37,14.48,0,.52,0,.17-2.47.17-.41,0-7.57.51,8.35.57.5,0,1.6.11.21,2.57,0,.41,1,11.77.9-10.78,0-.42Zm-1.18,12.53-1-13.19-9.21-.57,9.21-.56,1.23-13.76.82,13.76,9,.56-9,.57Z" transform="translate(-319.29 -282.83)"/><polygon class="cls-6" points="431.13 57.45 440.14 56.89 431.13 56.32 430.31 42.56 429.08 56.32 419.87 56.89 429.08 57.45 430.11 70.65 431.13 57.45"/><polygon class="cls-5" points="368.51 513.55 363.7 519.27 364.08 519.29 369.59 512.45 362.27 518.16 362.29 518.55 368.51 513.55"/><polygon class="cls-5" points="353.84 514.65 359.89 519 359.94 518.49 352.99 513.82 357 519.37 357.41 519.35 353.84 514.65"/><polygon class="cls-5" points="362.76 520.92 363.07 520.55 362.6 520.58 362.31 520.93 362.29 521.11 368.48 529.26 362.04 524.14 362 524.57 369.67 530.42 362.76 520.92"/><polygon class="cls-5" points="352.42 529.73 359.07 521.54 358.28 520.49 357.78 520.46 358.61 521.6 351.53 530.65 360.13 523.58 360.09 523.16 352.42 529.73"/><polygon class="cls-6" points="368.48 529.26 362.29 521.11 362.04 524.14 368.48 529.26"/><polygon class="cls-6" points="362.29 518.55 362.33 519.18 363.7 519.27 368.51 513.55 362.29 518.55"/><polygon class="cls-6" points="357.41 519.35 359.88 519.18 359.89 519 353.84 514.65 357.41 519.35"/><polygon class="cls-6" points="352.42 529.73 360.09 523.16 359.88 520.6 358.28 520.49 359.07 521.54 352.42 529.73"/><polygon class="cls-6" points="362.31 520.93 362.6 520.58 362.33 520.6 362.31 520.93"/><path class="cls-7" d="M681.58,803.94l0-.18,0-.34.26,0,.47,0,9.92-.66-8.91-.59-.37,0-1.37-.09,0-.62,0-.39-1-14.16-1.37,14.48,0,.52,0,.17-2.47.17-.41,0-7.57.51,8.35.57.5,0,1.6.11.21,2.57,0,.41,1,11.77.9-10.78,0-.42Zm-1.18,12.53-1-13.19-9.21-.57,9.21-.56,1.23-13.76.82,13.76,9,.56-9,.57Z" transform="translate(-319.29 -282.83)"/><polygon class="cls-6" points="362.13 520.46 371.14 519.89 362.13 519.32 361.31 505.56 360.08 519.32 350.87 519.89 360.08 520.46 361.11 533.65 362.13 520.46"/><polygon class="cls-5" points="261.51 9.55 256.7 15.27 257.08 15.29 262.59 8.45 255.27 14.16 255.29 14.55 261.51 9.55"/><polygon class="cls-5" points="245.42 25.73 252.07 17.54 251.28 16.49 250.78 16.45 251.61 17.6 244.53 26.65 253.13 19.58 253.09 19.16 245.42 25.73"/><polygon class="cls-5" points="255.76 16.93 256.07 16.55 255.6 16.58 255.31 16.93 255.29 17.11 261.48 25.26 255.04 20.14 255 20.57 262.67 26.43 255.76 16.93"/><polygon class="cls-5" points="246.84 10.65 252.89 15 252.94 14.49 245.99 9.82 250 15.37 250.41 15.35 246.84 10.65"/><polygon class="cls-6" points="245.42 25.73 253.09 19.16 252.88 16.6 251.28 16.49 252.07 17.54 245.42 25.73"/><polygon class="cls-6" points="261.48 25.26 255.29 17.11 255.04 20.14 261.48 25.26"/><polygon class="cls-6" points="255.29 14.55 255.34 15.18 256.7 15.27 261.51 9.55 255.29 14.55"/><polygon class="cls-6" points="255.31 16.93 255.6 16.58 255.34 16.6 255.31 16.93"/><polygon class="cls-6" points="250.41 15.35 252.88 15.18 252.89 15 246.84 10.65 250.41 15.35"/><path class="cls-7" d="M574.58,299.94l0-.18,0-.34.26,0,.47,0,9.92-.66-8.91-.59-.37,0-1.37-.09,0-.62,0-.39-1-14.16-1.37,14.48,0,.52,0,.17-2.47.17-.41,0-7.57.51,8.35.57.5,0,1.6.11.21,2.57,0,.41,1,11.77.9-10.78,0-.42Zm-1.18,12.53-1-13.19-9.21-.57,9.21-.56,1.23-13.76.82,13.76,9,.56-9,.57Z" transform="translate(-319.29 -282.83)"/><polygon class="cls-6" points="255.13 16.45 264.14 15.89 255.13 15.32 254.31 1.56 253.08 15.32 243.87 15.89 253.08 16.45 254.11 29.65 255.13 16.45"/></g><g id="stars-2" data-name="stars"><polygon class="cls-5" points="345.47 84.27 335.56 95.89 336.3 95.93 347.52 82.2 333.19 93.22 333.24 93.96 345.47 84.27"/><polygon class="cls-5" points="334.61 98.33 333.5 98.4 345.4 113.84 332.88 104.04 332.82 104.85 347.68 116.03 334.61 98.33"/><polygon class="cls-5" points="317.43 86.34 328.8 94.39 328.89 93.43 315.8 84.78 324.07 96.05 324.88 95.99 317.43 86.34"/><polygon class="cls-5" points="314.72 114.73 327.43 99.31 326.64 98.28 325.66 98.21 326.55 99.42 313.01 116.46 329.09 103.43 329.02 102.66 314.72 114.73"/><polygon class="cls-6" points="332.88 104.04 345.4 113.84 333.5 98.4 333.36 98.41 332.88 104.04"/><polygon class="cls-6" points="314.72 114.73 329.02 102.66 328.67 98.41 326.64 98.28 327.43 99.31 314.72 114.73"/><polygon class="cls-6" points="324.88 95.99 328.67 95.74 328.8 94.39 317.43 86.34 324.88 95.99"/><polygon class="cls-6" points="333.24 93.96 333.36 95.74 335.56 95.89 345.47 84.27 333.24 93.96"/><path class="cls-7" d="M652.65,381.24h.14l1.11-.08L673,379.9l-17.4-1.14-.74-.05-2.2-.14-.12-1.79,0-.74-1.78-26-2.52,26.25-.09,1-.13,1.35-3.79.25-.81.05-15.35,1L645,381l1,.07,2,.14.36,4.24.06.77L650.3,409l1.81-21.33.07-.81ZM650.3,405.8,648.35,381l-17.61-1.07,17.61-1.07,2.35-25.89,1.56,25.89,17.21,1.07L652.26,381Z" transform="translate(-319.29 -282.83)"/><polygon class="cls-6" points="332.97 98.14 350.18 97.08 332.97 96.01 331.4 70.11 329.06 96.01 311.45 97.08 329.06 98.14 331.01 122.97 332.97 98.14"/><polygon class="cls-5" points="76.38 443.6 85.8 450.35 85.87 449.53 75 442.26 82.67 452.83 83.38 452.78 76.38 443.6"/><polygon class="cls-5" points="91.59 454.78 90.68 454.84 100.05 467.15 89.25 458.58 89.19 459.28 101.98 469.02 91.59 454.78"/><polygon class="cls-5" points="74.09 467.9 84.72 454.86 84.08 454.81 72.64 469.38 85.88 458.53 85.83 457.88 74.09 467.9"/><polygon class="cls-5" points="100.11 441.83 90.92 452.72 91.58 452.76 101.84 440.05 89.36 449.77 89.4 450.41 100.11 441.83"/><polygon class="cls-6" points="89.4 450.41 89.55 452.63 90.92 452.72 100.11 441.83 89.4 450.41"/><polygon class="cls-6" points="85.83 457.88 85.58 454.91 84.72 454.86 74.09 467.9 85.83 457.88"/><polygon class="cls-6" points="83.38 452.78 85.58 452.63 85.8 450.35 76.38 443.6 83.38 452.78"/><polygon class="cls-6" points="89.25 458.58 100.05 467.15 90.68 454.84 89.55 454.91 89.25 458.58"/><path class="cls-7" d="M408.84,737.74l1.13-.08.91-.06,15.18-1-15.19-1-.66-.05-1.37-.09-.15-2.22,0-.64L407.19,711l-2,21.36-.07.81-.22,2.28-2.2.15-.71,0-14,1,15.38,1,.64,0,.86.06.25,3,.05.65,1.69,20.15,1.62-19.41.06-.7Zm-2,21-1.66-21.26-14.9-.91,14.9-.92,2-22.17,1.32,22.17,14.57.92-14.57.91Z" transform="translate(-319.29 -282.83)"/><polygon class="cls-6" points="89.22 454.69 103.79 453.77 89.22 452.86 87.9 430.69 85.91 452.86 71.01 453.77 85.91 454.69 87.57 475.94 89.22 454.69"/></g></svg>