<svg id="Layer_2" data-name="Layer 2" xmlns="http://www.w3.org/2000/svg" viewBox="0 0 365.91 423"><defs><style>.cls-1{fill:#333;}.cls-2{fill:#c1272d;}</style></defs><title>ny-heart</title><path class="cls-1" d="M536,383.71a7,7,0,0,0,7-7V350a7,7,0,0,0-7-7H426.07a7,7,0,0,0-7,7v26.75a7,7,0,0,0,7,7h37.26V488.13H426.06a7,7,0,0,0-7,7v26.75a7,7,0,0,0,7,7H536a7,7,0,0,0,7-7V495.11a7,7,0,0,0-7-7H500.5V383.71Z" transform="translate(-419.09 -343)"/><path class="cls-1" d="M585.6,580.16H526.91A6.94,6.94,0,0,0,520,587.1v26.83a6.94,6.94,0,0,0,6.94,6.94h7.22v54.62L482.8,580.16H431.32a6.92,6.92,0,0,0-6.92,6.92V614a6.92,6.92,0,0,0,6.92,6.92H435V725.29h-7.24a6.92,6.92,0,0,0-6.92,6.93v26.86a6.92,6.92,0,0,0,6.92,6.92H486.5a6.92,6.92,0,0,0,6.92-6.92V732.22a6.92,6.92,0,0,0-6.92-6.93H481V672.6l53.1,93.4h39.11a6.91,6.91,0,0,0,6.91-6.91V620.87h5.45a6.94,6.94,0,0,0,6.94-6.94V587.1A6.94,6.94,0,0,0,585.6,580.16Z" transform="translate(-419.09 -343)"/><path class="cls-1" d="M775,580.16H716.25a6.9,6.9,0,0,0-6.9,6.91V614a6.9,6.9,0,0,0,6.9,6.9h7.42l-25.36,33.3-25.37-33.3h3A6.88,6.88,0,0,0,682.8,614V587.05a6.89,6.89,0,0,0-6.89-6.89H617.12a6.9,6.9,0,0,0-6.89,6.89V614a6.89,6.89,0,0,0,6.89,6.89h12.71l45.89,59.8v44.62h-9.09a6.84,6.84,0,0,0-6.84,6.84v27a6.84,6.84,0,0,0,6.84,6.84h57.12a6.84,6.84,0,0,0,6.84-6.84v-27a6.84,6.84,0,0,0-6.84-6.84h-7.32V684.21L765,620.87h10a6.9,6.9,0,0,0,6.9-6.9v-26.9A6.9,6.9,0,0,0,775,580.16Z" transform="translate(-419.09 -343)"/><path class="cls-2" d="M770,355.3h0c-16.14-15.21-42.88-16.24-60.42-2.33l-27,21.31L656.15,353c-17.55-13.91-44.29-12.88-60.42,2.33h0c-18.22,17.17-20.05,59.44-4.35,78.49l51,47.14L682.74,529l.12-.15.12.15,24.3-28.54,67.07-64.22C790.05,417.19,788.22,372.47,770,355.3Z" transform="translate(-419.09 -343)"/></svg>