<svg id="Layer_2" data-name="Layer 2" xmlns="http://www.w3.org/2000/svg" viewBox="0 0 261 355"><defs><style>.cls-1{fill:none;}.cls-2{fill:#fccc47;}.cls-3{fill:#b3b3b3;}.cls-4{fill:#ffbb1f;}.cls-5{fill:#4d4d4d;}.cls-6,.cls-8{fill:#ecebe2;}.cls-7{fill:#489966;}.cls-8{font-size:39.67px;stroke:#f2f2f2;stroke-width:3px;letter-spacing:0.17em;}.cls-13,.cls-14,.cls-8,.cls-9{stroke-miterlimit:10;font-family:MyriadPro-Regular, Myriad Pro;}.cls-9{font-size:19px;fill:#f2f2f2;stroke:#e6e6e6;letter-spacing:0.03em;}.cls-10{letter-spacing:-0.03em;}.cls-11{fill:#333;}.cls-12{fill:#e6e6e6;}.cls-13,.cls-14{font-size:22.37px;stroke:#000;}.cls-13{letter-spacing:0.03em;}.cls-14{letter-spacing:-0.03em;}.cls-15{letter-spacing:-0.05em;}.cls-16{letter-spacing:0.03em;}</style></defs><title>queens</title><path class="cls-1" d="M503.63,427H500v7h5v5h6V427.23a2.93,2.93,0,0,1-1-2.2v0h-4A2.36,2.36,0,0,1,503.63,427Z" transform="translate(-345 -347)"/><path class="cls-1" d="M518,425a2.93,2.93,0,0,1-1,2.2V439h4a8,8,0,0,1,8,8v40.82A10.14,10.14,0,0,1,518.85,498H517v12.77a2.87,2.87,0,0,1,.82,1.23H564v-1h4v-7H548a12,12,0,0,1-12-12V446a12,12,0,0,1,12-12h20v-8h-4v-1H518Z" transform="translate(-345 -347)"/><path class="cls-1" d="M500,504v6h3.64a2.35,2.35,0,0,1,2.32,2h4.22a2.87,2.87,0,0,1,.82-1.23V498h-6v6Z" transform="translate(-345 -347)"/><path class="cls-2" d="M506,424.63a2.21,2.21,0,0,1,0,.37h4v-2a2.83,2.83,0,0,1,.18-1H506a2.09,2.09,0,0,1,0,.36Z" transform="translate(-345 -347)"/><path class="cls-2" d="M518,425h46v-3H517.82a2.83,2.83,0,0,1,.18,1Z" transform="translate(-345 -347)"/><polygon class="cls-3" points="155 157 149 157 149 87 155 87 155 80 155 73 155 12 120 12 120 355 155 355 155 170 155 163 155 157"/><polygon class="cls-2" points="155 87 149 87 149 157 155 157 160 157 160 151 160 92 160 87 155 87"/><path class="cls-4" d="M503.63,427a2.36,2.36,0,0,0,2.33-2,2.21,2.21,0,0,0,0-.37v-2.27a2.09,2.09,0,0,0,0-.36,2.35,2.35,0,0,0-2.32-2H500v7Z" transform="translate(-345 -347)"/><path class="cls-2" d="M510.18,512H506a2.09,2.09,0,0,1,0,.36v2.27a2.21,2.21,0,0,1,0,.37h4v-2A2.83,2.83,0,0,1,510.18,512Z" transform="translate(-345 -347)"/><path class="cls-2" d="M517.82,512a2.83,2.83,0,0,1,.18,1v2h46v-3Z" transform="translate(-345 -347)"/><path class="cls-4" d="M506,512.36a2.09,2.09,0,0,0,0-.36,2.35,2.35,0,0,0-2.32-2H500v7h3.63a2.36,2.36,0,0,0,2.33-2,2.21,2.21,0,0,0,0-.37Z" transform="translate(-345 -347)"/><path class="cls-4" d="M517.82,512a2.87,2.87,0,0,0-.82-1.23V498h1.85A10.14,10.14,0,0,0,529,487.85V447a8,8,0,0,0-8-8h-4V427.23a2.93,2.93,0,0,0,1-2.2V423a2.83,2.83,0,0,0-.18-1,3,3,0,0,0-2.79-2H513a3,3,0,0,0-2.79,2,2.83,2.83,0,0,0-.18,1V425a2.93,2.93,0,0,0,1,2.2V439h-6v59h6v12.77a2.87,2.87,0,0,0-.82,1.23,2.83,2.83,0,0,0-.18,1V515a3,3,0,0,0,3,3H515a3,3,0,0,0,3-3V513A2.83,2.83,0,0,0,517.82,512Z" transform="translate(-345 -347)"/><path class="cls-4" d="M594,434H574v-8h3.39a1.61,1.61,0,0,0,1.61-1.61V422.6a1.6,1.6,0,0,0-1.6-1.6H564v5h4v8H548a12,12,0,0,0-12,12v46a12,12,0,0,0,12,12h20v7h-4v5h13.39a1.61,1.61,0,0,0,1.61-1.61V512.6a1.6,1.6,0,0,0-1.6-1.6H574v-7h20a12,12,0,0,0,12-12V446A12,12,0,0,0,594,434Zm8,54a12,12,0,0,1-12,12H552a12,12,0,0,1-12-12V450a12,12,0,0,1,12-12h38a12,12,0,0,1,12,12Z" transform="translate(-345 -347)"/><rect class="cls-5" x="195" y="91" width="62" height="62" rx="12" ry="12"/><path class="cls-6" d="M345,552v48H518V552Zm169.22,45H348.78V555H514.22Z" transform="translate(-345 -347)"/><rect class="cls-7" x="3.78" y="208" width="165.44" height="42"/><text class="cls-8" transform="translate(14.37 241.21) scale(0.56 1)">QUEENS </text><text class="cls-9" transform="translate(120 225.88)">B<tspan class="cls-10" x="10.89" y="0">L</tspan><tspan x="19.32" y="0">VD</tspan></text><path class="cls-6" d="M424,347v48H597V347Zm169.22,45H427.78V350H593.22Z" transform="translate(-345 -347)"/><rect class="cls-11" x="82.78" y="3" width="165.44" height="42"/><rect class="cls-12" x="103" y="12" width="108" height="22"/><polyline class="cls-12" points="203.7 5.37 230.97 23.92 204.15 42.11"/><text class="cls-13" transform="translate(114.85 30.73) scale(0.85 1)">ONE</text><text class="cls-14" transform="translate(173.85 30.73) scale(0.85 1)">W<tspan class="cls-15" x="18.35" y="0">A</tspan><tspan class="cls-16" x="30.96" y="0">Y</tspan></text></svg>