<svg id="Layer_3" data-name="Layer 3" xmlns="http://www.w3.org/2000/svg" viewBox="0 0 305.59 182"><defs><style>.cls-1{fill:#1a1a1a;}.cls-2{fill:#fcda21;}.cls-3{fill:#333;}.cls-4{fill:#f2f2f2;}.cls-5{font-size:13px;font-family:ArialMT, Arial;letter-spacing:-0.07em;}.cls-6{letter-spacing:0em;}</style></defs><title>taxi</title><path class="cls-1" d="M464,616.5c-17,0-27.75-6.08-30.57-11.72q-.36-.71-.84-1.71a39.73,39.73,0,0,1-3.53-20.45l.36-4c0-.41.06-.82.06-1.24.06-10.54,1.8-44.95,21.68-44.95l.8,0,1.4,0c16.39,0,27.2-13,38.64-26.72,11.6-13.92,23.58-28.31,42-28.31h80.6c30.14,0,35.07,15.46,39.43,29.1,2.74,8.58,5.33,16.69,13.79,19.87,7.18,2.69,14.94,6.71,22.45,10.6,9.17,4.76,18.66,9.68,27.09,12.16,14.3,4.19,15.15,17,16.14,31.8v18c-.49,3.92-5,9.08-11.56,13.08a52.17,52.17,0,0,1-27,7.43h0Z" transform="translate(-428.41 -460)"/><path d="M614.6,478c13.34,0,22.83,3,29,9.24,5.44,5.46,7.72,12.6,9.92,19.51,2.78,8.7,5.41,16.93,14.1,20.19,7.14,2.68,14.89,6.69,22.39,10.58,9.19,4.77,18.71,9.7,27.18,12.18C731.17,553.8,732,566.42,733,581v17.9c-1.07,7.92-17.8,20.07-38,20.07l-231-3c-16.76,0-27.36-5.93-30.12-11.45-.23-.46-.51-1-.83-1.7a39.11,39.11,0,0,1-3.48-20.18l.36-4c0-.43.06-.85.06-1.27,0-4.41.4-15.76,3.29-25.83,3.56-12.36,9.58-18.63,17.89-18.63l.77,0,1.43,0c16.62,0,28-13.67,39-26.9C503.93,492.3,515.84,478,534,478h80.6m0-1H534c-36.4,0-47.52,55-80.62,55L452,532l-.82,0c-20.73,0-22.13,36.45-22.18,45.45a11.71,11.71,0,0,1-.06,1.19l-.36,4a40.08,40.08,0,0,0,3.58,20.7c.32.68.61,1.25.84,1.72,3,6,14,12,31,12l231,3c21.54,0,38-13,39-21V581c-1-15-2-28-16.5-32.26C702.27,544.27,684,532,668,526c-21.53-8.08-4-49-53.4-49Z" transform="translate(-428.41 -460)"/><path class="cls-2" d="M692.76,617.19l-226.45-2.88c-16.68,0-27.46-5.76-30.4-11.53-.23-.45-.51-1-.82-1.65a37.81,37.81,0,0,1-3.51-19.89l.35-3.8a10.88,10.88,0,0,0,.06-1.14c.05-8.76,2-41.33,20-40.3,35,2,46.76-56.19,82.93-56.19h79c48.43,0,31.25,40.32,52.36,48.07,15.68,5.77,33.59,17.56,48.52,21.86,14.22,4.08,15.2,15.57,16.18,30V597C730,604.7,713.88,617.19,692.76,617.19Z" transform="translate(-428.41 -460)"/><circle class="cls-1" cx="77.59" cy="150" r="32"/><circle class="cls-3" cx="231.59" cy="148" r="32"/><circle class="cls-4" cx="77.59" cy="150" r="13"/><circle class="cls-4" cx="231.59" cy="148" r="13"/><path class="cls-3" d="M167.37,31h14a32.25,32.25,0,0,1,32.25,32.25v7A4.75,4.75,0,0,1,208.84,75H165.68a3.26,3.26,0,0,1-3.26-3.26V35.95A4.95,4.95,0,0,1,167.37,31Z"/><path class="cls-3" d="M510.23,491.34h66.55a3.23,3.23,0,0,1,3.23,3.23v11.61A28.82,28.82,0,0,1,551.18,535h-41a3.23,3.23,0,0,1-3.23-3.23V494.57A3.23,3.23,0,0,1,510.23,491.34Z" transform="translate(658.59 566.34) rotate(180)"/><path class="cls-4" d="M513.23,494h60.55a3.23,3.23,0,0,1,3.23,3.23v5A28.82,28.82,0,0,1,548.18,531h-35a3.23,3.23,0,0,1-3.23-3.23V497.23A3.23,3.23,0,0,1,513.23,494Z" transform="translate(658.59 565) rotate(180)"/><path class="cls-4" d="M170.53,34h6.8a32.25,32.25,0,0,1,32.25,32.25v0A4.75,4.75,0,0,1,204.84,71h-36a3.26,3.26,0,0,1-3.26-3.26V38.95A4.95,4.95,0,0,1,170.53,34Z"/><path class="cls-1" d="M140.67,0H163.1a12.48,12.48,0,0,1,12.48,12.48V18a0,0,0,0,1,0,0h-47a0,0,0,0,1,0,0V12.08A12.08,12.08,0,0,1,140.67,0Z"/><path class="cls-4" d="M142.67,2H161.1a12.48,12.48,0,0,1,12.48,12.48v1.45a0,0,0,0,1,0,0h-43a0,0,0,0,1,0,0V14.08A12.08,12.08,0,0,1,142.67,2Z"/><text class="cls-5" transform="translate(136.17 14.71) scale(1.16 1)">T<tspan class="cls-6" x="6.98" y="0">AXI</tspan></text><polygon class="cls-4" points="302.59 114 3.59 114 4.59 101 300.59 101 302.59 114"/><polygon class="cls-1" points="297.59 101 297.59 107.17 290.59 107.06 290.69 101.06 283.69 100.95 283.6 106.94 276.6 106.83 276.59 107.42 276.59 101 269.59 101 269.59 107 262.59 107 262.59 101 255.59 101 255.59 107 248.59 107 248.59 101 241.59 101 241.59 107 234.59 107 234.59 101 227.59 101 227.59 107 220.59 107 220.59 101 213.59 101 213.59 107 206.59 107 206.59 101 199.59 101 199.59 107 192.59 107 192.59 101 185.59 101 185.59 107 178.59 107 178.59 101 171.59 101 171.59 107.17 164.59 107.06 164.69 101.06 157.69 100.95 157.59 106.94 150.6 106.83 150.59 107.42 150.59 101 143.59 101 143.59 107 136.59 107 136.59 101 129.59 101 129.59 107 122.59 107 122.59 101 115.59 101 115.59 107 108.59 107 108.59 101 101.59 101 101.59 107 94.59 107 94.59 101 87.59 101 87.59 107 80.59 107 80.59 101 73.59 101 73.59 107 66.59 107 66.59 101 59.59 101 59.59 107 52.59 107 52.59 101 45.59 101 45.59 107.17 38.59 107.06 38.69 101.06 31.69 100.95 31.59 106.94 24.6 106.83 24.59 107.42 24.59 101 17.59 101 17.59 107 10.59 107 10.59 101 3.59 101 3.59 108 10.59 108 10.59 114 17.59 114 17.59 108 24.58 108 24.48 113.83 31.48 113.94 31.58 107.94 38.58 108.06 38.48 114.05 45.48 114.16 45.59 107.58 45.59 108 52.59 108 52.59 114 59.59 114 59.59 108 66.59 108 66.59 114 73.59 114 73.59 108 80.59 108 80.59 114 87.59 114 87.59 108 94.59 108 94.59 114 101.59 114 101.59 108 108.59 108 108.59 114 115.59 114 115.59 108 122.59 108 122.59 114 129.59 114 129.59 108 136.59 108 136.59 114 143.59 114 143.59 108 150.58 108 150.49 113.83 157.49 113.94 157.58 107.94 164.58 108.06 164.48 114.05 171.48 114.16 171.59 107.58 171.59 108 178.59 108 178.59 114 185.59 114 185.59 108 192.59 108 192.59 114 199.59 114 199.59 108 206.59 108 206.59 114 213.59 114 213.59 108 220.59 108 220.59 114 227.59 114 227.59 108 234.59 108 234.59 114 241.59 114 241.59 108 248.59 108 248.59 114 255.59 114 255.59 108 262.59 108 262.59 114 269.59 114 269.59 108 276.58 108 276.49 113.83 283.49 113.94 283.58 107.94 290.58 108.06 290.48 114.05 297.48 114.16 297.59 107.58 297.59 108 302.59 108 300.59 101 297.59 101"/></svg>