<svg xmlns="http://www.w3.org/2000/svg" viewBox="0 0 620 620"><defs><style>.cls-1{fill:#333;}.cls-2{fill:#005ca2;}.cls-3{fill:#005ccf;}.cls-4{fill:#4d4d4d;}.cls-5,.cls-8{fill:#ccc;}.cls-6{fill:#e6e6e6;}.cls-7{fill:#b3b3b3;}.cls-7,.cls-8,.cls-9{opacity:0.39;}.cls-9{fill:#999;}.cls-10,.cls-11,.cls-12,.cls-13{font-size:65px;font-family:ElectronicHighwaySign, Electronic Highway Sign;}.cls-10,.cls-12{letter-spacing:0.2em;}.cls-11,.cls-13{letter-spacing:0.2em;}.cls-12,.cls-13{fill:#fbd722;}</style></defs><title>NYC</title><g id="world_trade" data-name="world trade"><path class="cls-1" d="M584.56,456.69c3.08-6.11,7.55-12.5-5.85-15.08-5.63-1.09-10.47-1.71-20.78-1.78l-.61-9.6,2.39-.15c.92-.06,6.56-3.7.69-4.83a28.7,28.7,0,0,0-3.39-.37L556.38,414l.81-.05c.57,0,4.08-2.29.43-3-.34-.06-.84-.13-1.43-.18l-.49-8.46,1.4-.09c.57,0,4.07-2.29.43-3-.46-.08-1.18-.16-2-.22l-.51-8.71,1.27-.09c.46,0,3.31-1.86.35-2.44-.39-.07-1-.14-1.78-.19l-.45-7.8,1.37-.09c.4,0,2.86-1.61.3-2.11a16.23,16.23,0,0,0-1.81-.18l-.67-11.46a1.47,1.47,0,0,0,1.23-1.31,1.53,1.53,0,0,0-1.38-1.32L552.66,337l-.32,26.39a1.46,1.46,0,0,0-1.2,1.3,1.4,1.4,0,0,0,1.1,1.25l-.46,11.5c-1.65.1-3.1.43-3,1.19.12,1.17,2.25,1.34,2.91,1.35l-.3,7.64c-1.78.14-3.28.52-3.19,1.36.13,1.21,2.11,1.49,3.08,1.55l-.34,8.52c-2.12.18-3.87.65-3.77,1.66.16,1.42,2.4,1.8,3.63,1.89l-.33,8.24c-1.86.21-3.3.68-3.2,1.6.13,1.23,1.82,1.68,3.07,1.83l-.42,10.66c-3.49.28-6.38,1.05-6.2,2.69.25,2.34,4,2.93,6,3.05l-.42,9.33c-14.91.61-26.78,4.25-26,11.06.2,1.91.92,2.46,3.23,7.18l19.94-.91Z" transform="translate(-273 -239)"/><path class="cls-2" d="M600.13,458.33l-10.51-2.26L547.18,447l-23.87,8.81-6.94,2.56L511,845.11l48,5.78,43-2.66Zm-53-10.74,51.56,324.59h-84.3Z" transform="translate(-273 -239)"/><polygon class="cls-3" points="274.18 208.59 241.44 533.18 326.57 533.18 274.18 208.59"/><polygon class="cls-3" points="324.21 608.29 242.85 606.42 243.79 539.81 324.32 539.81 324.21 608.29"/></g><g id="chrysler_build" data-name="chrysler build"><path class="cls-4" d="M668.37,572.15a2.84,2.84,0,0,1,2,1.09L667.93,533l-1.61,40.32A2.91,2.91,0,0,1,668.37,572.15Z" transform="translate(-273 -239)"/><path class="cls-5" d="M668.37,584.84a5.12,5.12,0,0,1,3,1h.06v-6.15h0v-.09c0-1.24-1.35-4-3-4s-3,2.73-3,4v.09h0v6.15h.06A5.12,5.12,0,0,1,668.37,584.84Z" transform="translate(-273 -239)"/><path class="cls-5" d="M667.93,595.66a9.12,9.12,0,0,1,4.55,1.31V592.1h0c0-.08,0-.16,0-.24-.2-2.32-1.86-5.32-4.15-5.32s-3.87,3-4.15,5.32a1.92,1.92,0,0,0,0,.24h0v4.46A8.59,8.59,0,0,1,667.93,595.66Z" transform="translate(-273 -239)"/><path class="cls-5" d="M659.48,614.58a15.22,15.22,0,0,1,8.89-3.29,14.73,14.73,0,0,1,8.78,3.39v-7.37h0c0-.12,0-.24,0-.36,0-4.36-3.95-7.9-8.83-7.9s-8.84,3.54-8.84,7.9c0,.12,0,.24,0,.36h0Z" transform="translate(-273 -239)"/><path class="cls-6" d="M703.6,791.37h-7.83V767h-2.61V753.09h-4.35V648.7h-1.74V628.63h0c0-.25,0-.49,0-.74,0-1-2.71-6.26-7-10.58v-7.68h0c0-.2,0-.39,0-.59,0-2.9-2.06-7.29-5.22-10.25v-4.55h0v-.4a11,11,0,0,0-1.74-6.1v-8.39h0v-.27a13.89,13.89,0,0,0-2.8-5.84,2.84,2.84,0,0,0-2-1.09,2.91,2.91,0,0,0-2,1.17,14,14,0,0,0-2.73,5.76v.27h0v8.39a11,11,0,0,0-1.74,6.1v.4h0V598c-3.64,2.91-6.09,7.85-6.09,11,0,.2,0,.39,0,.59h0v8.29c-3.75,4-6.09,8.55-6.09,10,0,.25,0,1.43,0,1.67V648.7h-3.48V753.09h-4.35V767h-3.48v24.36h-7v58.28l7-2.42V850l57.41-22v-.15l-60,17.42V794.85h63.5v31.21l4.35-1.51ZM665.34,579.69h0v-.09c0-1.24,1.35-4,3-4s3,2.73,3,4v.09h0v6.15h-.06a4.91,4.91,0,0,0-5.94,0h-.06Zm-1.16,12.41h0a1.92,1.92,0,0,1,0-.24c.28-2.32,1.85-5.32,4.15-5.32s3.95,3,4.15,5.32c0,.08,0,.16,0,.24h0V597a9.12,9.12,0,0,0-4.55-1.31,8.59,8.59,0,0,0-3.75.9ZM659.48,607c0-4.36,4-7.9,8.84-7.9s8.83,3.54,8.83,7.9c0,.12,0,.24,0,.36h0v7.37a14.73,14.73,0,0,0-8.78-3.39,15.22,15.22,0,0,0-8.89,3.29v-7.27h0C659.49,607.19,659.48,607.07,659.48,607ZM654,628.81c0-4.47,6.23-14.94,13.91-14.94s13.92,9.64,13.92,14.12c0,2.45,0,.12,0,0V648.7H654V629.64C654,629.52,654,628.94,654,628.81Zm36.53,160.82h-47V770.49h47ZM646.19,755.7h42.62v9.57H646.19Z" transform="translate(-273 -239)"/><polygon class="cls-5" points="362.75 555.85 362.75 606.3 422.77 588.88 426.25 587.87 426.25 587.06 426.25 555.85 362.75 555.85"/><rect class="cls-5" x="370.58" y="531.49" width="46.98" height="19.14"/><rect class="cls-5" x="373.19" y="516.7" width="42.63" height="9.57"/><path class="cls-5" d="M654,648.7h27.83V628c0-4.48-6.23-14.12-13.92-14.12S654,624.34,654,628.81c0,.13,0,.71,0,.83V648.7Z" transform="translate(-273 -239)"/><path class="cls-5" d="M681.85,628c0,.12,0,2.45,0,0Z" transform="translate(-273 -239)"/></g><g id="empire_state" data-name="empire state"><path class="cls-1" d="M449.19,497.07v-2.82h.65V492.3h-.65v-1.5h.65v-1.94h-.65v-1.51h.65v-1.94h-.65V484h-6.8v-.73h.39v-1.17h-.39v-.86h-8.56V464.48c0-.8-.64-1.51-1.65-2v-5.6a2.63,2.63,0,0,0-2-2.43l-1.3-31.89-.86,32a2.6,2.6,0,0,0-1.76,2.36v5.6a2.43,2.43,0,0,0-1.64,2v16.73h-6.6v.86h-.39v1.17h.39V484h-9.42v1.44H408v1.94h.65v1.51H408v1.94h.65v1.5H408v1.95h.65v2.82h40.56Z" transform="translate(-273 -239)"/><polygon class="cls-7" points="143.74 327.06 145.53 327.06 145.53 478.83 166.88 478.83 166.88 327.06 169.26 327.06 169.26 284.98 184 284.98 184 258.07 177.1 258.07 176.19 258.07 136.55 258.07 135.63 258.07 128.35 258.07 128.35 284.98 143.74 284.98 143.74 327.06"/><polygon class="cls-5" points="143.74 284.98 128.35 284.98 124.79 284.98 124.79 327.06 143.74 327.06 143.74 284.98"/><polygon class="cls-5" points="169.26 327.06 187.65 327.06 187.65 284.98 184 284.98 169.26 284.98 169.26 327.06"/><rect class="cls-8" x="191.5" y="478.83" width="3.27" height="10.35"/><rect class="cls-8" x="116.92" y="478.83" width="3.27" height="11.04"/><polygon class="cls-8" points="145.53 478.83 145.53 565.24 166.88 576.78 166.88 478.83 145.53 478.83"/><polygon class="cls-9" points="145.53 327.06 143.74 327.06 124.79 327.06 120.19 327.06 120.19 478.83 120.19 489.86 136.26 489.86 136.26 560.8 145.53 567.02 145.53 478.83 145.53 327.06"/><polygon class="cls-9" points="191.5 489.17 191.5 478.83 191.5 327.06 187.65 327.06 169.26 327.06 166.88 327.06 166.88 478.83 166.88 576.78 176.72 580.33 176.72 489.17 191.5 489.17"/><polygon class="cls-7" points="120.19 489.86 116.92 489.86 113 489.86 113 548.38 116.92 548.38 120.19 548.38 136.26 559.92 136.26 489.86 120.19 489.86"/><polygon class="cls-7" points="194.77 489.17 191.5 489.17 176.72 489.17 176.72 579.44 191.5 588.77 194.77 590.66 200 593.43 200 489.17 194.77 489.17"/></g><g id="Layer_6" data-name="Layer 6"><text class="cls-10" transform="translate(313.84 135.89)">N</text><text class="cls-11" transform="translate(366.63 135.89) scale(0.7)">EW</text><text class="cls-10" transform="translate(369.19 227.03)">Y</text><text class="cls-11" transform="translate(421.98 227.03) scale(0.7)">ORK</text><text class="cls-10" transform="translate(415.96 313.27)">C</text><text class="cls-11" transform="translate(468.75 313.27) scale(0.7)">ITY</text></g><g id="Layer_7" data-name="Layer 7"><text class="cls-12" transform="translate(313.84 130.89)">N</text><text class="cls-13" transform="translate(366.63 130.89) scale(0.7)">EW</text><text class="cls-12" transform="translate(369.19 222.03)">Y</text><text class="cls-13" transform="translate(421.98 222.03) scale(0.7)">ORK</text><text class="cls-12" transform="translate(415.96 308.27)">C</text><text class="cls-13" transform="translate(468.75 308.27) scale(0.7)">ITY</text></g><g id="icon_circle" data-name="icon circle"><path d="M583,239c-171.21,0-310,138.79-310,310S411.79,859,583,859,893,720.21,893,549,754.21,239,583,239Zm0,609c-165.13,0-299-133.87-299-299S417.87,250,583,250,882,383.87,882,549,748.13,848,583,848Z" transform="translate(-273 -239)"/></g></svg>