<svg id="Layer_2" data-name="Layer 2" xmlns="http://www.w3.org/2000/svg" viewBox="0 0 706.54 961"><defs><style>.cls-1{fill:none;}.cls-2{fill:#fccc47;}.cls-3{fill:#b3b3b3;}.cls-4{fill:#ffbb1f;}.cls-5{fill:#4d4d4d;}.cls-6,.cls-8{fill:#ecebe2;}.cls-7{fill:#489966;}.cls-8{font-size:107.4px;stroke:#f2f2f2;stroke-width:3px;letter-spacing:0.17em;}.cls-13,.cls-14,.cls-8,.cls-9{stroke-miterlimit:10;font-family:MyriadPro-Regular, Myriad Pro;}.cls-9{font-size:51.43px;fill:#f2f2f2;stroke:#e6e6e6;letter-spacing:0.03em;}.cls-10{letter-spacing:-0.03em;}.cls-11{fill:#333;}.cls-12{fill:#e6e6e6;}.cls-13,.cls-14{font-size:60.56px;stroke:#000;}.cls-13{letter-spacing:0.03em;}.cls-14{letter-spacing:-0.03em;}.cls-15{letter-spacing:-0.05em;}.cls-16{letter-spacing:0.03em;}</style></defs><title>nyc-queens</title><path class="cls-1" d="M654.66,335.56h-9.84v18.95h13.54v13.54H674.6V336.2a8,8,0,0,1-2.71-6v-.09H661A6.39,6.39,0,0,1,654.66,335.56Z" transform="translate(-225.23 -119)"/><path class="cls-1" d="M693.55,330.24a8,8,0,0,1-2.71,6v31.85h10.75a21.74,21.74,0,0,1,21.74,21.74v110.5a27.47,27.47,0,0,1-27.48,27.47h-5v34.56a7.94,7.94,0,0,1,2.23,3.34h125V563H828.9V544H774.76a32.58,32.58,0,0,1-32.48-32.49V387a32.58,32.58,0,0,1,32.48-32.49H828.9V332.86H818.07v-2.71H693.55Z" transform="translate(-225.23 -119)"/><path class="cls-1" d="M644.82,544v16.24h9.87a6.36,6.36,0,0,1,6.28,5.41h11.4a7.94,7.94,0,0,1,2.23-3.34V527.76H658.36V544Z" transform="translate(-225.23 -119)"/><path class="cls-2" d="M661.06,329.15a5.56,5.56,0,0,1-.1,1h10.93v-5.51a7.8,7.8,0,0,1,.48-2.61H661a6,6,0,0,1,.09,1Z" transform="translate(-225.23 -119)"/><path class="cls-2" d="M693.55,330.15H818.07V322h-125a7.8,7.8,0,0,1,.48,2.61Z" transform="translate(-225.23 -119)"/><polygon class="cls-3" points="419.59 425.01 403.35 425.01 403.35 235.51 419.59 235.51 419.59 216.56 419.59 197.61 419.59 32.48 324.85 32.48 324.85 961 419.59 961 419.59 460.2 419.59 441.25 419.59 425.01"/><polygon class="cls-2" points="419.59 235.51 403.35 235.51 403.35 425.01 419.59 425.01 433.13 425.01 433.13 408.76 433.13 249.05 433.13 235.51 419.59 235.51"/><path class="cls-4" d="M654.66,335.56a6.39,6.39,0,0,0,6.3-5.41,5.56,5.56,0,0,0,.1-1V323a6,6,0,0,0-.09-1,6.37,6.37,0,0,0-6.28-5.42h-9.87v18.95Z" transform="translate(-225.23 -119)"/><path class="cls-2" d="M672.37,565.66H661a6.25,6.25,0,0,1,.09,1v6.16a5.36,5.36,0,0,1-.1,1h10.93v-5.5A7.9,7.9,0,0,1,672.37,565.66Z" transform="translate(-225.23 -119)"/><path class="cls-2" d="M693.07,565.66a7.9,7.9,0,0,1,.48,2.62v5.5H818.07v-8.12Z" transform="translate(-225.23 -119)"/><path class="cls-4" d="M661.06,566.63a6.25,6.25,0,0,0-.09-1,6.36,6.36,0,0,0-6.28-5.41h-9.87v19h9.84a6.39,6.39,0,0,0,6.3-5.42,5.36,5.36,0,0,0,.1-1Z" transform="translate(-225.23 -119)"/><path class="cls-4" d="M693.07,565.66a7.94,7.94,0,0,0-2.23-3.34V527.76h5a27.47,27.47,0,0,0,27.48-27.47V389.79a21.74,21.74,0,0,0-21.74-21.74H690.84V336.2a8,8,0,0,0,2.71-6v-5.6a7.8,7.8,0,0,0-.48-2.61,8,8,0,0,0-7.55-5.42h-5.6a8,8,0,0,0-7.55,5.42,7.8,7.8,0,0,0-.48,2.61v5.6a8,8,0,0,0,2.71,6v31.85H658.36V527.76H674.6v34.56a8.26,8.26,0,0,0-2.71,6v5.59a8.06,8.06,0,0,0,8,8h5.6a8,8,0,0,0,8-8v-5.59A7.9,7.9,0,0,0,693.07,565.66Z" transform="translate(-225.23 -119)"/><path class="cls-4" d="M899.28,354.51H845.14V332.86h9.18a4.36,4.36,0,0,0,4.36-4.36v-4.85a4.33,4.33,0,0,0-4.33-4.33H818.07v13.54H828.9v21.65H774.76A32.58,32.58,0,0,0,742.28,387V511.52A32.58,32.58,0,0,0,774.76,544H828.9V563H818.07v13.54h36.25a4.36,4.36,0,0,0,4.36-4.36v-4.85a4.33,4.33,0,0,0-4.33-4.33h-9.21V544h54.14a32.58,32.58,0,0,0,32.49-32.49V387A32.58,32.58,0,0,0,899.28,354.51Zm21.66,146.18a32.58,32.58,0,0,1-32.48,32.49H785.59a32.58,32.58,0,0,1-32.49-32.49V397.83a32.58,32.58,0,0,1,32.49-32.49H888.46a32.58,32.58,0,0,1,32.48,32.49Z" transform="translate(-225.23 -119)"/><rect class="cls-5" x="527.87" y="246.34" width="167.84" height="167.84" rx="32.48" ry="32.48"/><path class="cls-6" d="M225.23,673.94V803.88H693.55V673.94ZM683.31,795.76H235.47V682.06H683.31Z" transform="translate(-225.23 -119)"/><rect class="cls-7" x="10.24" y="563.06" width="447.85" height="113.7"/><text class="cls-8" transform="translate(27.9 652.96) scale(0.56 1)">QUEENS </text><text class="cls-9" transform="translate(324.85 611.47)">B<tspan class="cls-10" x="29.47" y="0">L</tspan><tspan x="52.31" y="0">VD</tspan></text><path class="cls-6" d="M435.09,119V248.94H903.41V119ZM893.17,240.82H445.32V127.12H893.17Z" transform="translate(-225.23 -119)"/><rect class="cls-11" x="220.09" y="8.12" width="447.85" height="113.7"/><rect class="cls-12" x="278.83" y="32.48" width="292.36" height="59.55"/><polyline class="cls-12" points="551.43 14.54 625.26 64.75 552.63 113.98"/><text class="cls-13" transform="translate(310.91 83.18) scale(0.85 1)">ONE</text><text class="cls-14" transform="translate(470.62 83.18) scale(0.85 1)">W<tspan class="cls-15" x="49.66" y="0">A</tspan><tspan class="cls-16" x="83.82" y="0">Y</tspan></text></svg>