<svg id="Layer_3" data-name="Layer 3" xmlns="http://www.w3.org/2000/svg" viewBox="0 0 385 484"><defs><style>.cls-1{fill:#d5a97a;}.cls-2{fill:#e0b87d;}.cls-3{fill:#e0a759;}.cls-4{fill:#c1492d;}.cls-5{fill:#e6e6e6;}</style></defs><title>fine-arts</title><path class="cls-1" d="M481.8,538.52v16.79a45.24,45.24,0,0,1,6.47-17.86H481.8Z" transform="translate(-408 -334)"/><polygon class="cls-1" points="219.77 138.33 238.29 138.33 238.29 149 232.96 149 232.96 158.61 303.2 158.61 303.2 163.95 232.96 163.95 232.96 171.42 303.87 171.42 303.87 149 297.86 149 297.86 138.33 315.49 138.33 315.49 104.16 219.77 104.16 219.77 138.33"/><polygon class="cls-1" points="194.72 208.79 193.83 208.79 193.83 204.83 193.83 204.52 192.06 204.52 192.06 208.79 189.06 208.79 189.06 416.53 192.06 416.53 192.94 416.53 192.94 421.35 193.83 421.35 193.83 416.53 194.72 416.53 197.72 416.53 197.72 208.79 194.72 208.79"/><polygon class="cls-1" points="73.8 98.83 161.82 98.83 161.82 94.56 224.06 94.56 224.06 98.83 311.2 98.83 311.2 94.56 361.11 94.56 361.11 85 23.89 85 23.89 94.56 73.8 94.56 73.8 98.83"/><polygon class="cls-1" points="40.57 207.72 40.57 416.53 43.57 416.53 43.57 421.35 45.35 421.35 45.35 416.53 48.35 416.53 48.35 207.72 45.35 207.72 45.35 203.45 43.57 203.45 43.57 207.72 40.57 207.72"/><rect class="cls-1" x="81.95" y="163.95" width="70.09" height="7.47"/><path class="cls-1" d="M718.31,542.79v-4.27h-4.92a45.32,45.32,0,0,1,5.81,16.79V542.79Z" transform="translate(-408 -334)"/><polygon class="cls-1" points="341.43 208.79 341.43 204.83 341.43 204.52 340.54 204.52 340.54 208.79 337.54 208.79 337.54 416.53 340.54 416.53 340.54 421.35 341.43 421.35 341.43 416.53 342.32 416.53 345.32 416.53 345.32 208.79 342.32 208.79 341.43 208.79"/><path class="cls-1" d="M566.27,542.79h-.89v-4.27H560V510.76H490v21.91c7.74-12,20-14.39,33.76-14.39h0c23.39,0,42.35,22.35,42.35,49.92V750.53h.21Z" transform="translate(-408 -334)"/><polygon class="cls-1" points="152.04 149 146.71 149 146.71 138.33 166.12 138.33 166.12 104.16 69.51 104.16 69.51 137.26 88.03 137.26 88.03 147.94 81.95 147.94 81.95 158.61 152.04 158.61 152.04 149"/><path class="cls-1" d="M641,510.76v27.76h-6.23v212h.21V568.2c0-27.57,19-49.92,42.35-49.92h0c14.29,0,26.91,2.06,34.58,14.84V510.76Z" transform="translate(-408 -334)"/><polygon class="cls-2" points="43.57 421.35 16 421.35 15.12 421.35 1.78 421.35 1.78 484 16.89 484 73.36 484 89.8 484 89.8 421.35 73.8 421.35 45.35 421.35 43.57 421.35"/><polygon class="cls-2" points="194.72 421.35 193.83 421.35 192.94 421.35 192.06 421.35 158.27 421.35 157.38 421.35 146.71 421.35 146.71 484 158.06 484 226.94 484 238.29 484 238.29 421.35 227.62 421.35 226.73 421.35 194.72 421.35"/><polygon class="cls-2" points="342.32 421.35 341.43 421.35 340.54 421.35 311.2 421.35 310.31 421.35 295.2 421.35 295.2 484 311.64 484 368.11 484 382.33 484 382.33 421.35 370.77 421.35 369.88 421.35 342.32 421.35"/><polygon class="cls-2" points="81.8 176.76 81.8 171.42 81.95 171.42 81.95 163.95 81.8 163.95 81.8 158.61 81.95 158.61 81.95 147.94 88.03 147.94 88.03 137.26 69.51 137.26 69.51 104.16 69.51 101.61 73.8 101.61 73.8 98.83 73.8 94.56 23.89 94.56 16.89 94.56 11.56 94.56 11.56 101.61 15.85 101.61 15.85 137.26 0 137.26 0 147.94 6.07 147.94 6.07 203.45 15.12 203.45 16 203.45 43.57 203.45 45.35 203.45 73.8 203.45 80.27 203.45 81.95 203.45 81.95 200.95 81.95 198.67 81.95 176.76 81.8 176.76"/><polygon class="cls-2" points="232.96 163.95 232.96 158.61 232.96 149 238.29 149 238.29 138.33 219.77 138.33 219.77 104.16 219.77 101.61 224.06 101.61 224.06 98.83 224.06 94.56 161.82 94.56 161.82 98.83 161.82 101.61 166.12 101.61 166.12 104.16 166.12 138.33 146.71 138.33 146.71 149 152.04 149 152.04 158.61 152.04 163.95 152.04 171.42 152.04 176.76 152.04 200.01 152.04 204.52 157.38 204.52 158.27 204.52 192.06 204.52 193.83 204.52 194.72 204.52 226.73 204.52 232.96 204.52 232.96 200.91 232.96 176.76 232.96 171.42 232.96 163.95"/><polygon class="cls-3" points="81.95 171.42 81.8 171.42 81.8 176.76 81.95 176.76 152.04 176.76 152.04 171.42 81.95 171.42"/><rect class="cls-3" x="232.96" y="171.42" width="70.92" height="5.34"/><polygon class="cls-3" points="224.06 101.61 219.77 101.61 219.77 104.16 315.49 104.16 315.49 101.61 311.2 101.61 311.2 98.83 224.06 98.83 224.06 101.61"/><polygon class="cls-3" points="166.12 101.61 161.82 101.61 161.82 98.83 73.8 98.83 73.8 101.61 69.51 101.61 69.51 104.16 166.12 104.16 166.12 101.61"/><polygon class="cls-2" points="311.2 204.52 340.54 204.52 341.43 204.52 342.32 204.52 369.88 204.52 370.77 204.52 378.99 204.52 378.99 149 385 149 385 138.33 369.15 138.33 369.15 101.61 373.44 101.61 373.44 94.56 368.11 94.56 361.11 94.56 311.2 94.56 311.2 98.83 311.2 101.61 315.49 101.61 315.49 104.16 315.49 138.33 297.86 138.33 297.86 149 303.87 149 303.87 171.42 303.87 176.76 303.87 199.12 303.87 202.14 303.87 204.52 305.39 204.52 310.31 204.52 311.2 204.52"/><polygon class="cls-3" points="152.04 158.61 81.95 158.61 81.8 158.61 81.8 163.95 81.95 163.95 152.04 163.95 152.04 158.61"/><rect class="cls-3" x="232.96" y="158.61" width="70.24" height="5.34"/><rect class="cls-4" x="16" y="207.72" width="24.56" height="208.81"/><polygon class="cls-4" points="48.35 207.72 48.35 416.53 73.8 416.53 73.8 227.04 73.8 221.31 73.8 207.72 48.35 207.72"/><rect class="cls-4" x="158.27" y="208.79" width="30.79" height="207.74"/><polygon class="cls-4" points="197.72 416.53 226.73 416.53 226.73 212.91 226.73 208.79 197.72 208.79 197.72 416.53"/><polygon class="cls-4" points="337.54 208.79 311.2 208.79 311.2 221.31 311.2 227.04 311.2 416.53 337.54 416.53 337.54 208.79"/><rect class="cls-4" x="345.32" y="208.79" width="24.56" height="207.74"/><polygon class="cls-3" points="43.57 207.72 43.57 203.45 16 203.45 15.12 203.45 15.12 207.72 16 207.72 40.57 207.72 43.57 207.72"/><polygon class="cls-3" points="48.35 207.72 73.8 207.72 73.8 204.52 73.8 203.45 45.35 203.45 45.35 207.72 48.35 207.72"/><polygon class="cls-3" points="43.57 421.35 43.57 416.53 40.57 416.53 16 416.53 15.12 416.53 15.12 421.35 16 421.35 43.57 421.35"/><polygon class="cls-3" points="45.35 416.53 45.35 421.35 73.8 421.35 73.8 416.53 48.35 416.53 45.35 416.53"/><polygon class="cls-3" points="197.72 416.53 194.72 416.53 193.83 416.53 193.83 421.35 194.72 421.35 226.73 421.35 227.62 421.35 227.62 416.53 226.94 416.53 226.73 416.53 197.72 416.53"/><polygon class="cls-3" points="192.06 421.35 192.94 421.35 192.94 416.53 192.06 416.53 189.06 416.53 158.27 416.53 158.06 416.53 157.38 416.53 157.38 421.35 158.27 421.35 192.06 421.35"/><polygon class="cls-3" points="193.83 204.52 193.83 204.83 193.83 208.79 194.72 208.79 197.72 208.79 226.73 208.79 226.73 204.83 226.73 204.52 194.72 204.52 193.83 204.52"/><polygon class="cls-3" points="192.06 208.79 192.06 204.52 158.27 204.52 157.38 204.52 157.38 208.79 158.27 208.79 189.06 208.79 192.06 208.79"/><polygon class="cls-3" points="340.54 421.35 340.54 416.53 337.54 416.53 311.2 416.53 310.31 416.53 310.31 421.35 311.2 421.35 340.54 421.35"/><polygon class="cls-3" points="342.32 416.53 341.43 416.53 341.43 421.35 342.32 421.35 369.88 421.35 370.77 421.35 370.77 416.53 369.88 416.53 345.32 416.53 342.32 416.53"/><polygon class="cls-3" points="340.54 204.52 311.2 204.52 310.31 204.52 310.31 208.79 311.2 208.79 337.54 208.79 340.54 208.79 340.54 204.52"/><polygon class="cls-3" points="342.32 204.52 341.43 204.52 341.43 204.83 341.43 208.79 342.32 208.79 345.32 208.79 369.88 208.79 370.77 208.79 370.77 204.52 369.88 204.52 342.32 204.52"/><path class="cls-5" d="M774,419c0-35-78-85-173-85s-173,46-173,85H774Z" transform="translate(-408 -334)"/></svg>