<svg xmlns="http://www.w3.org/2000/svg" viewBox="0 0 551 575.27"><defs><style>.cls-1{fill:#a2a199;}.cls-2{fill:#f2f2f2;}.cls-3{fill:#fff;}.cls-4{fill:#e5c880;}.cls-5{font-size:35.21px;fill:#42210b;font-family:OpusChordsSansCondensed, Opus Chords Sans Condensed;}.cls-5,.cls-6{stroke:#754c24;stroke-miterlimit:10;}.cls-6,.cls-7{fill:none;}.cls-6{stroke-width:5px;}.cls-8{fill:#aa272d;}.cls-9{fill:#603813;}</style></defs><title>fisherman-wharf</title><g id="Layer_3" data-name="Layer 3"><path class="cls-1" d="M603.85,312.4c-131.06,0-237.3,106.24-237.3,237.3S472.79,787,603.85,787s237.3-106.25,237.3-237.3S734.9,312.4,603.85,312.4Zm0,452.23c-118.71,0-214.93-96.23-214.93-214.93s96.22-214.94,214.93-214.94S818.78,431,818.78,549.7,722.55,764.63,603.85,764.63Z" transform="translate(-327 -259.37)"/><path class="cls-2" d="M603.85,334.76c-118.71,0-214.93,96.23-214.93,214.94s96.22,214.93,214.93,214.93S818.78,668.4,818.78,549.7,722.55,334.76,603.85,334.76Zm0,418.92c-112.66,0-204-91.33-204-204s91.32-204,204-204,204,91.32,204,204S716.5,753.68,603.85,753.68Z" transform="translate(-327 -259.37)"/><path class="cls-1" d="M603.85,345.72c-112.66,0-204,91.32-204,204s91.32,204,204,204,204-91.33,204-204S716.5,345.72,603.85,345.72Zm0,394.14c-105,0-190.17-85.14-190.17-190.16s85.14-190.17,190.17-190.17S794,444.67,794,549.7,708.87,739.86,603.85,739.86Z" transform="translate(-327 -259.37)"/><circle class="cls-3" cx="276.85" cy="290.33" r="190.16"/><path class="cls-1" d="M600.25,399.59h0c-6.45,0-11.68-4.38-11.68-9.79l3.59-54.93-8.09-65.72c0-5.4,9.73-9.78,16.18-9.78h0c6.46,0,14.38,4.38,14.38,9.78l-8.09,65.72,5.4,54.93C611.94,395.21,606.71,399.59,600.25,399.59Z" transform="translate(-327 -259.37)"/><path class="cls-1" d="M600.25,694.41h0c-6.45,0-11.68,4.38-11.68,9.79l3.59,54.93-8.09,65.72c0,5.4,9.73,9.78,16.18,9.78h0c6.46,0,14.38-4.38,14.38-9.78l-8.09-65.72,5.4-54.93C611.94,698.79,606.71,694.41,600.25,694.41Z" transform="translate(-327 -259.37)"/><path class="cls-1" d="M701.42,651.39h0c-4.56,4.57-4.92,11.61-.79,15.74l44.5,39.41,44.48,55.92c4.13,4.13,14.35.6,18.91-4h0c4.57-4.56,6.83-13.51,2.7-17.64L755.3,696.38,717.16,650.6C713,646.47,706,646.83,701.42,651.39Z" transform="translate(-327 -259.37)"/><path class="cls-1" d="M691.53,437h0c-4.56-4.56-4.91-11.6-.79-15.73l44.51-39.42L779.72,326c4.13-4.12,14.35-.59,18.92,4h0c4.56,4.56,6.82,13.52,2.69,17.64l-55.91,44.48-38.15,45.77C703.14,442,696.1,441.6,691.53,437Z" transform="translate(-327 -259.37)"/><path class="cls-1" d="M505,443.33h0c4.56-4.57,4.91-11.61.79-15.74l-44.51-39.42-44.47-55.92c-4.13-4.12-14.35-.59-18.92,4h0c-4.56,4.57-6.82,13.52-2.69,17.64l55.91,44.48,38.15,45.78C493.4,448.24,500.44,447.89,505,443.33Z" transform="translate(-327 -259.37)"/><path class="cls-1" d="M489.72,640.61h0c4.57,4.56,4.92,11.6.8,15.73L446,695.76l-44.48,55.92c-4.12,4.12-14.34.59-18.91-4h0c-4.56-4.56-6.82-13.52-2.7-17.64l55.92-44.48L474,639.82C478.12,635.69,485.16,636,489.72,640.61Z" transform="translate(-327 -259.37)"/><path class="cls-1" d="M467.22,553.29h0c0,6.46-4.38,11.69-9.78,11.69l-54.94-3.6-65.72,8.09c-5.4,0-9.78-9.72-9.78-16.18h0c0-6.45,4.38-14.38,9.78-14.38L402.5,547l54.94-5.39C462.84,541.61,467.22,546.84,467.22,553.29Z" transform="translate(-327 -259.37)"/><path class="cls-1" d="M737.78,534.42h0c0,6.45,4.38,11.68,9.78,11.68l54.94-3.59,65.72,8.09c5.4,0,9.78-9.73,9.78-16.18h0c0-6.46-4.38-14.39-9.78-14.39l-65.72,8.09-54.94-5.39C742.16,522.73,737.78,528,737.78,534.42Z" transform="translate(-327 -259.37)"/></g><g id="Layer_4" data-name="Layer 4"><path class="cls-2" d="M603.4,388.68C519.25,388.68,451,461,451,550.15S519.25,711.61,603.4,711.61s152.36-72.29,152.36-161.46S687.54,388.68,603.4,388.68Zm0,305.75c-75.19,0-136.14-64.6-136.14-144.28s61-144.28,136.14-144.28,136.14,64.59,136.14,144.28S678.59,694.43,603.4,694.43Z" transform="translate(-327 -259.37)"/><ellipse class="cls-4" cx="276.4" cy="290.78" rx="136.14" ry="144.28"/><text class="cls-5" transform="translate(179.23 276.12) rotate(-73.36) scale(1.02 1)">F</text><text class="cls-5" transform="matrix(0.4, -0.94, 0.92, 0.39, 184.03, 260.84)">I</text><text class="cls-5" transform="matrix(0.51, -0.88, 0.86, 0.5, 186.41, 254.36)">S</text><text class="cls-5" transform="matrix(0.66, -0.78, 0.76, 0.65, 194.91, 239.42)">H</text><text class="cls-5" transform="matrix(0.79, -0.65, 0.64, 0.77, 207.02, 225.13)">E</text><text class="cls-5" transform="translate(220.19 214.04) rotate(-29.61) scale(1.02 1)">R</text><text class="cls-5" transform="matrix(0.97, -0.32, 0.31, 0.95, 236.27, 204.6)">M</text><text class="cls-5" transform="matrix(1.01, -0.13, 0.12, 0.99, 256.87, 197.94)">A</text><text class="cls-5" transform="matrix(1.02, 0.05, -0.05, 1, 273.9, 195.63)">N</text><text class="cls-5" transform="translate(292.57 196.61) rotate(13.39) scale(1.02 1)">S</text><text class="cls-5" transform="translate(309.51 200.92) rotate(20.62) scale(1.02 1)"> </text><text class="cls-5" transform="translate(316.54 203.55) rotate(25.05) scale(1.02 1)"> </text><text class="cls-5" transform="translate(323.36 206.71) rotate(29.51) scale(1.02 1)"> </text><text class="cls-5" transform="translate(329.93 209.5) rotate(39.04) scale(1.02 1)">W</text><text class="cls-5" transform="translate(348.16 224.49) rotate(50.81) scale(1.02 1)">A</text><text class="cls-5" transform="translate(359.14 237.7) rotate(61.39) scale(1.02 1)">R</text><text class="cls-5" transform="matrix(0.32, 0.97, -0.95, 0.31, 368.06, 254.14)">F</text><text class="cls-5" transform="translate(372.86 269.33) rotate(78.57) scale(1.02 1)"> </text><text class="cls-5" transform="matrix(0.12, 1.01, -0.99, 0.12, 374.37, 276.69)"> </text><text class="cls-5" transform="translate(375.3 284.16) rotate(87.43) scale(1.02 1)"> </text><text class="cls-5" transform="translate(375.65 291.67) rotate(91.81) scale(1.02 1)"> </text><text class="cls-5" transform="translate(375.43 299.22) rotate(96.18) scale(1.02 1)"> </text><text class="cls-5" transform="translate(375.17 306.42) rotate(104.09) scale(1.02 1)">O</text><text class="cls-5" transform="matrix(-0.42, 0.93, -0.91, -0.41, 370.14, 325.99)">F</text><text class="cls-5" transform="matrix(-0.53, 0.88, -0.86, -0.51, 363.37, 340.45)"> </text><text class="cls-5" transform="matrix(-0.59, 0.83, -0.82, -0.58, 359.5, 346.94)"> </text><text class="cls-5" transform="translate(355.17 353.09) rotate(129.54) scale(1.02 1)"> </text><text class="cls-5" transform="matrix(-0.71, 0.74, -0.72, -0.69, 350.39, 358.91)"> </text><text class="cls-5" transform="translate(345.59 364.41) rotate(140.73) scale(1.02 1)">S</text><text class="cls-5" transform="matrix(-0.89, 0.51, -0.5, -0.87, 332.3, 375.4)">A</text><text class="cls-5" transform="matrix(-0.96, 0.34, -0.33, -0.94, 317.41, 384.07)">N</text><text class="cls-5" transform="translate(299.45 390.08) rotate(167.94) scale(1.02 1)"> </text><text class="cls-5" transform="translate(292.07 391.68) rotate(172.25) scale(1.02 1)"> </text><text class="cls-5" transform="matrix(-1.02, 0.06, -0.06, -1, 284.62, 392.71)"> </text><text class="cls-5" transform="translate(277.33 393.44) rotate(-176.78) scale(1.02 1)">F</text><text class="cls-5" transform="translate(261.66 392.78) rotate(-166.89) scale(1.02 1)">R</text><text class="cls-5" transform="matrix(-0.94, -0.41, 0.4, -0.92, 243.48, 388.58)">A</text><text class="cls-5" transform="translate(227.64 381.85) rotate(-145.77) scale(1.02 1)">N</text><text class="cls-5" transform="matrix(-0.72, -0.73, 0.71, -0.7, 212.2, 371.48)">C</text><text class="cls-5" transform="matrix(-0.61, -0.82, 0.8, -0.6, 199.15, 357.81)">I</text><text class="cls-5" transform="translate(194.7 352.51) rotate(-119.85) scale(1.02 1)">S</text><text class="cls-5" transform="translate(186 337.69) rotate(-109.14) scale(1.02 1)">C</text><text class="cls-5" transform="matrix(-0.14, -1.01, 0.99, -0.13, 179.73, 320.18)">O</text><circle class="cls-6" cx="279.1" cy="294.38" r="85.39"/></g><g id="Layer_5" data-name="Layer 5"><path class="cls-7" d="M632,519.11a10.9,10.9,0,0,1,1.55-2,37.14,37.14,0,0,1-5.55-9.37,15.18,15.18,0,0,0-3.35-4.77,15.11,15.11,0,0,0,2.3,8.17,30.76,30.76,0,0,1,4.3,8.46l.53-.11C631.82,519.37,631.89,519.24,632,519.11Z" transform="translate(-327 -259.37)"/><path class="cls-7" d="M578.7,520.56c.08.13.15.26.23.38l.54.09a30.56,30.56,0,0,1,4-8.62,15.09,15.09,0,0,0,2-8.25,15.19,15.19,0,0,0-3.17,4.89,37,37,0,0,1-5.19,9.58A11,11,0,0,1,578.7,520.56Z" transform="translate(-327 -259.37)"/><path class="cls-8" d="M663.74,540.64c-7.32-1.54-13.59-1.88-16.26-1a10.69,10.69,0,0,0-5.68,2.28,10.12,10.12,0,0,0-.83.74,26.81,26.81,0,0,0-3.76-3.31c1.53-3.06,2.36-5.74,2.32-7.52a11.56,11.56,0,0,0-.67-6.52,16,16,0,0,0-.66-1.51c1.46-1.28,2.18-2.68,1.7-3.56a2.09,2.09,0,0,0-2-.8,6.58,6.58,0,0,0,.12-1.61c.48-2.34-.53-7.14-2.79-12.39-3-7-14.59-8.34-16.61-7.69-1.19.38,1.27,1.39,4.09,3.61-1.86,3.23-4.19,9.9-1.22,14.2,2.83,4.1,5.94,7.06,8,7.77a3.48,3.48,0,0,0,.63.37,2.12,2.12,0,0,0-.41,2.14c.34.63,1.23.88,2.38.78a13.07,13.07,0,0,0,.52,1.73,13.36,13.36,0,0,0,1.42,2.83,29.54,29.54,0,0,0-4.4,4,66.26,66.26,0,0,0-14.4-4.15c-3.24-.57-14.63-.38-17.48,0a55.67,55.67,0,0,0-17.93,5.43,27.75,27.75,0,0,0-3.76-3.29,13.59,13.59,0,0,0,1.42-2.83,15.06,15.06,0,0,0,.65-2.3c1.54.24,2.75,0,3.14-.79a2.11,2.11,0,0,0-.49-2.12,5.86,5.86,0,0,0,.61-.4c2-.79,5-3.86,7.65-8.07,2.8-4.41.22-11-1.76-14.14,2.74-2.33,5.15-3.43,3.94-3.77-2-.57-13.56,1.23-16.3,8.33-2,5.33-2.88,10.16-2.31,12.48a6.23,6.23,0,0,0,.18,1.6,2.1,2.1,0,0,0-1.94.88c-.41.81.17,2,1.36,3.09a16.15,16.15,0,0,0-1,2.17,11.56,11.56,0,0,0-.67,6.52c0,1.75.76,4.37,2.24,7.37a25.56,25.56,0,0,0-2.59,2.62,8.86,8.86,0,0,0-1.77-1.82,10.72,10.72,0,0,0-5.67-2.27c-2.66-.83-8.93-.49-16.26,1-9.76,2.06-14.45,13-14.48,15.16s4.62-5.35,14.37-7.41a64.71,64.71,0,0,0,13.71-4.3,9,9,0,0,0,1.8,1.87,10.88,10.88,0,0,0,5.4,2.25,16.09,16.09,0,0,0-.87,2.56,8.7,8.7,0,0,0-3.37-.18,10.88,10.88,0,0,0-5.77,2.46c-2.52,1.32-6.68,6.07-10.65,12.42-5.29,8.47-3.4,19.47-1.75,21s2.4-7,7.7-15.43a61.39,61.39,0,0,0,6.32-12.91,9.4,9.4,0,0,0,2.72,0,11.63,11.63,0,0,0,4.67-1.63,18.23,18.23,0,0,0,5.47,9.59,8.16,8.16,0,0,0-1.29.74,8.41,8.41,0,0,0-3,3.74c-1.24,1.79-2.33,6.46-2.7,12.14-.49,7.55,7.39,14.43,9.09,14.86s-3.41-5.76-2.92-13.32a44.75,44.75,0,0,0-.46-10.88,7.23,7.23,0,0,0,1.89-1,8.63,8.63,0,0,0,2.92-3.42c7.3,5.21,18.31,8.52,30.61,8.52,12.13,0,23-3.22,30.29-8.29a8.89,8.89,0,0,0,2.83,3.23,7.34,7.34,0,0,0,1.88,1,45.31,45.31,0,0,0-.45,10.94c.48,7.6-5.5,13-3.8,12.57s10.45-6.53,10-14.13c-.36-5.7-1.45-10.39-2.69-12.2a8.38,8.38,0,0,0-3.05-3.75,7.84,7.84,0,0,0-1-.61,19.16,19.16,0,0,0,5.23-8.14,12.17,12.17,0,0,0,3.54.71,10.25,10.25,0,0,0,2.85-.22,57.64,57.64,0,0,0,6.93,12.59c5.73,8.18,6.43,17.43,8.12,15.76s3.73-13.63-2-21.81c-4.3-6.15-8.77-10.65-11.44-11.81a11.18,11.18,0,0,0-6.11-2.08,11.78,11.78,0,0,0-1.46,0,15.28,15.28,0,0,0-1-3.38,11.48,11.48,0,0,0,3.89-2,9,9,0,0,0,1.8-1.87,64.9,64.9,0,0,0,13.71,4.3c9.76,2.05,14.4,9.56,14.37,7.41S673.5,542.68,663.74,540.64Zm-32.52-21a30.76,30.76,0,0,0-4.3-8.46,15.11,15.11,0,0,1-2.3-8.17,15.18,15.18,0,0,1,3.35,4.77,37.14,37.14,0,0,0,5.55,9.37,10.9,10.9,0,0,0-1.55,2c-.08.13-.15.26-.22.39Zm-49-10.56a15.19,15.19,0,0,1,3.17-4.89,15.09,15.09,0,0,1-2,8.25,30.56,30.56,0,0,0-4,8.62l-.54-.09c-.08-.12-.15-.25-.23-.38a11,11,0,0,0-1.63-1.93A37,37,0,0,0,582.26,509.05Z" transform="translate(-327 -259.37)"/><circle class="cls-9" cx="166.5" cy="286.13" r="4.5"/><circle class="cls-9" cx="385.5" cy="289.13" r="4.5"/></g></svg>