<svg id="Layer_3" data-name="Layer 3" xmlns="http://www.w3.org/2000/svg" viewBox="0 0 244 358"><defs><style>.cls-1{fill:#ef711d;}.cls-2{fill:#ef7e1d;}.cls-3{fill:#333;}.cls-4{fill:#e6e6e6;}.cls-5{fill:#fcee21;}.cls-6{fill:#393434;}</style></defs><title>trolley-SF</title><path class="cls-1" d="M521,712v-4l-46-2v-5l46,2V690l-46-2v-6l46,2V599l-46-1v-5l46,1v-6l-46-1v-3l46,1v-6l-46-1v-5l46,1V395H473V710ZM475,464V407l43,0v45h2v12h-2V565l-43,0Z" transform="translate(-408 -366)"/><path class="cls-1" d="M607,574l44-1v5l-44,1v6l44-1v3l-44,1v6l44-1v5l-44,1v85l44-3v6l-44,3v13l44-3v5l-44,3v4l42-3v.2l3-.2V396l-45-1Zm44-9-41,0V464h41ZM651,407v45H610V407Z" transform="translate(-408 -366)"/><path class="cls-2" d="M473,710V395H408V708l6,.18V708ZM417,407l46,1V683l-46-2Zm0,282,46,2v10l-46-2Z" transform="translate(-408 -366)"/><path class="cls-3" d="M463,407H417V681l46,2Zm-43,5.06,16,.39V677.76l-16-.82Zm21.95,266L442,412.59l17.05.41L460,679Z" transform="translate(-408 -366)"/><polygon class="cls-4" points="34 46 33.95 312.07 52 313 51.05 46 34 46"/><polygon class="cls-4" points="28 46 12 46.06 12 310.94 28 311.76 28 46"/><rect class="cls-2" x="113" y="324" width="86" height="13"/><polygon class="cls-2" points="113 346 198.69 346 199 345.98 199 342 113 342 113 346"/><path class="cls-2" d="M521,684h86V599H521Zm45.5-58a8.5,8.5,0,1,1-8.5,8.5A8.51,8.51,0,0,1,566.5,626Zm0,22A12.5,12.5,0,1,1,554,660.5,12.5,12.5,0,0,1,566.5,648Z" transform="translate(-408 -366)"/><rect class="cls-2" x="113" y="222" width="86" height="6"/><rect class="cls-2" x="113" y="213" width="86" height="6"/><path class="cls-2" d="M607,574V395H521V574Zm-82-9V464h79V565Zm79-158v45H525V407Z" transform="translate(-408 -366)"/><path class="cls-3" d="M518,464H475V565l43,0Zm-3,97-36.81.36L478,468h37Z" transform="translate(-408 -366)"/><polygon class="cls-3" points="110 40.98 67 41 67 86 110 86 110 40.98"/><polygon class="cls-4" points="70.19 195.36 107 195 107 102 70 102 70.19 195.36"/><polygon class="cls-3" points="243 86 243 41.03 202 41 202 86 243 86"/><path class="cls-3" d="M610,565l41,0V464H610Zm38-97-.09,93.36L613,561V468Z" transform="translate(-408 -366)"/><polygon class="cls-4" points="239.91 195.36 240 102 205 102 205 195 239.91 195.36"/><rect class="cls-3" x="117" y="41" width="79" height="45"/><path class="cls-3" d="M525,464V565h79V464Zm76,97H528V468h73Z" transform="translate(-408 -366)"/><rect class="cls-4" x="120" y="102" width="73" height="93"/><polygon class="cls-1" points="112 98 112 86 110 86 67 86 67 98 110 98 112 98"/><polygon class="cls-3" points="67 207 67 212 113 213 199 213 243 212 243 207 199 208 113 208 67 207"/><polygon class="cls-3" points="67 227 67 232 113 233 199 233 243 232 243 227 199 228 113 228 67 227"/><polygon class="cls-3" points="67 218 67 221 113 222 199 222 243 221 243 218 199 219 113 219 67 218"/><polygon class="cls-3" points="67 316 67 322 113 324 199 324 243 321 243 315 199 318 113 318 67 316"/><circle class="cls-3" cx="158.5" cy="268.5" r="8.5"/><path class="cls-3" d="M566.5,673A12.5,12.5,0,1,0,554,660.5,12.5,12.5,0,0,0,566.5,673Zm0-24A11.5,11.5,0,1,1,555,660.5,11.5,11.5,0,0,1,566.5,649Z" transform="translate(-408 -366)"/><path class="cls-4" d="M566.5,672A11.5,11.5,0,1,0,555,660.5,11.5,11.5,0,0,0,566.5,672Zm0-20a8.5,8.5,0,1,1-8.5,8.5A8.51,8.51,0,0,1,566.5,652Z" transform="translate(-408 -366)"/><circle class="cls-5" cx="158.5" cy="294.5" r="8.5"/><path class="cls-6" d="M607,367l-134-1c-45,6-65,17.92-65,30l65-1H607l45,1v-4.14C648,379,631,371,607,367Z" transform="translate(-408 -366)"/><polygon class="cls-6" points="55 325 9 323 9 333 55 335 55 325"/><polygon class="cls-3" points="67 335 67 340 113 342 199 342 243 339 243 334 199 337 113 337 67 335"/><polygon class="cls-3" points="199 345.98 198.69 346 113 346 65 344 6 342 6 342.19 6 355 65 357 113 358 198.68 358 241 356 241 343.2 241 343 199 345.98"/></svg>