<svg xmlns="http://www.w3.org/2000/svg" viewBox="0 0 589.9 367.18"><defs><style>.cls-1{fill:#cffed4;}.cls-2{fill:#eef49f;}.cls-3{fill:#ebc7ff;}.cls-4{fill:#cdedef;}.cls-5{fill:none;}.cls-6{fill:#666;}.cls-7{fill:#4d4d4d;}</style></defs><title>painted-ladies</title><g id="Layer_4" data-name="Layer 4"><polygon class="cls-1" points="147.9 156.84 74.77 73.12 0 157.81 11.71 157.74 11.71 359 137.16 337.77 137.16 156.91 147.9 156.84"/><polygon class="cls-2" points="295.9 132.08 222.77 48.35 148 133.05 159.71 132.97 159.71 335.41 285.16 314.19 285.16 132.15 295.9 132.08"/><polygon class="cls-3" points="442.9 107.31 369.77 23.59 295 108.28 306.71 108.2 306.71 310.65 432.16 290.6 432.16 107.38 442.9 107.31"/><polygon class="cls-4" points="589.9 83.72 516.77 0 442 84.7 453.71 84.62 453.71 287.06 579.16 266.84 579.16 83.8 589.9 83.72"/></g><g id="Layer_2" data-name="Layer 2"><rect class="cls-5" x="228.9" y="144.37" width="19" height="61.32"/><rect class="cls-5" x="210.9" y="144.37" width="15" height="61.32"/><rect class="cls-5" x="250.9" y="144.37" width="16" height="61.32"/><path class="cls-6" d="M584,449.83H525v68.4h62v-68.4Zm-56,64.86V453.37h15v61.32Zm18,0V453.37h19v61.32Zm38,0H568V453.37h16Z" transform="translate(-317.1 -309)"/><rect class="cls-5" x="176.9" y="144.37" width="22" height="61.32"/><path class="cls-6" d="M518,449.83H491v68.4h28v-68.4Zm-24,64.86V453.37h22v61.32Z" transform="translate(-317.1 -309)"/><rect class="cls-5" x="210.9" y="93.66" width="20" height="22.41"/><path class="cls-6" d="M550,399.12H525v29.49h26V399.12Zm-22,25.95V402.66h20v22.41Z" transform="translate(-317.1 -309)"/><rect class="cls-6" x="534.28" y="474.67" width="9.43" height="106" transform="translate(-305.77 757.67) rotate(-90)"/><rect class="cls-6" x="534.28" y="392.12" width="9.43" height="106" transform="translate(-223.22 675.12) rotate(-90)"/><rect class="cls-5" x="228.9" y="224.91" width="19" height="26.43"/><rect class="cls-5" x="210.9" y="224.91" width="15" height="26.43"/><rect class="cls-5" x="250.9" y="224.91" width="16" height="26.43"/><path class="cls-6" d="M584,532.38H525v29.48h62V532.38Zm-56,28V533.91h15v26.43Zm18,0V533.91h19v26.43Zm38,0H568V533.91h16Z" transform="translate(-317.1 -309)"/><rect class="cls-5" x="228.54" y="285.33" width="17.77" height="17.62"/><rect class="cls-5" x="249.12" y="285.33" width="14.97" height="17.62"/><rect class="cls-5" x="228.54" y="265.67" width="17.77" height="17.62"/><rect class="cls-5" x="211.7" y="285.33" width="14.03" height="17.62"/><rect class="cls-5" x="249.12" y="265.67" width="14.97" height="17.62"/><rect class="cls-5" x="211.7" y="265.67" width="14.03" height="17.62"/><rect class="cls-5" x="249.12" y="304.98" width="14.97" height="17.62"/><rect class="cls-5" x="211.7" y="304.98" width="14.03" height="17.62"/><rect class="cls-5" x="228.54" y="304.98" width="17.77" height="17.62"/><path class="cls-6" d="M581.19,573.66H526v59h58v-59Zm-15,1h15V592.3h-15Zm-37.42,19.66h14V612h-14Zm16.84,0h17.77V612H545.65Zm20.58,0h15V612h-15Zm-20.58-19.66h17.77V592.3H545.65Zm-16.84,0h14V592.3h-14Zm14,56.93h-14V614h14Zm20.58,0H545.65V614h17.77Zm17.77,0h-15V614h15Z" transform="translate(-317.1 -309)"/><rect class="cls-5" x="176.9" y="307.11" width="20" height="4.72"/><rect class="cls-5" x="176.9" y="314.19" width="20" height="4.72"/><rect class="cls-5" x="176.9" y="321.26" width="20" height="4.72"/><rect class="cls-5" x="176.9" y="292.96" width="20" height="4.72"/><rect class="cls-5" x="176.9" y="300.04" width="20" height="4.72"/><rect class="cls-5" x="176.9" y="284.71" width="20" height="5.9"/><path class="cls-6" d="M491,538.28v99.06h26V538.28ZM514,635H494v-4.72h20Zm0-7.08H494v-4.71h20Zm0-7.07H494v-4.72h20Zm0-7.08H494V609h20Zm0-7.07H494V602h20Zm0-7.08H494v-5.89h20Z" transform="translate(-317.1 -309)"/><rect class="cls-5" x="523.9" y="97.2" width="19" height="61.32"/><rect class="cls-5" x="505.9" y="97.2" width="15" height="61.32"/><rect class="cls-5" x="545.9" y="97.2" width="16" height="61.32"/><path class="cls-6" d="M879,402.66H820v68.4h62v-68.4Zm-56,64.86V406.2h15v61.32Zm18,0V406.2h19v61.32Zm38,0H863V406.2h16Z" transform="translate(-317.1 -309)"/><rect class="cls-5" x="471.9" y="97.2" width="22" height="61.32"/><path class="cls-6" d="M813,402.66H786v68.4h28v-68.4Zm-24,64.86V406.2h22v61.32Z" transform="translate(-317.1 -309)"/><rect class="cls-5" x="505.9" y="46.49" width="20" height="22.41"/><path class="cls-6" d="M845,352H820v29.48h26V352ZM823,377.9V355.49h20V377.9Z" transform="translate(-317.1 -309)"/><rect class="cls-6" x="829.28" y="427.49" width="9.43" height="106" transform="translate(36.4 1005.49) rotate(-90)"/><rect class="cls-6" x="829.28" y="344.94" width="9.43" height="106" transform="translate(118.95 922.94) rotate(-90)"/><rect class="cls-5" x="523.9" y="177.74" width="19" height="26.43"/><rect class="cls-5" x="505.9" y="177.74" width="15" height="26.43"/><rect class="cls-5" x="545.9" y="177.74" width="16" height="26.43"/><path class="cls-6" d="M879,485.21H820v29.48h62V485.21Zm-56,28V486.74h15v26.43Zm18,0V486.74h19v26.43Zm38,0H863V486.74h16Z" transform="translate(-317.1 -309)"/><rect class="cls-5" x="523.54" y="238.16" width="17.77" height="17.62"/><rect class="cls-5" x="544.12" y="238.16" width="14.97" height="17.62"/><rect class="cls-5" x="523.54" y="218.5" width="17.77" height="17.62"/><rect class="cls-5" x="506.7" y="238.16" width="14.03" height="17.62"/><rect class="cls-5" x="544.12" y="218.5" width="14.97" height="17.62"/><rect class="cls-5" x="506.7" y="218.5" width="14.03" height="17.62"/><rect class="cls-5" x="544.12" y="257.81" width="14.97" height="17.62"/><rect class="cls-5" x="506.7" y="257.81" width="14.03" height="17.62"/><rect class="cls-5" x="523.54" y="257.81" width="17.77" height="17.62"/><path class="cls-6" d="M876.19,526.49H821v59h58v-59Zm-15,1h15v17.62h-15Zm-37.42,19.66h14v17.62h-14Zm16.84,0h17.77v17.62H840.65Zm20.58,0h15v17.62h-15ZM840.65,527.5h17.77v17.62H840.65Zm-16.84,0h14v17.62h-14Zm14,56.93h-14V566.81h14Zm20.58,0H840.65V566.81h17.77Zm17.77,0h-15V566.81h15Z" transform="translate(-317.1 -309)"/><rect class="cls-5" x="471.9" y="259.94" width="20" height="4.72"/><rect class="cls-5" x="471.9" y="267.02" width="20" height="4.72"/><rect class="cls-5" x="471.9" y="274.09" width="20" height="4.72"/><rect class="cls-5" x="471.9" y="245.79" width="20" height="4.72"/><rect class="cls-5" x="471.9" y="252.86" width="20" height="4.72"/><rect class="cls-5" x="471.9" y="237.53" width="20" height="5.9"/><path class="cls-6" d="M786,491.11v99.06h26V491.11Zm23,96.7H789v-4.72h20Zm0-7.08H789V576h20Zm0-7.07H789v-4.72h20Zm0-7.08H789v-4.72h20Zm0-7.07H789v-4.72h20Zm0-7.08H789v-5.9h20Z" transform="translate(-317.1 -309)"/><rect class="cls-5" x="375.9" y="119.61" width="19" height="61.32"/><rect class="cls-5" x="357.9" y="119.61" width="15" height="61.32"/><rect class="cls-5" x="397.9" y="119.61" width="16" height="61.32"/><path class="cls-6" d="M731,425.07H672v68.4h62v-68.4Zm-56,64.86V428.61h15v61.32Zm18,0V428.61h19v61.32Zm38,0H715V428.61h16Z" transform="translate(-317.1 -309)"/><rect class="cls-5" x="323.9" y="119.61" width="22" height="61.32"/><path class="cls-6" d="M665,425.07H638v68.4h28v-68.4Zm-24,64.86V428.61h22v61.32Z" transform="translate(-317.1 -309)"/><rect class="cls-5" x="357.9" y="68.9" width="20" height="22.41"/><path class="cls-6" d="M697,374.36H672v29.48h26V374.36ZM675,400.3V377.9h20v22.4Z" transform="translate(-317.1 -309)"/><rect class="cls-6" x="681.28" y="449.9" width="9.43" height="106" transform="translate(-134 879.9) rotate(-90)"/><rect class="cls-6" x="681.28" y="367.35" width="9.43" height="106" transform="translate(-51.45 797.35) rotate(-90)"/><rect class="cls-5" x="375.9" y="200.14" width="19" height="26.43"/><rect class="cls-5" x="357.9" y="200.14" width="15" height="26.43"/><rect class="cls-5" x="397.9" y="200.14" width="16" height="26.43"/><path class="cls-6" d="M731,507.62H672V537.1h62V507.62Zm-56,28V509.14h15v26.43Zm18,0V509.14h19v26.43Zm38,0H715V509.14h16Z" transform="translate(-317.1 -309)"/><rect class="cls-5" x="375.54" y="260.56" width="17.77" height="17.62"/><rect class="cls-5" x="396.12" y="260.56" width="14.97" height="17.62"/><rect class="cls-5" x="375.54" y="240.91" width="17.77" height="17.62"/><rect class="cls-5" x="358.7" y="260.56" width="14.03" height="17.62"/><rect class="cls-5" x="396.12" y="240.91" width="14.97" height="17.62"/><rect class="cls-5" x="358.7" y="240.91" width="14.03" height="17.62"/><rect class="cls-5" x="396.12" y="280.22" width="14.97" height="17.62"/><rect class="cls-5" x="358.7" y="280.22" width="14.03" height="17.62"/><rect class="cls-5" x="375.54" y="280.22" width="17.77" height="17.62"/><path class="cls-6" d="M728.19,548.89H673v59h58v-59Zm-15,1h15v17.62h-15Zm-37.42,19.65h14v17.63h-14Zm16.84,0h17.77v17.63H692.65Zm20.58,0h15v17.63h-15Zm-20.58-19.65h17.77v17.62H692.65Zm-16.84,0h14v17.62h-14Zm14,56.93h-14V589.22h14Zm20.58,0H692.65V589.22h17.77Zm17.77,0h-15V589.22h15Z" transform="translate(-317.1 -309)"/><rect class="cls-5" x="323.9" y="282.35" width="20" height="4.72"/><rect class="cls-5" x="323.9" y="289.42" width="20" height="4.72"/><rect class="cls-5" x="323.9" y="296.5" width="20" height="4.72"/><rect class="cls-5" x="323.9" y="268.2" width="20" height="4.72"/><rect class="cls-5" x="323.9" y="275.27" width="20" height="4.72"/><rect class="cls-5" x="323.9" y="259.94" width="20" height="5.9"/><path class="cls-6" d="M650.86,513.51c-7.1,0-12.86,6.79-12.86,15.17v83.89h26V529c0-8.56-5.88-15.5-13.14-15.5ZM661,610.22H641V605.5h20Zm0-7.08H641v-4.72h20Zm0-7.08H641v-4.71h20Zm0-7.07H641v-4.72h20Zm0-7.08H641V577.2h20Zm0-7.07H641v-5.9h20Z" transform="translate(-317.1 -309)"/><rect class="cls-5" x="81.9" y="169.14" width="19" height="61.32"/><rect class="cls-5" x="63.9" y="169.14" width="15" height="61.32"/><rect class="cls-5" x="103.9" y="169.14" width="16" height="61.32"/><path class="cls-6" d="M437,474.6H378V543h62V474.6Zm-56,64.86V478.14h15v61.32Zm18,0V478.14h19v61.32Zm38,0H421V478.14h16Z" transform="translate(-317.1 -309)"/><rect class="cls-5" x="29.9" y="169.14" width="22" height="61.32"/><path class="cls-6" d="M371,474.6H344V543h28V474.6Zm-24,64.86V478.14h22v61.32Z" transform="translate(-317.1 -309)"/><rect class="cls-5" x="63.9" y="118.43" width="20" height="22.41"/><path class="cls-6" d="M403,423.89H378v29.48h26V423.89Zm-22,25.94v-22.4h20v22.4Z" transform="translate(-317.1 -309)"/><rect class="cls-6" x="387.28" y="499.43" width="9.43" height="106" transform="translate(-477.53 635.43) rotate(-90)"/><rect class="cls-6" x="387.28" y="416.88" width="9.43" height="106" transform="translate(-394.98 552.88) rotate(-90)"/><rect class="cls-5" x="81.9" y="249.67" width="19" height="26.43"/><rect class="cls-5" x="63.9" y="249.67" width="15" height="26.43"/><rect class="cls-5" x="103.9" y="249.67" width="16" height="26.43"/><path class="cls-6" d="M437,557.15H378v29.48h62V557.15Zm-56,28V558.67h15V585.1Zm18,0V558.67h19V585.1Zm38,0H421V558.67h16Z" transform="translate(-317.1 -309)"/><rect class="cls-5" x="81.54" y="310.09" width="17.77" height="17.62"/><rect class="cls-5" x="102.12" y="310.09" width="14.97" height="17.62"/><rect class="cls-5" x="81.54" y="290.44" width="17.77" height="17.62"/><rect class="cls-5" x="64.7" y="310.09" width="14.03" height="17.62"/><rect class="cls-5" x="102.12" y="290.44" width="14.97" height="17.62"/><rect class="cls-5" x="64.7" y="290.44" width="14.03" height="17.62"/><rect class="cls-5" x="102.12" y="329.75" width="14.97" height="17.62"/><rect class="cls-5" x="64.7" y="329.75" width="14.03" height="17.62"/><rect class="cls-5" x="81.54" y="329.75" width="17.77" height="17.62"/><path class="cls-6" d="M434.19,598.42H379v59h58v-59Zm-15,1h15v17.62h-15Zm-37.42,19.65h14v17.63h-14Zm16.84,0h17.77v17.63H398.65Zm20.58,0h15v17.63h-15Zm-20.58-19.65h17.77v17.62H398.65Zm-16.84,0h14v17.62h-14Zm14,56.93h-14V638.75h14Zm20.58,0H398.65V638.75h17.77Zm17.77,0h-15V638.75h15Z" transform="translate(-317.1 -309)"/><rect class="cls-5" x="29.9" y="331.88" width="20" height="4.72"/><rect class="cls-5" x="29.9" y="338.95" width="20" height="4.72"/><rect class="cls-5" x="29.9" y="346.03" width="20" height="4.72"/><rect class="cls-5" x="29.9" y="317.73" width="20" height="4.72"/><rect class="cls-5" x="29.9" y="324.8" width="20" height="4.72"/><rect class="cls-5" x="29.9" y="309.47" width="20" height="5.9"/><path class="cls-6" d="M356.29,563c-6.79,0-12.29,6.49-12.29,14.49V662.1h26V578.5C370,570,364.13,563,356.89,563ZM367,659.75H347V655h20Zm0-7.08H347V648h20Zm0-7.08H347v-4.71h20Zm0-7.07H347V633.8h20Zm0-7.08H347v-4.71h20Zm0-7.07H347v-5.9h20Z" transform="translate(-317.1 -309)"/><rect class="cls-6" x="72.9" y="117.25" width="2" height="25.94"/><rect class="cls-6" x="210.9" y="104.27" width="20" height="3.54"/><rect class="cls-6" x="366.9" y="65.36" width="2" height="25.94"/><rect class="cls-6" x="502.9" y="57.1" width="23" height="3.54"/></g><g id="Layer_3" data-name="Layer 3"><polygon class="cls-7" points="587.01 265.5 1.81 358.51 2.99 367.18 588.19 273.17 587.01 265.5"/><polyline class="cls-6" points="33.9 144.37 57.9 144.37 57.9 116.07"/><polyline class="cls-6" points="113.9 144.37 89.9 144.37 89.9 116.07"/><polyline class="cls-6" points="180.9 119.61 204.9 119.61 204.9 91.3"/><polyline class="cls-6" points="260.9 119.61 236.9 119.61 236.9 91.3"/><polyline class="cls-6" points="408.9 94.84 384.9 94.84 384.9 66.54"/><polyline class="cls-6" points="326.9 94.84 350.9 94.84 350.9 66.54"/><polyline class="cls-6" points="474.9 72.43 498.9 72.43 498.9 44.13"/><polyline class="cls-6" points="556.9 72.43 532.9 72.43 532.9 44.13"/></g></svg>