<svg id="Layer_2" data-name="Layer 2" xmlns="http://www.w3.org/2000/svg" viewBox="0 0 285 298.15"><defs><style>.cls-1{fill:#0071bc;}.cls-2{fill:#f9b916;}.cls-3{fill:#fed33e;}.cls-4,.cls-5{font-size:51px;font-family:BodoniSvtyTwoSCITCTT-Book, Bodoni 72 Smallcaps;}.cls-4{fill:#e6e6e6;}.cls-5{fill:#fff;}</style></defs><title>seal</title><path class="cls-1" d="M11.65,172.15H273.35A11.65,11.65,0,0,1,285,183.8v57.52a56.83,56.83,0,0,1-56.83,56.83H56.79A56.79,56.79,0,0,1,0,241.36V183.8A11.65,11.65,0,0,1,11.65,172.15Z"/><path class="cls-2" d="M466.55,642.75,465,646h46.4a14.07,14.07,0,0,0,10.47-4.38A14.07,14.07,0,0,0,532.34,646h46.4v-3.25c0-4.22-2.82-7.89-7-9.75H481.21C473.94,633,470.37,637.55,466.55,642.75Z" transform="translate(-447 -423.85)"/><path class="cls-2" d="M718,645.24a16.71,16.71,0,0,0-13.06-11c-4.33-.74-8.86-1.17-12.11-2.8a5.76,5.76,0,0,1-2.28-2L686.33,623s0,0,0-.06c.52,1,1.05,2,1.59,3,0,3.19-3.75,4.61-7.42,4.61H607.38c-7.27,0-13.16,6-18.58,12.76L586.48,647h55.19a13.23,13.23,0,0,0,11-5.77,13.26,13.26,0,0,0,10.44,5H718.3Z" transform="translate(-447 -423.85)"/><path class="cls-2" d="M480,633h-.49C479.06,633.18,479.29,633.2,480,633Z" transform="translate(-447 -423.85)"/><path class="cls-2" d="M687.88,626.86c-.54-1.3-1.07-2.62-1.59-3.94-4.1-10.3-7.91-21.24-12.11-31.27-2.61-27.21-6.77-87.09-17.26-107.85-4.75-9.41-1.55-16.83,3.1-19.23,13.08-6.78,21-18.41,21-27.57,0-7-11.76-1-14-1-4,0-7.4-4.32-10-6-11.16-7.21-17.74-6.18-21-6-4.92-.56-14.73,2.71-17,5-8.64,8.58-12.15,13.64-13.53,17.45a7.85,7.85,0,0,0-.46,2.67V450c0,1,1.71,12.85,3,17s1,21.45,1,25c0,10-1,10-2,19-.29,2.61-.85,7.91-2,14-.43,2.29-2.63,6.56-4,9.68a26,26,0,0,1-2.82,4.81L597,541c-.3.87-50,21-36,16,1.27-.45,5.18.88,4,2-4.66,4.42,6.25,3.2,0,5l30-13c-24.08.26-86.84,19.62-92.89,41-.89,3.13-2.6,8.74-3.1,12l-2.32,12A27.48,27.48,0,0,1,480,633H680.46C684.13,633,687.88,631.11,687.88,626.86Z" transform="translate(-447 -423.85)"/><path class="cls-3" d="M466.52,639,465,642.12h45.61a13.89,13.89,0,0,0,10.29-4.27,13.93,13.93,0,0,0,10.3,4.27h45.61V639c0-4.11-2.78-7.68-6.85-9.49h-89C473.79,629.46,470.28,633.89,466.52,639Z" transform="translate(-447 -423.85)"/><path class="cls-3" d="M713.66,641.37a16.4,16.4,0,0,0-12.83-10.7c-4.26-.71-8.72-1.14-11.91-2.72a5.75,5.75,0,0,1-2.24-2l-4.11-6.26s0,0,0-.06c.51,1,1,1.93,1.56,2.88,0,3.11-3.68,4.49-7.29,4.49H605c-7.14,0-12.93,5.85-18.26,12.42l-2.28,3.66h54.25a13.06,13.06,0,0,0,10.81-5.61,13.12,13.12,0,0,0,10.27,4.88H714Z" transform="translate(-447 -423.85)"/><path class="cls-3" d="M479.72,629.46h-.48C478.82,629.63,479.05,629.65,479.72,629.46Z" transform="translate(-447 -423.85)"/><path class="cls-3" d="M684.09,623.48c-.52-1.27-1.05-2.55-1.56-3.84-4-10-7.78-20.69-11.9-30.46-2.57-26.5-6.66-84.82-17-105-4.67-9.17-1.52-16.39,3-18.73,12.87-6.6,20.63-17.93,20.63-26.85,0-6.82-11.56-1-13.76-1-3.93,0-7.28-4.21-9.83-5.84-11-7-17.44-6-20.63-5.84-4.83-.55-14.47,2.64-16.74,4.87-8.49,8.36-11.94,13.28-13.29,17a7.42,7.42,0,0,0-.46,2.6v.86c0,1,1.69,12.51,3,16.55s1,20.89,1,24.35c0,9.74-1,9.74-2,18.51-.29,2.54-.84,7.7-2,13.63-.42,2.24-2.58,6.39-4,9.43a24.58,24.58,0,0,1-2.78,4.68l-1.11,1.47c-.3.85-49.15,20.46-35.39,15.59,1.25-.45,5.1.85,3.93,1.95-4.58,4.3,6.14,3.11,0,4.86l29.49-12.66c-23.66.26-85.36,19.11-91.31,39.92a117.92,117.92,0,0,0-3,11.69l-2.29,11.7a27,27,0,0,1-16.43,16.56H676.8C680.41,629.46,684.09,627.61,684.09,623.48Z" transform="translate(-447 -423.85)"/><text class="cls-4" transform="translate(49 275.61) scale(1.36 1)">Pier 39</text><text class="cls-5" transform="translate(50 275.61) scale(1.36 1)">Pier 39</text></svg>