<svg xmlns="http://www.w3.org/2000/svg" viewBox="0 0 572.4 553.84"><defs><style>.cls-1{fill:#0071bc;}.cls-2,.cls-3,.cls-4{fill:none;}.cls-2,.cls-3{stroke:#000;stroke-miterlimit:10;}.cls-2{stroke-width:5px;}.cls-3{stroke-width:6px;}.cls-5{fill:#c1272d;}.cls-6{fill:#231f20;}</style></defs><title>san fran</title><g id="water"><path class="cls-1" d="M603.13,867.62C464.23,873.34,342.3,767,316.27,683.31c-.15-.5,562.21,10.73,562,11C813.55,800.47,750.16,861.56,603.13,867.62Z" transform="translate(-309.51 -314)"/></g><g id="Layer_3" data-name="Layer 3"><path class="cls-2" d="M707,423c21.5,77.5,48.5,212.5,97.5,245.5" transform="translate(-309.51 -314)"/><path class="cls-3" d="M487,318c15,113,56,332,126,340" transform="translate(-309.51 -314)"/><path class="cls-2" d="M565,328c3,83,47.5,330.5,106,332" transform="translate(-309.51 -314)"/><rect class="cls-4" x="410.49" y="213" width="30" height="25.02"/><rect class="cls-4" x="192.49" y="212.17" width="41" height="43.34"/><rect class="cls-4" x="410.49" y="160" width="30" height="29"/><rect class="cls-4" x="192.49" y="73.68" width="41" height="43.34"/><rect class="cls-4" x="192.49" y="148.11" width="41" height="32.98"/><polygon class="cls-4" points="471.08 113.1 470.74 452.87 471.08 113.1 471.08 113.1"/><polygon points="189.49 483 159.89 475.7 158.89 6.56 162.89 6.56 188.05 6.56 190.05 6.56 190.04 11.5 192.49 11.5 192.49 3 155.49 3 155.49 474.78 192.49 484 192.49 286.6 189.72 286.6 189.49 483"/><polygon points="192.49 181.08 192.49 148.11 189.88 148.11 189.84 181.08 192.49 181.08"/><polygon points="189.81 212.17 189.76 255.51 192.49 255.51 192.49 212.17 189.81 212.17"/><polygon points="192.49 117.02 192.49 73.68 189.97 73.68 189.92 117.02 192.49 117.02"/><polygon class="cls-5" points="171.34 212.17 171.34 181.08 189.84 181.08 189.88 148.11 171.34 148.11 171.34 117.02 189.92 117.02 189.97 73.68 171.34 73.68 171.34 11.5 190.04 11.5 190.05 6.56 188.05 6.56 162.89 6.56 158.89 6.56 159.89 475.7 189.49 483 189.72 286.6 173.34 286.6 173.34 255.51 189.76 255.51 189.81 212.17 171.34 212.17"/><polygon points="408.49 436.29 410.49 437 410.49 259 408.49 259 408.49 436.29"/><polygon points="408.49 110.69 408.49 117.11 410.49 117.11 410.49 109 387.49 109 387.49 430.57 389.49 431.28 389.49 110.69 408.49 110.69"/><rect x="408.49" y="160" width="2" height="29"/><rect x="408.49" y="213" width="2" height="25.02"/><polygon class="cls-5" points="398.9 259 398.9 238.01 408.49 238.01 408.49 213 398.9 213 398.9 189 408.49 189 408.49 160 395.9 160 395.9 117.11 408.49 117.11 408.49 110.69 389.49 110.69 389.49 431.28 389.49 431.64 408.49 436.36 408.49 436.29 408.49 259 398.9 259"/><rect class="cls-5" x="173.84" y="256.01" width="59.14" height="30.09"/><path d="M542,570.51V599.6H483.86V570.51H542m1-1H482.86V600.6H543V569.51Z" transform="translate(-309.51 -314)"/><rect class="cls-5" x="171.84" y="181.58" width="61.14" height="30.09"/><path d="M542,496.08v29.09H481.86V496.08H542m1-1H480.86v31.09H543V495.08Z" transform="translate(-309.51 -314)"/><rect class="cls-5" x="171.84" y="117.52" width="61.14" height="30.09"/><path d="M542,432v29.09H481.86V432H542m1-1H480.86v31.09H543V431Z" transform="translate(-309.51 -314)"/><rect class="cls-5" x="171.84" y="12" width="61.14" height="61.18"/><path d="M542,326.5v60.18H481.86V326.5H542m1-1H480.86v62.18H543V325.5Z" transform="translate(-309.51 -314)"/><polygon points="233.49 11.5 233.49 73.68 233.49 117.02 233.49 148.11 233.49 181.08 233.49 212.17 233.49 255.51 233.49 286.6 233.49 492.9 236.89 493.5 236.89 7.56 270.57 7.56 270.57 498.91 270.57 501.73 273.49 503 273.49 4 233.49 4 233.49 11.5"/><polygon class="cls-5" points="270.57 7.56 236.89 7.56 236.89 493.5 248.92 496.5 270.57 501.91 270.57 501.73 270.57 498.91 270.57 7.56"/><rect class="cls-5" x="399.4" y="287.53" width="51.59" height="18.97"/><path d="M760,602v18H709.41V602H760m1-1H708.41v20H761V601Z" transform="translate(-309.51 -314)"/><rect class="cls-5" x="396.4" y="117.61" width="43.59" height="41.89"/><path d="M749,432.11V473H706.41V432.11H749m1-1H705.41V474H750V431.11Z" transform="translate(-309.51 -314)"/><rect class="cls-5" x="399.4" y="189.5" width="40.59" height="23"/><path d="M749,504v22H709.41V504H749m1-1H708.41v24H750V503Z" transform="translate(-309.51 -314)"/><rect class="cls-5" x="399.4" y="238.52" width="40.59" height="19.98"/><path d="M749,553v19H709.41V553H749m1-1H708.41v21H750V552Z" transform="translate(-309.51 -314)"/><polygon points="440.49 109 440.49 117.11 440.49 160 440.49 189 440.49 213 440.49 238.01 440.49 259 440.49 446.11 443.24 446.67 443.3 111.92 471.08 111.92 471.08 113.1 471.08 113.1 470.74 452.87 473.49 454 473.49 109 440.49 109"/><polygon class="cls-5" points="471.08 111.92 443.3 111.92 443.24 446.67 443.24 447.24 470.74 452.87 471.08 113.1 471.08 111.92"/><path class="cls-3" d="M482,319c-3,83-76,252-128,328" transform="translate(-309.51 -314)"/><path class="cls-3" d="M565,319c-3,83-53,255-105,331" transform="translate(-309.51 -314)"/><path class="cls-2" d="M767,424c-3.18,87.89-41.9,237-96,236" transform="translate(-309.51 -314)"/><path class="cls-2" d="M766,425c21.5,77.5,71.5,220.5,105.5,247.5" transform="translate(-309.51 -314)"/><path class="cls-2" d="M708,424c-3.29,91-56.5,231.5-95.5,233.5" transform="translate(-309.51 -314)"/><path d="M338.83,691l-.79-1.66L596.79,692Zm-25.71-54.13,3.32.21,14.11,36.49Z" transform="translate(-309.51 -314)"/><path class="cls-6" d="M309.51,634.43l27.92,58.79,531,2.1,13.52-24.64-572.4-36.25Zm555.94,58.18-527.28-5.47-18.78-48.57,557.66,34.87-11.6,19.17Z" transform="translate(-309.51 -314)"/><polygon class="cls-5" points="5.91 323.6 28.63 374.03 555.94 378.61 567.54 359.44 5.91 323.6"/><rect x="162.49" width="23" height="3"/><rect x="241.49" y="1" width="23" height="4"/><rect x="391.49" y="107" width="15" height="3"/><rect x="449.49" y="107" width="15" height="3"/></g></svg>